# Blender v2.83.5 OBJ File: 'corner_top_right.blend'
# www.blender.org
v -2.000000 -1.999999 0.000002
v -2.000000 -1.999998 2.000001
v -0.000000 -1.999999 0.000002
v -0.000000 -1.999997 2.000001
v -1.829311 -1.832373 0.000002
v -1.574660 -1.927024 0.000003
v -1.923963 -1.577721 0.000002
v -1.574660 -1.927023 1.573063
v -1.829311 -1.832371 1.827715
v -1.923953 -1.577720 1.922355
v -0.000000 -1.832371 1.827715
v -0.000000 -1.577720 1.922366
v -0.000000 -1.577720 2.002366
v -1.923953 -1.577720 2.002355
v -2.003953 -1.577720 2.002355
v -2.003953 -1.577720 1.922355
v -2.003963 -1.577721 0.000002
v -0.000000 -1.927023 1.573064
v -0.000000 -2.007023 1.573064
v -1.574660 -2.007023 1.573064
v -1.574660 -2.007024 0.000003
vt 0.500000 0.000000
vt 0.000000 0.000000
vt 0.000000 0.500000
vt 0.500000 0.500000
vt 0.907770 0.500000
vt 0.818193 0.890788
vt 0.818193 0.500000
vt 1.000069 0.500000
vt 0.907770 0.971920
vt 0.818193 0.890639
vt 0.907770 0.972041
vt 0.907770 0.500000
vt 1.000069 0.500000
vt 1.000069 1.000038
vt 1.000069 1.000280
vt 1.000069 1.000038
vt 1.000069 0.500000
vt 1.000069 1.000038
vt 1.000069 1.000038
vt 1.000069 1.000280
vt 1.000069 0.500000
vt 0.818193 0.500000
vt 0.818193 0.500000
vt 0.818193 0.890639
vt 0.818193 0.890788
vt 0.818193 0.500000
vn 0.0000 1.0000 -0.0000
vn 0.2453 0.8709 -0.4259
vn 0.3437 0.9076 0.2410
vn 0.3380 0.9093 0.2428
vn 0.9211 0.3037 0.2436
vn 0.5198 0.6439 0.5614
vn 0.8588 0.3192 -0.4006
vn 0.7134 0.6969 -0.0736
vn 0.0926 0.8657 0.4920
vn 0.4991 0.8499 -0.1691
vn 0.1846 0.7967 -0.5755
vn -0.4919 0.8656 -0.0932
vn 0.0478 0.8031 -0.5939
vn -0.0360 0.5653 -0.8241
vn -0.2144 -0.3787 -0.9003
vn 0.2914 0.8437 -0.4508
vn 0.8236 0.5660 0.0362
vn 0.4503 0.8440 -0.2913
vn 0.9001 -0.3793 0.2143
vn -0.2427 0.3040 -0.9212
vn 0.5432 0.2925 -0.7870
vn -0.5608 0.6441 -0.5202
vn -0.0341 0.5677 -0.8225
vn 0.5032 0.7029 -0.5027
vn -0.8225 0.5677 0.0342
vn -0.0003 0.7029 0.7112
vn -0.7112 0.7029 0.0000
vn 0.8220 0.5685 0.0342
vn 0.5031 0.7029 -0.5027
vn -0.0342 0.5685 0.8220
vn -0.7707 -0.0392 -0.6360
vn 0.0000 -0.0000 -1.0000
vn -0.4463 -0.0227 -0.8946
vn 0.3052 0.1913 -0.9329
vn 0.4468 -0.8946 -0.0000
vn 1.0000 0.0000 0.0000
vn -0.0391 0.7707 -0.6360
vn 0.0227 -0.4463 -0.8946
vn 0.9220 0.3052 -0.2384
vn 0.3052 0.9329 0.1913
vn 0.5656 0.0000 0.8247
vn -0.3173 0.9034 -0.2884
vn 0.2769 0.9162 -0.2895
vn -0.3273 0.8857 -0.3292
s off
f 3/1/1 1/2/1 2/3/1
f 3/1/1 2/3/1 4/4/1
f 5/5/2 8/6/3 6/7/4
f 7/8/5 9/9/6 5/5/7
f 5/5/8 9/9/9 8/6/10
f 8/10/11 9/11/12 11/12/13
f 12/13/14 9/11/15 10/14/16
f 7/8/17 10/15/18 9/9/19
f 12/13/20 11/12/21 9/11/22
f 12/13/23 10/14/24 14/16/1
f 12/13/25 14/16/1 13/17/1
f 14/16/1 10/14/26 15/18/1
f 15/18/1 10/14/27 16/19/1
f 7/8/28 16/20/1 10/15/29
f 7/8/30 17/21/1 16/20/1
f 18/22/31 19/23/32 20/24/33
f 8/6/34 20/25/35 21/26/36
f 18/22/37 20/24/38 8/10/39
f 8/6/40 21/26/36 6/7/41
f 8/10/42 11/12/43 18/22/44
