# Blender v2.83.5 OBJ File: 'turn_right.blend'
# www.blender.org
v 0.999999 -0.000000 1.000001
v 1.000000 -2.000000 0.999999
v 0.999999 -0.000002 3.000001
v 0.999999 -2.000002 2.999999
vt 0.999366 0.000044
vt 0.500229 0.000130
vt 0.500296 0.499667
vt 0.999366 0.499771
vn -1.0000 -0.0000 -0.0000
s off
f 3/1/1 1/2/1 2/3/1
f 3/1/1 2/3/1 4/4/1
v 2.999999 0.000000 1.000002
v 3.000000 -1.999999 1.000000
v 0.999999 -0.000000 1.000001
v 1.000000 -2.000000 0.999999
vt 0.999366 0.000044
vt 0.500229 0.000130
vt 0.500296 0.499667
vt 0.999366 0.499772
vn 0.0000 0.0000 -1.0000
s off
f 7/5/2 5/6/2 6/7/2
f 7/5/2 6/7/2 8/8/2
v -1.000001 -0.000001 1.000000
v -1.000000 -2.000000 0.999998
v -1.000001 -0.000003 3.000000
v -1.000001 -2.000002 2.999998
vt 0.999366 0.000044
vt 0.500296 0.499667
vt 0.500229 0.000130
vt 0.999366 0.499771
vn 1.0000 0.0000 0.0000
s off
f 11/9/3 10/10/3 9/11/3
f 11/9/3 12/12/3 10/10/3
v 2.999999 0.000002 -0.999999
v 3.000000 -1.999997 -1.000001
v 0.999999 0.000002 -0.999999
v 1.000000 -1.999998 -1.000001
vt 0.999366 0.000044
vt 0.500296 0.499667
vt 0.500229 0.000130
vt 0.999366 0.499771
vn -0.0000 -0.0000 1.0000
s off
f 15/13/4 14/14/4 13/15/4
f 15/13/4 16/16/4 14/14/4
v 1.000000 0.000002 -1.000000
v 1.000000 -1.999998 -1.000002
v 1.000000 0.000003 -3.000000
v 1.000001 -1.999996 -3.000002
vt 0.999366 0.000044
vt 0.500229 0.000130
vt 0.500296 0.499667
vt 0.999366 0.499771
vn 1.0000 0.0000 0.0000
s off
f 19/17/5 17/18/5 18/19/5
f 19/17/5 18/19/5 20/20/5
v -1.000000 0.000001 -1.000001
v -0.999999 -1.999999 -1.000003
v -1.000000 0.000003 -3.000001
v -0.999999 -1.999997 -3.000003
vt 0.999366 0.000044
vt 0.500296 0.499667
vt 0.500229 0.000130
vt 0.999366 0.499771
vn -1.0000 -0.0000 -0.0000
s off
f 23/21/6 22/22/6 21/23/6
f 23/21/6 24/24/6 22/22/6
v -1.000000 0.000001 -1.000000
v -0.999999 -1.999999 -1.000002
v -1.000001 -0.000001 1.000000
v -1.000000 -2.000000 0.999998
vt 0.999366 0.000044
vt 0.500296 0.499667
vt 0.500229 0.000130
vt 0.999366 0.499771
vn 1.0000 0.0000 0.0000
s off
f 27/25/7 26/26/7 25/27/7
f 27/25/7 28/28/7 26/26/7
