# Blender v2.83.5 OBJ File: 'turn_right.blend'
# www.blender.org
v -0.999998 -1.999999 -1.000002
v -0.999998 -2.000001 0.999998
v 1.000002 -1.999997 -1.000002
v 1.000002 -1.999999 0.999998
vt 0.499500 0.000000
vt 0.000000 0.000000
vt 0.000000 0.499500
vt 0.499500 0.499500
vn -0.0000 1.0000 0.0000
s off
f 3/1/1 1/2/1 2/3/1
f 3/1/1 2/3/1 4/4/1
v 1.000000 -1.827496 0.829310
v 1.000000 -1.922147 0.574658
v 1.000000 -1.572845 0.923961
v -0.573061 -1.922147 0.574657
v -0.827713 -1.827496 0.829309
v -0.922353 -1.572845 0.923951
v -1.002353 -1.572845 0.923951
v -1.002353 -1.572845 1.003950
v -0.922353 -1.572845 1.003951
v 1.000000 -1.572845 1.003961
v -0.573061 -2.002147 0.574657
v 1.000000 -2.002147 0.574658
v -0.573061 -2.002147 -0.000002
v -0.573061 -1.922147 -0.000002
v -0.922358 -1.572844 -0.000002
v -1.002358 -1.572845 -0.000002
v -0.827713 -1.827496 -0.000002
v 1.000000 -1.827494 -0.829312
v 1.000000 -1.922146 -0.574661
v 1.000000 -1.572843 -0.923963
v -0.573061 -1.922146 -0.574661
v -0.827712 -1.827495 -0.829313
v -0.922352 -1.572844 -0.923955
v -1.002352 -1.572844 -0.923955
v -1.002352 -1.572843 -1.003954
v -0.922352 -1.572843 -1.003954
v 1.000000 -1.572843 -1.003964
v -0.573061 -2.002146 -0.574661
v 1.000000 -2.002146 -0.574661
vt 0.885228 0.999999
vt 0.794000 1.000000
vt 0.793979 0.609365
vt 0.975000 1.000001
vt 0.885206 0.528084
vt 0.975000 0.500352
vt 1.000000 0.500356
vt 1.000045 0.523657
vt 1.000000 0.500356
vt 1.000000 1.000000
vt 0.768724 1.000000
vt 0.768737 0.609365
vt 0.975000 0.740361
vt 1.000000 0.500356
vt 0.975000 0.500352
vt 0.793986 0.751981
vt 0.793978 0.609365
vt 0.768733 0.751981
vt 0.885206 0.528084
vt 0.885216 0.742084
vt 0.885228 0.999999
vt 0.794000 1.000000
vt 0.975000 1.000001
vt 1.000045 0.523657
vt 1.000000 0.500356
vt 1.000000 1.000000
vt 0.768724 1.000000
vt 0.768737 0.609365
vt 1.000000 0.740363
vn -0.0000 0.9959 0.0909
vn -0.0000 0.9939 -0.1103
vn -0.2385 0.8975 -0.3711
vn 0.0000 0.1069 -0.9943
vn -0.0000 -0.0563 -0.9984
vn -0.4931 -0.2211 -0.8414
vn -0.4931 0.8647 -0.0952
vn 0.0000 0.1068 -0.9943
vn -0.4931 -0.2212 -0.8414
vn -0.5031 -0.2040 -0.8398
vn 0.0000 1.0000 -0.0000
vn -0.5031 0.7029 0.5027
vn -0.5029 0.7029 0.5029
vn -0.0000 0.5685 0.8227
vn -0.2384 -0.9220 -0.3052
vn 0.0000 0.0000 -1.0000
vn -0.8946 0.0000 -0.4468
vn 0.0000 -0.8247 -0.5656
vn 0.0000 -1.0000 -0.0000
vn -0.5032 -0.7029 -0.5027
vn -0.6360 -0.3157 0.7041
vn -0.2384 -0.5119 0.8253
vn -0.8946 -0.3428 0.2867
vn 0.8946 -0.0420 -0.4449
vn 0.2384 -0.9190 0.3139
vn 0.8946 -0.3098 0.3220
vn -0.8751 -0.4281 0.2257
vn -0.4824 -0.7459 -0.4593
vn -0.6109 -0.4000 0.6832
vn -0.0000 -0.6947 -0.7193
vn -0.2385 -0.9220 -0.3052
vn 0.0000 -0.5685 -0.8227
vn -0.0000 -0.6948 -0.7192
vn -0.4931 -0.7170 -0.4927
vn 0.5369 0.8110 0.2323
vn 0.0932 0.8656 -0.4919
vn 0.5797 0.8084 0.1022
vn -0.5031 -0.7029 -0.5027
vn -0.5029 -0.7029 -0.5029
vn -0.8946 -0.0420 0.4449
vn -0.2384 -0.9190 -0.3139
vn -0.8946 -0.3098 -0.3220
vn -0.5032 0.7029 0.5027
vn 0.9423 0.2473 -0.2257
vn 0.8524 -0.2498 0.4593
vn 0.7239 0.0961 -0.6832
vn -0.8239 -0.5658 0.0319
vn -0.5031 -0.7030 -0.5027
vn -0.4238 -0.9035 0.0636
vn 0.0949 0.8650 0.4927
vn 0.6303 0.7763 0.0085
vn 0.0716 0.9972 0.0195
vn 0.4567 0.8408 0.2905
vn 0.5027 0.8238 -0.2622
vn 0.1309 0.9752 0.1783
vn 0.5758 0.7966 0.1842
vn 0.6303 0.7763 -0.0077
vn 0.3985 0.8757 0.2725
vn 0.9935 0.1096 -0.0319
vn 0.8401 -0.2038 0.5027
vn 0.9110 -0.4074 -0.0637
vn 0.6360 -0.3157 -0.7041
vn 0.2384 -0.5119 -0.8253
vn 0.8946 -0.3428 -0.2867
s off
f 5/5/2 6/6/3 8/7/4
f 7/8/5 5/5/6 9/9/7
f 5/5/2 8/7/4 9/9/8
f 7/8/9 9/9/10 10/10/11
f 11/11/12 12/12/12 10/10/13
f 12/12/12 13/13/12 10/10/14
f 7/8/15 10/10/13 13/13/12
f 7/8/15 13/13/12 14/14/12
f 8/7/16 16/15/17 15/16/18
f 8/7/16 6/6/19 16/15/17
f 19/17/20 28/18/20 27/19/21
f 18/20/22 25/21/23 17/22/24
f 17/22/25 8/7/26 15/16/27
f 19/17/28 26/23/29 21/24/30
f 22/25/31 23/26/19 25/21/32
f 24/27/33 22/25/34 26/23/35
f 22/25/31 25/21/32 26/23/35
f 25/21/36 26/23/37 21/24/38
f 24/27/33 26/23/35 27/19/39
f 28/18/20 29/28/20 27/19/39
f 29/28/20 30/29/20 27/19/40
f 24/27/33 27/19/39 30/29/20
f 24/27/33 30/29/20 31/30/20
f 25/21/16 33/31/17 32/32/18
f 25/21/16 23/26/19 33/31/17
f 17/22/41 25/21/42 32/32/43
f 19/17/12 11/11/12 10/10/44
f 19/17/45 9/9/46 21/24/47
f 19/17/20 20/33/20 28/18/20
f 19/17/48 27/19/49 26/23/50
f 9/9/51 8/7/52 21/24/53
f 8/7/54 18/20/55 21/24/56
f 18/20/57 25/21/58 21/24/59
f 19/17/12 20/33/12 11/11/12
f 19/17/60 10/10/61 9/9/62
f 18/20/63 8/7/64 17/22/65
