# Blender v2.83.5 OBJ File: 'turn_right.blend'
# www.blender.org
v -0.996277 -0.173974 0.827713
v -0.996277 -0.079323 0.573061
v -0.996277 -0.428626 0.922364
v 1.005534 -0.173972 0.827713
v 1.005535 -0.428624 0.922364
v -0.996277 -0.428626 1.002364
v 1.005535 -0.428624 1.002364
v 1.005534 -0.079321 0.573061
v 1.005534 0.000679 0.573061
v -0.996277 0.000677 0.573061
vt 0.885206 0.500363
vt 0.794000 1.000000
vt 0.885228 0.999999
vt 0.975000 0.500353
vt 0.975000 1.000001
vt 1.000000 1.000001
vt 1.000000 0.500356
vt 0.793979 0.500356
vt 0.768702 0.500355
vt 0.768723 1.000000
vn 0.0000 0.8057 0.5923
vn -0.0000 0.8247 0.5656
vn 0.0000 0.6947 0.7193
vn -0.0001 0.5656 0.8247
vn -0.0000 0.6948 0.7192
vn -0.0000 0.5685 0.8227
vn -0.0000 0.5656 0.8247
vn -0.0000 1.0000 0.0000
vn 0.0001 0.8247 0.5656
vn 0.0000 0.0000 1.0000
s off
f 4/1/1 2/2/2 1/3/3
f 5/4/4 1/3/5 3/5/6
f 5/4/7 4/1/1 1/3/5
f 5/4/7 6/6/8 7/7/8
f 5/4/4 3/5/6 6/6/8
f 4/1/1 8/8/2 2/2/9
f 2/2/9 8/8/2 9/9/10
f 2/2/2 9/9/10 10/10/10
v -0.999056 -0.173973 -0.830021
v -0.999056 -0.079322 -0.575369
v -0.999056 -0.428624 -0.924673
v 1.002756 -0.173970 -0.830021
v 1.002756 -0.428622 -0.924673
v -0.999056 -0.428624 -1.004673
v 1.002756 -0.428622 -1.004673
v 1.002756 -0.079319 -0.575369
v 1.002756 0.000681 -0.575369
v -0.999056 0.000678 -0.575369
vt 0.885206 0.500363
vt 0.885228 0.999999
vt 0.794000 1.000000
vt 0.975000 0.500353
vt 0.975000 1.000001
vt 1.000000 1.000001
vt 1.000000 0.500356
vt 0.793979 0.500356
vt 0.768702 0.500355
vt 0.768723 1.000000
vn 0.0369 0.9961 -0.0801
vn -0.4322 0.8453 -0.3142
vn 0.2406 0.8979 -0.3686
vn -0.0327 0.1124 -0.9931
vn 0.2462 0.3377 -0.9085
vn -0.3970 0.3698 -0.8400
vn -0.2406 0.3686 -0.8979
vn -0.0539 -0.0529 -0.9971
vn 0.5489 0.2912 -0.7835
vn -0.0330 0.5656 0.8240
vn -0.0000 1.0000 0.0000
vn 0.8227 0.5685 0.0000
vn -0.8240 0.5656 -0.0329
vn 0.2719 0.8885 -0.3696
vn 0.0327 0.9931 -0.1124
vn -0.2428 0.9093 -0.3380
vn 0.0330 -0.8240 -0.5656
vn 0.0000 0.0000 -1.0000
vn -0.8247 0.0000 -0.5656
vn 0.8240 0.0329 -0.5656
s off
f 14/11/11 11/12/12 12/13/13
f 15/14/14 13/15/15 11/12/16
f 15/14/17 11/12/18 14/11/19
f 15/14/20 16/16/21 13/15/22
f 15/14/23 17/17/21 16/16/21
f 14/11/24 12/13/25 18/18/26
f 12/13/27 19/19/28 18/18/29
f 12/13/30 20/20/28 19/19/28
v -1.002367 0.000002 -1.000000
v -1.002367 -0.000000 1.000000
v 0.997633 0.000004 -0.999999
v 0.997591 0.000002 1.000000
vt 0.498979 0.500126
vt 0.000000 1.000000
vt 0.000000 0.500126
vt 0.498979 1.000000
vn 0.0000 -1.0000 -0.0000
s off
f 23/21/31 22/22/31 21/23/31
f 22/22/31 23/21/31 24/24/31
