# Blender v2.83.5 OBJ File: 'turn_right.blend'
# www.blender.org
v -1.000000 0.000001 -1.002407
v -1.000000 -1.999999 -1.002409
v -1.000001 -0.000001 0.997593
v -1.000000 -2.000000 0.997591
v 1.000000 0.000002 -1.002406
v 1.000000 -1.999998 -1.002408
v 0.999999 -0.000000 0.997594
v 1.000000 -2.000000 0.997592
vt 0.999901 0.000044
vt 0.500296 0.499667
vt 0.500229 0.000130
vt 0.999901 0.499771
vt 0.999901 0.000044
vt 0.500229 0.000130
vt 0.500296 0.499667
vt 0.999901 0.499771
vn 1.0000 0.0000 0.0000
vn -1.0000 -0.0000 -0.0000
s off
f 3/1/1 2/2/1 1/3/1
f 3/1/1 4/4/1 2/2/1
f 7/5/2 5/6/2 6/7/2
f 7/5/2 6/7/2 8/8/2
