# Blender v2.83.5 OBJ File: 'turn_left.blend'
# www.blender.org
v -2.999999 -1.826676 -2.173425
v -2.999999 -1.921328 -2.428077
v -2.999999 -1.572025 -2.078774
v -0.830244 -1.826676 -2.172867
v -0.924885 -1.572025 -2.078227
v -1.004888 -1.572025 -1.998223
v -0.924673 -1.572022 -0.002778
v -0.830021 -1.826673 -0.002777
v -0.575370 -1.921324 -0.002777
v -0.575370 -2.001324 -0.002777
v -0.575593 -1.921328 -2.427518
v -0.575593 -2.001328 -2.427518
v -2.999999 -2.001328 -2.428077
v -1.004673 -1.572022 -0.002778
v -2.999999 -1.572025 -1.998775
v -0.999999 -1.832376 -3.829310
v -0.999999 -1.927028 -3.574658
v -0.999999 -1.577725 -3.923961
v -2.997635 -1.832376 -3.829310
v -2.997635 -1.577725 -3.923962
v -2.997635 -1.927027 -3.574658
v 0.827354 -1.832373 -0.000041
v 0.572703 -1.927024 -0.000041
v 0.922005 -1.577722 -0.000041
v 0.827713 -1.832375 -1.999998
v 0.922365 -1.577724 -1.999999
v 0.573062 -1.927026 -1.999998
v 0.827713 -1.832376 -3.829309
v 0.573062 -1.927028 -3.574658
v 0.922354 -1.577725 -3.923951
v -0.999999 -2.007028 -3.574658
v -2.997635 -2.007027 -3.574658
v 0.572703 -2.007024 -0.000041
v 0.573062 -2.007027 -1.999998
v 0.573062 -2.007028 -3.574658
v -0.999999 -1.577725 -4.003962
v -2.997634 -1.577725 -4.003962
v 0.922354 -1.577726 -4.003952
v 1.002005 -1.577722 -0.000041
v 1.002365 -1.577724 -1.999999
v 1.002353 -1.577725 -3.923951
v 1.002353 -1.577726 -4.003952
v -1.000000 -2.000003 -3.999998
v 1.000000 -2.000003 -3.999998
v -1.000000 -2.000001 -1.999999
v 1.000000 -2.000001 -1.999998
v -1.000000 -2.000001 -1.999999
v 1.000000 -2.000001 -1.999998
v -1.000000 -1.999999 0.000002
v 0.999999 -1.999999 0.000002
v -3.000000 -2.000003 -3.999999
v -1.000000 -2.000003 -3.999998
v -3.000000 -2.000001 -1.999999
v -1.000000 -2.000001 -1.999999
vt 0.908741 0.947492
vt 0.908750 0.500011
vt 0.979209 0.500003
vt 0.838282 0.927977
vt 0.838290 0.500014
vt 0.908750 0.500011
vt 0.817529 0.911482
vt 0.838290 0.500014
vt 0.979209 0.500003
vt 0.999957 0.999999
vt 0.999957 0.500003
vt 0.979209 0.999999
vt 0.999957 0.500003
vt 0.817543 0.500016
vt 0.817543 0.500016
vt 0.725894 0.500000
vt 0.636317 1.000280
vt 0.725894 1.000280
vt 0.818193 0.500000
vt 0.818193 1.000280
vt 0.636317 0.500000
vt 0.725894 1.000280
vt 0.636317 0.500047
vt 0.725894 0.500047
vt 0.818193 1.000280
vt 0.818193 0.500047
vt 0.636317 1.000280
vt 0.907770 0.500000
vt 0.818193 0.890788
vt 0.907770 0.971920
vt 0.818193 0.890639
vt 0.907770 0.500000
vt 0.907770 0.972041
vt 1.000069 0.500000
vt 1.000069 0.500000
vt 1.000069 1.000280
vt 1.000069 1.000038
vt 0.818193 0.500000
vt 0.818193 0.500000
vt 0.636317 1.000280
vt 0.818193 0.500000
vt 0.636317 0.500000
vt 0.818193 0.890639
vt 1.000069 1.000280
vt 0.818193 1.000280
vt 1.000069 0.500000
vt 1.000069 1.000038
vt 0.818193 0.500047
vt 1.000069 1.000038
vt 1.000069 1.000038
vt 0.636317 0.500047
vt 0.818193 0.890788
vt 0.636317 1.000280
vt 0.818193 0.500000
vt 1.000069 0.500000
vt 0.818193 0.500000
vt 0.818193 1.000280
vt 0.500000 0.000000
vt 0.000000 0.500000
vt 0.000000 0.000000
vt 0.500000 0.500000
vt 0.500000 0.000000
vt 0.000000 0.500000
vt 0.000000 0.000000
vt 0.500000 0.500000
vt 0.500000 0.000000
vt 0.000000 0.500000
vt 0.000000 0.000000
vt 0.500000 0.500000
vn -0.3190 -0.8982 0.3025
vn -0.5453 -0.7857 0.2921
vn 0.1357 -0.9226 0.3611
vn -0.6099 0.0088 0.7924
vn 0.4107 -0.3177 0.8546
vn -0.2766 -0.3685 0.8875
vn -0.0681 -0.8851 0.4603
vn -0.0364 -0.0757 0.9965
vn 0.5785 0.2937 0.7610
vn -0.4605 -0.8851 0.0681
vn -0.7609 0.2938 -0.5786
vn -0.9965 -0.0756 0.0363
vn 0.0287 -0.7028 -0.7108
vn -0.8028 -0.5963 -0.0001
vn 0.0000 -1.0000 0.0000
vn 0.7108 -0.7028 -0.0286
vn 0.0001 -0.5963 0.8028
vn -0.7926 0.0088 0.6096
vn -0.8876 -0.3685 0.2764
vn -0.8546 -0.3176 -0.4108
vn -0.3026 -0.8982 0.3189
vn -0.3665 -0.8956 -0.2522
vn -0.2922 -0.7857 0.5453
vn -0.5753 -0.0270 -0.8175
vn -0.8944 0.0147 0.4469
vn -1.0000 0.0000 0.0001
vn -0.5752 0.8175 -0.0269
vn -0.2933 -0.4275 0.8551
vn -0.8945 0.4469 -0.0147
vn -0.1308 -0.9621 -0.2394
vn -0.6219 -0.7330 0.2757
vn -0.1005 -0.9944 -0.0316
vn -0.8451 -0.3212 0.4274
vn -0.0002 0.0000 1.0000
vn -0.0001 0.8943 0.4474
vn -0.3214 0.8450 0.4275
vn 0.8807 -0.0000 0.4736
vn 0.2394 -0.9621 0.1307
vn 0.0170 -0.9759 0.2177
vn -0.2757 -0.8409 0.4656
vn -0.0285 -0.7028 -0.7108
vn 0.7108 -0.7028 0.0287
vn -0.0000 0.9970 0.0778
vn 0.0000 0.9939 0.1103
vn -0.0000 0.9959 -0.0909
vn 0.0000 0.1103 0.9939
vn -0.0000 -0.0563 0.9984
vn 0.0000 0.1069 0.9943
vn 0.0000 -0.2233 0.9748
vn -0.0710 0.9975 -0.0001
vn -0.1103 0.9939 -0.0001
vn 0.2233 0.9748 0.0001
vn -0.9942 0.1078 -0.0003
vn -0.9970 0.0778 -0.0002
vn -0.9939 0.1103 -0.0002
vn -0.9942 0.1078 -0.0002
vn -0.9762 -0.2167 -0.0002
vn -0.0710 0.9975 -0.0000
vn -0.0224 0.9997 -0.0001
vn -0.1103 0.9939 -0.0000
vn 0.2385 0.8975 0.3711
vn 0.4931 0.8647 0.0952
vn -0.4216 0.8539 -0.3052
vn -0.0710 0.9975 0.0001
vn -0.0949 0.8650 -0.4927
vn -0.9942 0.1078 0.0001
vn -0.8417 -0.2209 -0.4927
vn -0.9762 -0.2167 -0.0000
vn -0.0000 0.1068 0.9943
vn 0.4931 -0.2212 0.8414
vn 0.5031 -0.2040 0.8398
vn -0.9942 0.1077 0.0001
vn -0.8401 -0.2038 -0.5027
vn 0.4931 -0.2211 0.8414
vn -0.0224 0.9997 -0.0000
vn -0.5656 -0.8247 -0.0002
vn -0.6360 -0.7717 -0.0001
vn -1.0000 0.0000 -0.0002
vn 0.2384 -0.9220 0.3052
vn 0.0000 -0.8247 0.5656
vn 0.0000 0.0000 1.0000
vn -0.6360 -0.7717 0.0001
vn -0.2384 -0.9220 -0.3052
vn -0.8946 -0.0000 -0.4468
vn 0.0000 0.5685 -0.8227
vn 0.5031 0.7029 -0.5027
vn 0.0000 1.0000 -0.0000
vn 0.0000 0.5656 -0.8247
vn 0.8232 0.5677 -0.0000
vn 0.8232 0.5677 0.0001
vn 0.8247 0.5656 -0.0000
vn 0.5029 0.7029 -0.5029
vn -0.5656 -0.8247 -0.0001
vn 0.8946 0.0000 0.4468
vn -0.6360 -0.7717 -0.0000
vn -1.0000 0.0000 0.0000
vn 0.5032 0.7029 -0.5027
s off
f 4/1/1 1/2/2 2/3/3
f 5/4/4 3/5/5 1/2/6
f 5/4/7 1/2/8 4/1/9
f 5/4/10 4/1/11 8/6/12
f 3/5/13 5/4/14 6/7/15
f 7/8/16 6/7/15 5/4/17
f 5/4/18 8/6/19 7/8/20
f 4/1/21 9/9/22 8/6/23
f 9/9/24 12/10/25 10/11/26
f 9/9/27 11/12/28 12/10/29
f 4/1/30 11/12/31 9/9/32
f 11/12/33 13/13/34 12/10/35
f 11/12/36 2/3/37 13/13/34
f 4/1/38 2/3/39 11/12/40
f 7/8/41 14/14/15 6/7/15
f 3/5/42 6/7/15 15/15/15
f 19/16/43 17/17/44 16/18/45
f 20/19/46 16/18/47 18/20/48
f 20/19/46 19/16/49 16/18/47
f 19/16/43 21/21/44 17/17/44
f 25/22/50 23/23/51 22/24/52
f 26/25/53 22/24/54 24/26/55
f 26/25/56 25/22/57 22/24/54
f 25/22/58 27/27/59 23/23/60
f 16/28/45 29/29/61 28/30/62
f 29/31/63 25/32/64 28/33/65
f 26/34/66 28/33/67 25/32/68
f 18/35/69 28/30/70 30/36/71
f 26/34/72 30/37/73 28/33/67
f 18/35/48 16/28/47 28/30/74
f 16/28/45 17/38/44 29/29/61
f 29/31/63 27/39/75 25/32/64
f 23/23/76 27/27/77 34/40/78
f 29/29/79 17/38/80 31/41/81
f 17/17/80 21/21/80 32/42/81
f 27/39/82 29/31/83 35/43/84
f 18/35/85 30/36/86 38/44/87
f 20/19/88 18/20/85 36/45/87
f 26/34/89 40/46/87 41/47/87
f 26/25/90 24/26/91 39/48/87
f 41/47/87 42/49/87 30/37/86
f 42/49/87 38/50/87 30/37/92
f 23/23/93 34/40/78 33/51/78
f 29/29/79 31/41/81 35/52/94
f 17/17/80 32/42/81 31/53/81
f 27/39/95 35/43/84 34/54/96
f 18/35/85 38/44/87 36/55/87
f 20/19/88 36/45/87 37/56/87
f 26/34/90 41/47/87 30/37/97
f 26/25/90 39/48/87 40/57/87
f 45/58/87 44/59/87 43/60/87
f 45/58/87 46/61/87 44/59/87
f 49/62/87 48/63/87 47/64/87
f 49/62/87 50/65/87 48/63/87
f 53/66/87 52/67/87 51/68/87
f 53/66/87 54/69/87 52/67/87
