# Blender v2.83.5 OBJ File: 'turn_left.blend'
# www.blender.org
v -2.999997 -1.826674 -2.173429
v -2.999997 -1.921325 -2.428080
v -2.999997 -1.572022 -2.078777
v -0.830242 -1.826672 -2.172870
v -0.924883 -1.572021 -2.078229
v -1.004887 -1.572021 -1.998226
v -0.924672 -1.572022 -0.002781
v -0.830020 -1.826673 -0.002780
v -0.575369 -1.921325 -0.002780
v -0.575369 -2.001325 -0.002780
v -0.575591 -1.921324 -2.427521
v -0.575591 -2.001323 -2.427521
v -2.999997 -2.001325 -2.428081
v -1.004672 -1.572022 -0.002781
v -2.999997 -1.572022 -1.998778
v -0.999997 -1.832370 -3.829313
v -0.999997 -1.927021 -3.574661
v -0.999997 -1.577718 -3.923964
v -2.997633 -1.832370 -3.829314
v -2.997633 -1.577719 -3.923965
v -2.997633 -1.927022 -3.574662
v 0.827355 -1.832373 -0.000044
v 0.572704 -1.927024 -0.000044
v 0.922007 -1.577721 -0.000043
v 0.827715 -1.832371 -2.000001
v 0.922366 -1.577719 -2.000001
v 0.573064 -1.927022 -2.000001
v 0.827715 -1.832369 -3.829312
v 0.573064 -1.927021 -3.574661
v 0.922355 -1.577718 -3.923954
v -0.999997 -2.007021 -3.574661
v -2.997633 -2.007022 -3.574662
v 0.572704 -2.007024 -0.000044
v 0.573064 -2.007022 -2.000001
v 0.573064 -2.007020 -3.574661
v -0.999997 -1.577718 -4.003964
v -2.997633 -1.577719 -4.003964
v 0.922355 -1.577717 -4.003954
v 1.002007 -1.577721 -0.000043
v 1.002366 -1.577719 -2.000001
v 1.002355 -1.577718 -3.923954
v 1.002355 -1.577717 -4.003954
v -0.999998 -1.999996 -4.000002
v 1.000002 -1.999995 -4.000001
v -0.999998 -1.999998 -2.000002
v 1.000001 -1.999997 -2.000001
v -0.999998 -1.999998 -2.000002
v 1.000001 -1.999997 -2.000001
v -0.999999 -2.000000 -0.000002
v 1.000001 -1.999999 -0.000001
v -2.999998 -1.999997 -4.000003
v -0.999998 -1.999996 -4.000002
v -2.999998 -1.999998 -2.000003
v -0.999998 -1.999998 -2.000002
vt 0.908741 0.947492
vt 0.979209 0.500003
vt 0.908750 0.500011
vt 0.838282 0.927977
vt 0.838290 0.500014
vt 0.908750 0.500011
vt 0.817529 0.911482
vt 0.838290 0.500014
vt 0.979209 0.500003
vt 0.999957 0.500003
vt 0.999957 0.999999
vt 0.979209 0.999999
vt 0.999957 0.500003
vt 0.817543 0.500016
vt 0.817543 0.500016
vt 0.725894 0.500000
vt 0.636317 1.000280
vt 0.725894 1.000280
vt 0.818193 0.500000
vt 0.818193 1.000280
vt 0.636317 0.500000
vt 0.725894 1.000280
vt 0.636317 0.500047
vt 0.725894 0.500047
vt 0.818193 1.000280
vt 0.818193 0.500047
vt 0.636317 1.000280
vt 0.907770 0.500000
vt 0.818193 0.890788
vt 0.907770 0.971920
vt 0.818193 0.890639
vt 0.907770 0.500000
vt 0.907770 0.972041
vt 1.000069 0.500000
vt 1.000069 0.500000
vt 1.000069 1.000280
vt 1.000069 1.000038
vt 0.818193 0.500000
vt 0.818193 0.500000
vt 0.636317 1.000280
vt 0.818193 0.500000
vt 0.636317 0.500000
vt 0.818193 0.890639
vt 1.000069 1.000280
vt 0.818193 1.000280
vt 1.000069 0.500000
vt 1.000069 1.000038
vt 0.818193 0.500047
vt 1.000069 1.000038
vt 1.000069 1.000038
vt 0.636317 0.500047
vt 0.818193 0.890788
vt 0.636317 1.000280
vt 0.818193 0.500000
vt 1.000069 0.500000
vt 0.818193 0.500000
vt 0.818193 1.000280
vt 0.500000 0.000000
vt 0.000000 0.500000
vt 0.000000 0.000000
vt 0.500000 0.500000
vt 0.500000 0.000000
vt 0.000000 0.500000
vt 0.000000 0.000000
vt 0.500000 0.500000
vt 0.500000 0.000000
vt 0.000000 0.500000
vt 0.000000 0.000000
vt 0.500000 0.500000
vn -0.3200 0.8843 -0.3400
vn 0.0001 0.9762 -0.2169
vn -0.0001 0.9757 0.2190
vn -0.5674 -0.0807 -0.8195
vn 0.0002 0.0733 -0.9973
vn 0.0003 -0.0676 -0.9977
vn -0.5674 -0.0806 -0.8195
vn -0.3198 -0.4660 -0.8249
vn 0.0003 0.0734 -0.9973
vn 0.8195 -0.0807 0.5674
vn 0.9973 0.0734 -0.0001
vn 0.8249 -0.4661 0.3199
vn -0.0002 0.7028 0.7114
vn -0.0000 1.0000 -0.0000
vn -0.5677 0.5963 0.5675
vn -0.7114 0.7028 0.0001
vn -0.5676 0.5963 0.5676
vn 0.9977 -0.0675 -0.0001
vn 0.3400 0.8843 0.3200
vn -0.2190 0.9757 0.0001
vn 0.0987 0.9951 0.0000
vn 0.5752 -0.8180 -0.0001
vn 1.0000 0.0000 -0.0001
vn 0.8945 -0.0000 0.4470
vn 0.2934 -0.8551 0.4274
vn 0.3399 0.8843 0.3200
vn 0.0986 0.9951 0.0000
vn 0.3364 0.8391 0.4274
vn -0.2931 -0.8551 -0.4276
vn -0.8942 0.0000 -0.4476
vn 0.0002 0.0000 -1.0000
vn -0.2932 -0.8551 -0.4276
vn 0.0001 -0.8808 -0.4734
vn -0.3200 0.8843 -0.3399
vn -0.2931 0.9268 -0.2347
vn 0.0000 0.9762 -0.2167
vn -0.0000 0.7028 0.7114
vn -0.0000 0.9970 0.0778
vn -0.0000 0.9939 0.1103
vn -0.0000 0.9959 -0.0909
vn 0.0000 0.1103 0.9939
vn -0.0000 -0.0563 0.9984
vn -0.0000 0.1069 0.9943
vn 0.0000 -0.2233 0.9748
vn -0.0710 0.9975 -0.0001
vn -0.1103 0.9939 -0.0001
vn 0.2233 0.9748 0.0001
vn -0.9942 0.1078 -0.0003
vn -0.9970 0.0778 -0.0002
vn -0.9939 0.1103 -0.0002
vn -0.9942 0.1078 -0.0002
vn -0.9762 -0.2167 -0.0002
vn -0.0710 0.9975 -0.0000
vn -0.0224 0.9997 -0.0001
vn -0.1103 0.9939 -0.0000
vn 0.2385 0.8975 0.3711
vn 0.4931 0.8647 0.0952
vn -0.4216 0.8539 -0.3052
vn -0.0710 0.9975 0.0001
vn -0.0949 0.8650 -0.4927
vn -0.9942 0.1078 0.0001
vn -0.8417 -0.2209 -0.4927
vn -0.9762 -0.2167 -0.0000
vn -0.0000 0.1068 0.9943
vn 0.4931 -0.2212 0.8414
vn 0.5031 -0.2040 0.8398
vn -0.9942 0.1077 0.0001
vn -0.8401 -0.2038 -0.5027
vn 0.4931 -0.2211 0.8414
vn -0.0224 0.9997 0.0000
vn -0.5656 -0.8247 -0.0002
vn -0.6360 -0.7717 -0.0001
vn -1.0000 0.0000 -0.0002
vn 0.2384 -0.9220 0.3052
vn 0.0000 -0.8247 0.5656
vn 0.0000 0.0000 1.0000
vn -0.6360 -0.7717 0.0001
vn -0.2384 -0.9220 -0.3052
vn -0.8946 -0.0000 -0.4468
vn 0.0000 0.5685 -0.8227
vn 0.5031 0.7029 -0.5027
vn 0.0000 0.5656 -0.8247
vn 0.8232 0.5677 0.0000
vn 0.8232 0.5677 0.0001
vn 0.8247 0.5656 0.0000
vn 0.5029 0.7029 -0.5029
vn -0.5656 -0.8247 -0.0001
vn 0.8946 0.0000 0.4468
vn -0.6360 -0.7717 -0.0000
vn -1.0000 0.0000 -0.0000
vn 0.5032 0.7029 -0.5027
s off
f 4/1/1 2/2/2 1/3/3
f 5/4/4 1/3/5 3/5/6
f 5/4/7 4/1/8 1/3/9
f 5/4/10 8/6/11 4/1/12
f 3/5/13 6/7/14 5/4/15
f 7/8/16 5/4/17 6/7/14
f 5/4/10 7/8/18 8/6/11
f 4/1/19 8/6/20 9/9/21
f 9/9/22 10/10/23 12/11/24
f 9/9/22 12/11/24 11/12/25
f 4/1/26 9/9/27 11/12/28
f 11/12/29 12/11/30 13/13/31
f 11/12/32 13/13/31 2/2/33
f 4/1/34 11/12/35 2/2/36
f 7/8/16 6/7/14 14/14/14
f 3/5/37 15/15/14 6/7/14
f 19/16/38 17/17/39 16/18/40
f 20/19/41 16/18/42 18/20/43
f 20/19/41 19/16/44 16/18/42
f 19/16/38 21/21/39 17/17/39
f 25/22/45 23/23/46 22/24/47
f 26/25/48 22/24/49 24/26/50
f 26/25/51 25/22/52 22/24/49
f 25/22/53 27/27/54 23/23/55
f 16/28/40 29/29/56 28/30/57
f 29/31/58 25/32/59 28/33/60
f 26/34/61 28/33/62 25/32/63
f 18/35/64 28/30/65 30/36/66
f 26/34/67 30/37/68 28/33/62
f 18/35/43 16/28/42 28/30/69
f 16/28/40 17/38/39 29/29/56
f 29/31/58 27/39/70 25/32/59
f 23/23/71 27/27/72 34/40/73
f 29/29/74 17/38/75 31/41/76
f 17/17/75 21/21/75 32/42/76
f 27/39/77 29/31/78 35/43/79
f 18/35/80 30/36/81 38/44/14
f 20/19/82 18/20/80 36/45/14
f 26/34/83 40/46/14 41/47/14
f 26/25/84 24/26/85 39/48/14
f 41/47/14 42/49/14 30/37/81
f 42/49/14 38/50/14 30/37/86
f 23/23/87 34/40/73 33/51/73
f 29/29/74 31/41/76 35/52/88
f 17/17/75 32/42/76 31/53/76
f 27/39/89 35/43/79 34/54/90
f 18/35/80 38/44/14 36/55/14
f 20/19/82 36/45/14 37/56/14
f 26/34/84 41/47/14 30/37/91
f 26/25/84 39/48/14 40/57/14
f 45/58/14 44/59/14 43/60/14
f 45/58/14 46/61/14 44/59/14
f 49/62/14 48/63/14 47/64/14
f 49/62/14 50/65/14 48/63/14
f 53/66/14 52/67/14 51/68/14
f 53/66/14 54/69/14 52/67/14
