# Blender v2.83.5 OBJ File: 'maze00.blend'
# www.blender.org
mtllib maze00.mtl
o Cube
v 1.000000 1.000000 -1.000000
v 1.000000 -1.000000 -1.000000
v 1.000000 1.000000 1.000000
v 1.000000 -1.000000 1.000000
v -1.000000 1.000000 -1.000000
v -1.000000 -1.000000 -1.000000
v -1.000000 1.000000 1.000000
v -1.000000 -1.000000 1.000000
v 3.000000 1.000000 -1.000000
v 3.000000 -1.000000 -1.000000
v 3.000000 1.000000 1.000000
v 3.000000 -1.000000 1.000000
v 1.000000 1.000000 -1.000000
v 1.000000 -1.000000 -1.000000
v 1.000000 1.000000 1.000000
v 1.000000 -1.000000 1.000000
v 5.000000 1.000000 -1.000000
v 5.000000 -1.000000 -1.000000
v 5.000000 1.000000 1.000000
v 5.000000 -1.000000 1.000000
v 3.000000 1.000000 -1.000000
v 3.000000 -1.000000 -1.000000
v 3.000000 1.000000 1.000000
v 3.000000 -1.000000 1.000000
v 7.000000 1.000000 -1.000000
v 7.000000 -1.000000 -1.000000
v 7.000000 1.000000 1.000000
v 7.000000 -1.000000 1.000000
v 5.000000 1.000000 -1.000000
v 5.000000 -1.000000 -1.000000
v 5.000000 1.000000 1.000000
v 5.000000 -1.000000 1.000000
v 9.000000 1.000000 -1.000000
v 9.000000 -1.000000 -1.000000
v 9.000000 1.000000 1.000000
v 9.000000 -1.000000 1.000000
v 7.000000 1.000000 -1.000000
v 7.000000 -1.000000 -1.000000
v 7.000000 1.000000 1.000000
v 7.000000 -1.000000 1.000000
v 11.000000 1.000000 -1.000000
v 11.000000 -1.000000 -1.000000
v 11.000000 1.000000 1.000000
v 11.000000 -1.000000 1.000000
v 9.000000 1.000000 -1.000000
v 9.000000 -1.000000 -1.000000
v 9.000000 1.000000 1.000000
v 9.000000 -1.000000 1.000000
v 12.737110 1.000000 1.000000
v 12.737110 -1.000000 1.000000
v 10.737110 -1.000000 1.000000
v 12.737110 1.000000 -1.000000
v 12.737110 -1.000000 -1.000000
v 10.737110 -1.000000 -1.000000
v 12.737110 1.000000 3.000000
v 12.737110 -1.000000 3.000000
v 10.737110 1.000000 3.000000
v 10.737110 -1.000000 3.000000
v 12.737110 1.000000 1.000000
v 12.737110 -1.000000 1.000000
v 10.737110 1.000000 1.000000
v 10.737110 -1.000000 1.000000
v 12.737110 1.000000 5.000000
v 12.737110 -1.000000 5.000000
v 10.737110 1.000000 5.000000
v 10.737110 -1.000000 5.000000
v 12.737110 1.000000 3.000000
v 12.737110 -1.000000 3.000000
v 10.737110 1.000000 3.000000
v 10.737110 -1.000000 3.000000
v 12.737110 1.000000 7.000000
v 12.737110 -1.000000 7.000000
v 10.737110 -1.000000 7.000000
v 12.737110 1.000000 5.000000
v 12.737110 -1.000000 5.000000
v 10.737110 -1.000000 5.000000
v 12.737110 1.000000 9.000000
v 12.737110 -1.000000 9.000000
v 10.737110 1.000000 9.000000
v 10.737110 -1.000000 9.000000
v 12.737110 1.000000 7.000000
v 12.737110 -1.000000 7.000000
v 10.737110 1.000000 7.000000
v 10.737110 -1.000000 7.000000
v 12.737110 1.000000 11.000000
v 12.737110 -1.000000 11.000000
v 10.737110 1.000000 11.000000
v 10.737110 -1.000000 11.000000
v 12.737110 1.000000 9.000000
v 12.737110 -1.000000 9.000000
v 10.737110 1.000000 9.000000
v 10.737110 -1.000000 9.000000
v 9.000000 1.000000 5.000000
v 9.000000 -1.000000 5.000000
v 9.000000 1.000000 7.000000
v 9.000000 -1.000000 7.000000
v 7.000000 1.000000 5.000000
v 7.000000 -1.000000 5.000000
v 7.000000 1.000000 7.000000
v 7.000000 -1.000000 7.000000
v 11.000000 1.000000 5.000000
v 11.000000 -1.000000 5.000000
v 11.000000 1.000000 7.000000
v 11.000000 -1.000000 7.000000
v 9.000000 1.000000 5.000000
v 9.000000 -1.000000 5.000000
v 9.000000 1.000000 7.000000
v 9.000000 -1.000000 7.000000
v 5.016418 -1.000000 5.000000
v 5.016418 -1.000000 7.000000
v 3.016418 -1.000000 5.000000
v 3.016418 -1.000000 7.000000
v 7.016418 -1.000000 5.000000
v 7.016418 -1.000000 7.000000
v 5.016418 -1.000000 5.000000
v 5.016418 -1.000000 7.000000
v 5.016418 -1.000000 7.000000
v 5.016418 -1.000000 9.000000
v 3.016418 -1.000000 7.000000
v 3.016418 -1.000000 9.000000
v 7.016418 -1.000000 7.000000
v 7.016418 -1.000000 9.000000
v 5.016418 -1.000000 7.000000
v 5.016418 -1.000000 9.000000
v 5.016418 -1.000000 9.000000
v 5.016418 -1.000000 11.000000
v 3.016418 -1.000000 9.000000
v 3.016418 -1.000000 11.000000
v 7.016418 -1.000000 9.000000
v 7.016418 -1.000000 11.000000
v 5.016418 -1.000000 9.000000
v 5.016418 -1.000000 11.000000
v 5.016418 -1.000000 3.000000
v 5.016418 -1.000000 5.000000
v 3.016418 -1.000000 3.000000
v 3.016418 -1.000000 5.000000
v 7.016418 -1.000000 3.000000
v 7.016418 -1.000000 5.000000
v 5.016418 -1.000000 3.000000
v 5.016418 -1.000000 5.000000
v 5.016418 -1.000000 1.000000
v 5.016418 -1.000000 3.000000
v 3.016418 -1.000000 1.000000
v 3.016418 -1.000000 3.000000
v 7.016418 -1.000000 1.000000
v 7.016418 -1.000000 3.000000
v 5.016418 -1.000000 1.000000
v 5.016418 -1.000000 3.000000
v 1.016418 -1.000000 5.000000
v 1.016418 -1.000000 7.000000
v -0.983582 -1.000000 5.000000
v -0.983582 -1.000000 7.000000
v 3.016418 -1.000000 5.000000
v 3.016418 -1.000000 7.000000
v 1.016418 -1.000000 5.000000
v 1.016418 -1.000000 7.000000
v 1.016418 -1.000000 7.000000
v 1.016418 -1.000000 9.000000
v -0.983582 -1.000000 7.000000
v -0.983582 -1.000000 9.000000
v 3.016418 -1.000000 7.000000
v 3.016418 -1.000000 9.000000
v 1.016418 -1.000000 7.000000
v 1.016418 -1.000000 9.000000
v 1.016418 -1.000000 9.000000
v 1.016418 -1.000000 11.000000
v -0.983582 -1.000000 9.000000
v -0.983582 -1.000000 11.000000
v 3.016418 -1.000000 9.000000
v 3.016418 -1.000000 11.000000
v 1.016418 -1.000000 9.000000
v 1.016418 -1.000000 11.000000
v 1.016418 -1.000000 3.000000
v 1.016418 -1.000000 5.000000
v -0.983582 -1.000000 3.000000
v -0.983582 -1.000000 5.000000
v 3.016418 -1.000000 3.000000
v 3.016418 -1.000000 5.000000
v 1.016418 -1.000000 3.000000
v 1.016418 -1.000000 5.000000
v 1.016418 -1.000000 1.000000
v 1.016418 -1.000000 3.000000
v -0.983582 -1.000000 1.000000
v -0.983582 -1.000000 3.000000
v 3.016418 -1.000000 1.000000
v 3.016418 -1.000000 3.000000
v 1.016418 -1.000000 1.000000
v 1.016418 -1.000000 3.000000
v 1.000000 -1.000000 11.000000
v 1.000000 1.000000 13.000000
v 1.000000 -1.000000 13.000000
v -1.000000 -1.000000 11.000000
v -1.000000 1.000000 13.000000
v -1.000000 -1.000000 13.000000
v 3.000000 -1.000000 11.000000
v 3.000000 1.000000 13.000000
v 3.000000 -1.000000 13.000000
v 1.000000 -1.000000 11.000000
v 1.000000 1.000000 13.000000
v 1.000000 -1.000000 13.000000
v 5.000000 -1.000000 11.000000
v 5.000000 1.000000 13.000000
v 5.000000 -1.000000 13.000000
v 3.000000 -1.000000 11.000000
v 3.000000 1.000000 13.000000
v 3.000000 -1.000000 13.000000
v 7.000000 -1.000000 11.000000
v 7.000000 1.000000 13.000000
v 7.000000 -1.000000 13.000000
v 5.000000 -1.000000 11.000000
v 5.000000 1.000000 13.000000
v 5.000000 -1.000000 13.000000
v 9.000000 -1.000000 11.000000
v 9.000000 1.000000 13.000000
v 9.000000 -1.000000 13.000000
v 7.000000 -1.000000 11.000000
v 7.000000 1.000000 13.000000
v 7.000000 -1.000000 13.000000
v 11.000000 -1.000000 11.000000
v 11.000000 1.000000 13.000000
v 11.000000 -1.000000 13.000000
v 9.000000 -1.000000 11.000000
v 9.000000 1.000000 13.000000
v 9.000000 -1.000000 13.000000
v -1.000000 -1.000000 3.000000
v -3.000000 1.000000 3.000000
v -3.000000 -1.000000 3.000000
v -1.000000 -1.000000 1.000000
v -3.000000 1.000000 1.000000
v -3.000000 -1.000000 1.000000
v -1.000000 -1.000000 5.000000
v -3.000000 1.000000 5.000000
v -3.000000 -1.000000 5.000000
v -1.000000 -1.000000 3.000000
v -3.000000 1.000000 3.000000
v -3.000000 -1.000000 3.000000
v -1.000000 -1.000000 7.000000
v -3.000000 1.000000 7.000000
v -3.000000 -1.000000 7.000000
v -1.000000 -1.000000 5.000000
v -3.000000 1.000000 5.000000
v -3.000000 -1.000000 5.000000
v -1.000000 -1.000000 9.000000
v -3.000000 1.000000 9.000000
v -3.000000 -1.000000 9.000000
v -1.000000 -1.000000 7.000000
v -3.000000 1.000000 7.000000
v -3.000000 -1.000000 7.000000
v -0.999999 -1.000000 11.000000
v -2.999999 1.000000 11.000000
v -2.999999 -1.000000 11.000000
v -1.000000 -1.000000 9.000000
v -3.000000 1.000000 9.000000
v -3.000000 -1.000000 9.000000
v -0.999999 -1.000000 13.000000
v -2.999999 1.000000 13.000000
v -2.999999 -1.000000 13.000000
v -0.999999 -1.000000 11.000000
v -2.999999 1.000000 11.000000
v -2.999999 -1.000000 11.000000
v 7.000001 1.000000 3.000000
v 7.000001 -1.000000 3.000000
v 7.000000 1.000000 1.000000
v 7.000000 -1.000000 1.000000
v 7.000001 1.000000 5.000000
v 7.000001 -1.000000 5.000000
v 7.000001 1.000000 3.000000
v 7.000001 -1.000000 3.000000
v 7.000001 1.000000 9.000000
v 7.000001 -1.000000 9.000000
v 7.000000 1.000000 7.000000
v 7.000000 -1.000000 7.000000
v 7.000001 1.000000 11.000000
v 7.000001 -1.000000 11.000000
v 7.000001 1.000000 9.000000
v 7.000001 -1.000000 9.000000
vt 0.375000 1.000000
vt 0.625000 0.750000
vt 0.375000 0.750000
vt 0.125000 0.750000
vt 0.375000 0.500000
vt 0.125000 0.500000
vt 0.625000 0.250000
vt 0.375000 0.250000
vt 0.625000 1.000000
vt 0.625000 0.500000
vt 0.375000 1.000000
vt 0.625000 0.750000
vt 0.375000 0.750000
vt 0.125000 0.750000
vt 0.375000 0.500000
vt 0.125000 0.500000
vt 0.625000 0.250000
vt 0.375000 0.250000
vt 0.625000 1.000000
vt 0.625000 0.500000
vt 0.375000 1.000000
vt 0.625000 0.750000
vt 0.375000 0.750000
vt 0.125000 0.750000
vt 0.375000 0.500000
vt 0.125000 0.500000
vt 0.625000 0.250000
vt 0.375000 0.250000
vt 0.625000 1.000000
vt 0.625000 0.500000
vt 0.375000 1.000000
vt 0.625000 0.750000
vt 0.375000 0.750000
vt 0.125000 0.750000
vt 0.375000 0.500000
vt 0.125000 0.500000
vt 0.625000 0.250000
vt 0.375000 0.250000
vt 0.625000 1.000000
vt 0.625000 0.500000
vt 0.375000 1.000000
vt 0.625000 0.750000
vt 0.375000 0.750000
vt 0.125000 0.750000
vt 0.375000 0.500000
vt 0.125000 0.500000
vt 0.625000 0.250000
vt 0.375000 0.250000
vt 0.625000 1.000000
vt 0.625000 0.500000
vt 0.375000 1.000000
vt 0.625000 0.750000
vt 0.375000 0.750000
vt 0.125000 0.750000
vt 0.375000 0.500000
vt 0.125000 0.500000
vt 0.625000 0.250000
vt 0.375000 0.250000
vt 0.625000 1.000000
vt 0.625000 0.500000
vt 0.125000 0.750000
vt 0.375000 0.500000
vt 0.125000 0.500000
vt 0.625000 0.250000
vt 0.375000 0.250000
vt 0.375000 0.750000
vt 0.625000 0.500000
vt 0.375000 1.000000
vt 0.625000 0.750000
vt 0.375000 0.750000
vt 0.125000 0.750000
vt 0.375000 0.500000
vt 0.125000 0.500000
vt 0.625000 0.250000
vt 0.375000 0.250000
vt 0.625000 1.000000
vt 0.625000 0.500000
vt 0.375000 1.000000
vt 0.625000 0.750000
vt 0.375000 0.750000
vt 0.125000 0.750000
vt 0.375000 0.500000
vt 0.125000 0.500000
vt 0.625000 0.250000
vt 0.375000 0.250000
vt 0.625000 1.000000
vt 0.625000 0.500000
vt 0.125000 0.750000
vt 0.375000 0.500000
vt 0.125000 0.500000
vt 0.625000 0.250000
vt 0.375000 0.250000
vt 0.375000 0.750000
vt 0.625000 0.500000
vt 0.375000 1.000000
vt 0.625000 0.750000
vt 0.375000 0.750000
vt 0.125000 0.750000
vt 0.375000 0.500000
vt 0.125000 0.500000
vt 0.625000 0.250000
vt 0.375000 0.250000
vt 0.625000 1.000000
vt 0.625000 0.500000
vt 0.375000 1.000000
vt 0.625000 0.750000
vt 0.375000 0.750000
vt 0.125000 0.750000
vt 0.375000 0.500000
vt 0.125000 0.500000
vt 0.625000 0.250000
vt 0.375000 0.250000
vt 0.625000 1.000000
vt 0.625000 0.500000
vt 0.375000 1.000000
vt 0.625000 0.750000
vt 0.375000 0.750000
vt 0.125000 0.750000
vt 0.375000 0.500000
vt 0.125000 0.500000
vt 0.625000 0.250000
vt 0.375000 0.250000
vt 0.625000 1.000000
vt 0.625000 0.500000
vt 0.375000 1.000000
vt 0.625000 0.750000
vt 0.375000 0.750000
vt 0.125000 0.750000
vt 0.375000 0.500000
vt 0.125000 0.500000
vt 0.625000 0.250000
vt 0.375000 0.250000
vt 0.625000 1.000000
vt 0.625000 0.500000
vt 0.125000 0.750000
vt 0.375000 0.500000
vt 0.125000 0.500000
vt 0.375000 0.750000
vt 0.125000 0.750000
vt 0.375000 0.500000
vt 0.125000 0.500000
vt 0.375000 0.750000
vt 0.125000 0.750000
vt 0.375000 0.500000
vt 0.125000 0.500000
vt 0.375000 0.750000
vt 0.125000 0.750000
vt 0.375000 0.500000
vt 0.125000 0.500000
vt 0.375000 0.750000
vt 0.125000 0.750000
vt 0.375000 0.500000
vt 0.125000 0.500000
vt 0.375000 0.750000
vt 0.125000 0.750000
vt 0.375000 0.500000
vt 0.125000 0.500000
vt 0.375000 0.750000
vt 0.125000 0.750000
vt 0.375000 0.500000
vt 0.125000 0.500000
vt 0.375000 0.750000
vt 0.125000 0.750000
vt 0.375000 0.500000
vt 0.125000 0.500000
vt 0.375000 0.750000
vt 0.125000 0.750000
vt 0.375000 0.500000
vt 0.125000 0.500000
vt 0.375000 0.750000
vt 0.125000 0.750000
vt 0.375000 0.500000
vt 0.125000 0.500000
vt 0.375000 0.750000
vt 0.125000 0.750000
vt 0.375000 0.500000
vt 0.125000 0.500000
vt 0.375000 0.750000
vt 0.125000 0.750000
vt 0.375000 0.500000
vt 0.125000 0.500000
vt 0.375000 0.750000
vt 0.125000 0.750000
vt 0.375000 0.500000
vt 0.125000 0.500000
vt 0.375000 0.750000
vt 0.125000 0.750000
vt 0.375000 0.500000
vt 0.125000 0.500000
vt 0.375000 0.750000
vt 0.125000 0.750000
vt 0.375000 0.500000
vt 0.125000 0.500000
vt 0.375000 0.750000
vt 0.125000 0.750000
vt 0.375000 0.500000
vt 0.125000 0.500000
vt 0.375000 0.750000
vt 0.125000 0.750000
vt 0.375000 0.500000
vt 0.125000 0.500000
vt 0.375000 0.750000
vt 0.125000 0.750000
vt 0.375000 0.500000
vt 0.125000 0.500000
vt 0.375000 0.750000
vt 0.125000 0.750000
vt 0.375000 0.500000
vt 0.125000 0.500000
vt 0.375000 0.750000
vt 0.125000 0.750000
vt 0.375000 0.500000
vt 0.125000 0.500000
vt 0.375000 0.750000
vt 0.375000 1.000000
vt 0.625000 0.750000
vt 0.375000 0.750000
vt 0.125000 0.750000
vt 0.375000 0.500000
vt 0.125000 0.500000
vt 0.625000 1.000000
vt 0.375000 1.000000
vt 0.625000 0.750000
vt 0.375000 0.750000
vt 0.125000 0.750000
vt 0.375000 0.500000
vt 0.125000 0.500000
vt 0.625000 1.000000
vt 0.375000 1.000000
vt 0.625000 0.750000
vt 0.375000 0.750000
vt 0.125000 0.750000
vt 0.375000 0.500000
vt 0.125000 0.500000
vt 0.625000 1.000000
vt 0.375000 1.000000
vt 0.625000 0.750000
vt 0.375000 0.750000
vt 0.125000 0.750000
vt 0.375000 0.500000
vt 0.125000 0.500000
vt 0.625000 1.000000
vt 0.375000 1.000000
vt 0.625000 0.750000
vt 0.375000 0.750000
vt 0.125000 0.750000
vt 0.375000 0.500000
vt 0.125000 0.500000
vt 0.625000 1.000000
vt 0.375000 1.000000
vt 0.625000 0.750000
vt 0.375000 0.750000
vt 0.125000 0.750000
vt 0.375000 0.500000
vt 0.125000 0.500000
vt 0.625000 1.000000
vt 0.375000 1.000000
vt 0.625000 0.750000
vt 0.375000 0.750000
vt 0.125000 0.750000
vt 0.375000 0.500000
vt 0.125000 0.500000
vt 0.625000 1.000000
vt 0.375000 1.000000
vt 0.625000 0.750000
vt 0.375000 0.750000
vt 0.125000 0.750000
vt 0.375000 0.500000
vt 0.125000 0.500000
vt 0.625000 1.000000
vt 0.375000 1.000000
vt 0.625000 0.750000
vt 0.375000 0.750000
vt 0.125000 0.750000
vt 0.375000 0.500000
vt 0.125000 0.500000
vt 0.625000 1.000000
vt 0.375000 1.000000
vt 0.625000 0.750000
vt 0.375000 0.750000
vt 0.125000 0.750000
vt 0.375000 0.500000
vt 0.125000 0.500000
vt 0.625000 1.000000
vt 0.375000 1.000000
vt 0.625000 0.750000
vt 0.375000 0.750000
vt 0.125000 0.750000
vt 0.375000 0.500000
vt 0.125000 0.500000
vt 0.625000 1.000000
vt 0.375000 1.000000
vt 0.625000 0.750000
vt 0.375000 0.750000
vt 0.125000 0.750000
vt 0.375000 0.500000
vt 0.125000 0.500000
vt 0.625000 1.000000
vt 0.375000 0.500000
vt 0.625000 0.250000
vt 0.375000 0.250000
vt 0.625000 0.500000
vt 0.375000 0.500000
vt 0.625000 0.250000
vt 0.375000 0.250000
vt 0.625000 0.500000
vt 0.375000 0.500000
vt 0.625000 0.250000
vt 0.375000 0.250000
vt 0.625000 0.500000
vt 0.375000 0.500000
vt 0.625000 0.250000
vt 0.375000 0.250000
vt 0.625000 0.500000
vn 0.0000 0.0000 -1.0000
vn 0.0000 1.0000 0.0000
vn 0.0000 0.0000 1.0000
vn -1.0000 0.0000 0.0000
vn 1.0000 0.0000 0.0000
usemtl Material
s off
f 8/1/1 3/2/1 4/3/1
f 8/4/2 2/5/2 6/6/2
f 2/5/3 5/7/3 6/8/3
f 8/1/1 7/9/1 3/2/1
f 8/4/2 4/3/2 2/5/2
f 2/5/3 1/10/3 5/7/3
f 16/11/1 11/12/1 12/13/1
f 16/14/2 10/15/2 14/16/2
f 10/15/3 13/17/3 14/18/3
f 16/11/1 15/19/1 11/12/1
f 16/14/2 12/13/2 10/15/2
f 10/15/3 9/20/3 13/17/3
f 24/21/1 19/22/1 20/23/1
f 24/24/2 18/25/2 22/26/2
f 18/25/3 21/27/3 22/28/3
f 24/21/1 23/29/1 19/22/1
f 24/24/2 20/23/2 18/25/2
f 18/25/3 17/30/3 21/27/3
f 32/31/1 27/32/1 28/33/1
f 32/34/2 26/35/2 30/36/2
f 26/35/3 29/37/3 30/38/3
f 32/31/1 31/39/1 27/32/1
f 32/34/2 28/33/2 26/35/2
f 26/35/3 25/40/3 29/37/3
f 40/41/1 35/42/1 36/43/1
f 40/44/2 34/45/2 38/46/2
f 34/45/3 37/47/3 38/48/3
f 40/41/1 39/49/1 35/42/1
f 40/44/2 36/43/2 34/45/2
f 34/45/3 33/50/3 37/47/3
f 48/51/1 43/52/1 44/53/1
f 48/54/2 42/55/2 46/56/2
f 42/55/3 45/57/3 46/58/3
f 48/51/1 47/59/1 43/52/1
f 48/54/2 44/53/2 42/55/2
f 42/55/3 41/60/3 45/57/3
f 54/61/2 50/62/2 53/63/2
f 50/62/4 52/64/4 53/65/4
f 54/61/2 51/66/2 50/62/2
f 50/62/4 49/67/4 52/64/4
f 62/68/5 57/69/5 58/70/5
f 62/71/2 56/72/2 60/73/2
f 56/72/4 59/74/4 60/75/4
f 62/68/5 61/76/5 57/69/5
f 62/71/2 58/70/2 56/72/2
f 56/72/4 55/77/4 59/74/4
f 70/78/5 65/79/5 66/80/5
f 70/81/2 64/82/2 68/83/2
f 64/82/4 67/84/4 68/85/4
f 70/78/5 69/86/5 65/79/5
f 70/81/2 66/80/2 64/82/2
f 64/82/4 63/87/4 67/84/4
f 76/88/2 72/89/2 75/90/2
f 72/89/4 74/91/4 75/92/4
f 76/88/2 73/93/2 72/89/2
f 72/89/4 71/94/4 74/91/4
f 84/95/5 79/96/5 80/97/5
f 84/98/2 78/99/2 82/100/2
f 78/99/4 81/101/4 82/102/4
f 84/95/5 83/103/5 79/96/5
f 84/98/2 80/97/2 78/99/2
f 78/99/4 77/104/4 81/101/4
f 92/105/5 87/106/5 88/107/5
f 92/108/2 86/109/2 90/110/2
f 86/109/4 89/111/4 90/112/4
f 92/105/5 91/113/5 87/106/5
f 92/108/2 88/107/2 86/109/2
f 86/109/4 85/114/4 89/111/4
f 100/115/1 95/116/1 96/117/1
f 100/118/2 94/119/2 98/120/2
f 94/119/3 97/121/3 98/122/3
f 100/115/1 99/123/1 95/116/1
f 100/118/2 96/117/2 94/119/2
f 94/119/3 93/124/3 97/121/3
f 108/125/1 103/126/1 104/127/1
f 108/128/2 102/129/2 106/130/2
f 102/129/3 105/131/3 106/132/3
f 108/125/1 107/133/1 103/126/1
f 108/128/2 104/127/2 102/129/2
f 102/129/3 101/134/3 105/131/3
f 112/135/2 109/136/2 111/137/2
f 112/135/2 110/138/2 109/136/2
f 116/139/2 113/140/2 115/141/2
f 116/139/2 114/142/2 113/140/2
f 120/143/2 117/144/2 119/145/2
f 120/143/2 118/146/2 117/144/2
f 124/147/2 121/148/2 123/149/2
f 124/147/2 122/150/2 121/148/2
f 128/151/2 125/152/2 127/153/2
f 128/151/2 126/154/2 125/152/2
f 132/155/2 129/156/2 131/157/2
f 132/155/2 130/158/2 129/156/2
f 136/159/2 133/160/2 135/161/2
f 136/159/2 134/162/2 133/160/2
f 140/163/2 137/164/2 139/165/2
f 140/163/2 138/166/2 137/164/2
f 144/167/2 141/168/2 143/169/2
f 144/167/2 142/170/2 141/168/2
f 148/171/2 145/172/2 147/173/2
f 148/171/2 146/174/2 145/172/2
f 152/175/2 149/176/2 151/177/2
f 152/175/2 150/178/2 149/176/2
f 156/179/2 153/180/2 155/181/2
f 156/179/2 154/182/2 153/180/2
f 160/183/2 157/184/2 159/185/2
f 160/183/2 158/186/2 157/184/2
f 164/187/2 161/188/2 163/189/2
f 164/187/2 162/190/2 161/188/2
f 168/191/2 165/192/2 167/193/2
f 168/191/2 166/194/2 165/192/2
f 172/195/2 169/196/2 171/197/2
f 172/195/2 170/198/2 169/196/2
f 176/199/2 173/200/2 175/201/2
f 176/199/2 174/202/2 173/200/2
f 180/203/2 177/204/2 179/205/2
f 180/203/2 178/206/2 177/204/2
f 184/207/2 181/208/2 183/209/2
f 184/207/2 182/210/2 181/208/2
f 188/211/2 185/212/2 187/213/2
f 188/211/2 186/214/2 185/212/2
f 194/215/1 190/216/1 191/217/1
f 194/218/2 189/219/2 192/220/2
f 194/215/1 193/221/1 190/216/1
f 194/218/2 191/217/2 189/219/2
f 200/222/1 196/223/1 197/224/1
f 200/225/2 195/226/2 198/227/2
f 200/222/1 199/228/1 196/223/1
f 200/225/2 197/224/2 195/226/2
f 206/229/1 202/230/1 203/231/1
f 206/232/2 201/233/2 204/234/2
f 206/229/1 205/235/1 202/230/1
f 206/232/2 203/231/2 201/233/2
f 212/236/1 208/237/1 209/238/1
f 212/239/2 207/240/2 210/241/2
f 212/236/1 211/242/1 208/237/1
f 212/239/2 209/238/2 207/240/2
f 218/243/1 214/244/1 215/245/1
f 218/246/2 213/247/2 216/248/2
f 218/243/1 217/249/1 214/244/1
f 218/246/2 215/245/2 213/247/2
f 224/250/1 220/251/1 221/252/1
f 224/253/2 219/254/2 222/255/2
f 224/250/1 223/256/1 220/251/1
f 224/253/2 221/252/2 219/254/2
f 230/257/5 226/258/5 227/259/5
f 230/260/2 225/261/2 228/262/2
f 230/257/5 229/263/5 226/258/5
f 230/260/2 227/259/2 225/261/2
f 236/264/5 232/265/5 233/266/5
f 236/267/2 231/268/2 234/269/2
f 236/264/5 235/270/5 232/265/5
f 236/267/2 233/266/2 231/268/2
f 242/271/5 238/272/5 239/273/5
f 242/274/2 237/275/2 240/276/2
f 242/271/5 241/277/5 238/272/5
f 242/274/2 239/273/2 237/275/2
f 248/278/5 244/279/5 245/280/5
f 248/281/2 243/282/2 246/283/2
f 248/278/5 247/284/5 244/279/5
f 248/281/2 245/280/2 243/282/2
f 254/285/5 250/286/5 251/287/5
f 254/288/2 249/289/2 252/290/2
f 254/285/5 253/291/5 250/286/5
f 254/288/2 251/287/2 249/289/2
f 260/292/5 256/293/5 257/294/5
f 260/295/2 255/296/2 258/297/2
f 260/292/5 259/298/5 256/293/5
f 260/295/2 257/294/2 255/296/2
f 262/299/4 263/300/4 264/301/4
f 262/299/4 261/302/4 263/300/4
f 266/303/4 267/304/4 268/305/4
f 266/303/4 265/306/4 267/304/4
f 270/307/4 271/308/4 272/309/4
f 270/307/4 269/310/4 271/308/4
f 274/311/4 275/312/4 276/313/4
f 274/311/4 273/314/4 275/312/4
o Cube.001
v -1.983582 1.000000 -6.000000
v -1.983582 -1.000000 -6.000000
v -1.983582 1.000000 -4.000000
v -1.983582 -1.000000 -4.000000
v -3.983582 1.000000 -6.000000
v -3.983582 -1.000000 -6.000000
v -3.983582 1.000000 -4.000000
v -3.983582 -1.000000 -4.000000
vt 0.375000 1.000000
vt 0.625000 0.750000
vt 0.375000 0.750000
vt 0.375000 0.250000
vt 0.625000 0.000000
vt 0.375000 0.000000
vt 0.125000 0.750000
vt 0.375000 0.500000
vt 0.125000 0.500000
vt 0.625000 0.500000
vt 0.625000 0.250000
vt 0.625000 1.000000
vn 0.0000 0.0000 -1.0000
vn 1.0000 0.0000 0.0000
vn 0.0000 1.0000 0.0000
vn -1.0000 0.0000 0.0000
vn 0.0000 0.0000 1.0000
usemtl Material
s off
f 284/315/6 279/316/6 280/317/6
f 282/318/7 283/319/7 284/320/7
f 284/321/8 278/322/8 282/323/8
f 280/317/9 277/324/9 278/322/9
f 278/322/10 281/325/10 282/318/10
f 284/315/6 283/326/6 279/316/6
f 282/318/7 281/325/7 283/319/7
f 284/321/8 280/317/8 278/322/8
f 280/317/9 279/316/9 277/324/9
f 278/322/10 277/324/10 281/325/10
