# Blender v2.83.5 OBJ File: ''
# www.blender.org
mtllib tunnel_test_obj.mtl
o Cube_Cube.001
v -8.103464 0.126926 8.525640
v -8.103464 15.897186 8.525640
v -8.103464 0.126926 -67.244621
v -8.103464 15.897186 -67.244621
v 7.666796 0.126926 8.525640
v 7.666796 15.897186 8.525640
v 7.666796 0.126926 -67.244621
v 7.666796 15.897186 -67.244621
vt 0.375000 0.250000
vt 0.625000 0.000000
vt 0.375000 0.000000
vt 0.375000 0.500000
vt 0.625000 0.250000
vt 0.375000 0.750000
vt 0.625000 0.500000
vt 0.375000 1.000000
vt 0.625000 0.750000
vt 0.125000 0.750000
vt 0.125000 0.500000
vt 0.625000 1.000000
vn 1.0000 0.0000 0.0000
vn 0.0000 0.0000 1.0000
vn -1.0000 0.0000 0.0000
vn 0.0000 0.0000 -1.0000
vn 0.0000 1.0000 0.0000
usemtl None
s off
f 3/1/1 2/2/1 1/3/1
f 7/4/2 4/5/2 3/1/2
f 5/6/3 8/7/3 7/4/3
f 1/8/4 6/9/4 5/6/4
f 1/10/5 7/4/5 3/11/5
f 3/1/1 4/5/1 2/2/1
f 7/4/2 8/7/2 4/5/2
f 5/6/3 6/9/3 8/7/3
f 1/8/4 2/12/4 6/9/4
f 1/10/5 5/6/5 7/4/5
