# Blender v2.83.5 OBJ File: 'turn_right.blend'
# www.blender.org
v 3.000000 -0.000004 -1.000004
v 1.000000 -0.000004 -1.000004
v 3.000000 -0.000006 0.999996
v 1.000000 -0.000006 0.999996
vt 0.499597 0.500445
vt 0.000000 1.000000
vt 0.000000 0.500445
vt 0.499597 1.000000
vn 0.0000 -1.0000 -0.0000
s off
f 3/1/1 2/2/1 1/3/1
f 3/1/1 4/4/1 2/2/1
v 2.999999 -0.174113 0.826569
v 2.999999 -0.079462 0.571918
v 2.999999 -0.428765 0.921221
v 0.830244 -0.174115 0.827127
v 0.924885 -0.428766 0.921768
v 1.004888 -0.428766 1.001771
v 0.924672 -0.428769 2.997216
v 0.830020 -0.174118 2.997217
v 0.575369 -0.079466 2.997217
v 0.575369 0.000534 2.997217
v 0.575592 -0.079463 0.572476
v 0.575592 0.000537 0.572476
v 2.999999 0.000538 0.571918
v 1.004672 -0.428769 2.997216
v 2.999999 -0.428765 1.001221
vt 0.885228 0.947492
vt 0.885206 0.501166
vt 0.793979 0.501277
vt 0.975000 0.927977
vt 0.975000 0.501155
vt 0.975244 0.927977
vt 0.885206 0.501166
vt 1.000000 0.911482
vt 0.975000 0.501155
vt 0.793979 0.501277
vt 0.768723 1.000000
vt 0.768737 0.501280
vt 0.794000 1.000000
vt 0.768737 0.501279
vt 1.000000 0.501158
vt 1.000000 0.501158
vn 0.3190 0.8982 0.3025
vn 0.5453 0.7857 0.2921
vn -0.1357 0.9226 0.3611
vn 0.6099 -0.0088 0.7924
vn -0.4107 0.3177 0.8546
vn 0.2766 0.3685 0.8875
vn 0.0681 0.8851 0.4603
vn 0.0364 0.0757 0.9965
vn -0.5785 -0.2937 0.7610
vn 0.4605 0.8851 0.0681
vn 0.7609 -0.2938 -0.5786
vn 0.9965 0.0756 0.0363
vn -0.0287 0.7028 -0.7108
vn 0.8028 0.5963 -0.0001
vn -0.0000 1.0000 0.0000
vn -0.7108 0.7028 -0.0286
vn -0.0001 0.5963 0.8028
vn 0.7926 -0.0088 0.6096
vn 0.8876 0.3685 0.2764
vn 0.8546 0.3176 -0.4108
vn 0.3026 0.8982 0.3189
vn 0.3665 0.8956 -0.2522
vn 0.2922 0.7857 0.5453
vn 0.5753 0.0270 -0.8175
vn 0.8944 -0.0147 0.4469
vn 1.0000 0.0000 0.0001
vn 0.5752 -0.8175 -0.0269
vn 0.2933 0.4275 0.8551
vn 0.8945 -0.4469 -0.0147
vn 0.1308 0.9621 -0.2394
vn 0.6219 0.7330 0.2757
vn 0.1005 0.9944 -0.0316
vn 0.8451 0.3212 0.4274
vn 0.0002 -0.0000 1.0000
vn 0.0001 -0.8943 0.4474
vn 0.3214 -0.8450 0.4275
vn -0.8807 -0.0000 0.4736
vn -0.2394 0.9621 0.1307
vn -0.0170 0.9759 0.2177
vn 0.2757 0.8409 0.4656
vn 0.0285 0.7028 -0.7108
vn -0.7108 0.7028 0.0287
s off
f 8/5/2 5/6/3 6/7/4
f 9/8/5 7/9/6 5/6/7
f 9/8/8 5/6/9 8/5/10
f 9/10/11 8/5/12 12/11/13
f 7/9/14 9/8/15 10/12/16
f 11/13/17 10/12/16 9/10/18
f 9/10/19 12/11/20 11/13/21
f 8/5/22 13/14/23 12/11/24
f 13/14/25 16/15/26 14/16/27
f 13/14/28 15/17/29 16/15/30
f 8/5/31 15/17/32 13/14/33
f 15/17/34 17/18/35 16/15/36
f 15/17/37 6/7/38 17/18/35
f 8/5/39 6/7/40 15/17/41
f 11/13/42 18/19/16 10/12/16
f 7/9/43 10/12/16 19/20/16
v 2.999999 -0.174112 -0.826578
v 2.999999 -0.079461 -0.571927
v 3.000000 -0.428763 -0.921230
v 0.830244 -0.174113 -0.827138
v 0.924885 -0.428764 -0.921778
v 1.004889 -0.428764 -1.001781
v 0.924674 -0.428763 -2.997227
v 0.830022 -0.174112 -2.997227
v 0.575371 -0.079461 -2.997227
v 0.575371 0.000539 -2.997227
v 0.575593 -0.079462 -0.572486
v 0.575593 0.000538 -0.572486
v 2.999999 0.000540 -0.571927
v 1.004674 -0.428763 -2.997227
v 3.000000 -0.428763 -1.001230
vt 0.885228 0.947492
vt 0.885206 0.501166
vt 0.793979 0.501277
vt 0.975000 0.927977
vt 0.975000 0.501155
vt 0.975244 0.927977
vt 0.885206 0.501166
vt 1.000000 0.911482
vt 0.975000 0.501155
vt 0.793979 0.501277
vt 0.768723 1.000000
vt 0.768737 0.501280
vt 0.794000 1.000000
vt 0.768737 0.501279
vt 1.000000 0.501158
vt 1.000000 0.501158
vn 0.3188 -0.8778 0.3576
vn 0.5451 -0.7858 0.2921
vn -0.1358 -0.9345 0.3292
vn 0.6095 -0.5243 0.5946
vn -0.4112 -0.3176 0.8544
vn 0.2761 -0.3007 0.9129
vn 0.0678 0.3695 0.9268
vn 0.0360 -0.5936 0.8039
vn -0.5788 -0.7194 0.3840
vn -0.9268 0.3695 -0.0680
vn -0.3842 -0.7194 0.5787
vn -0.8040 -0.5936 -0.0361
vn -0.0287 -0.7028 0.7108
vn 0.8028 -0.5963 0.0001
vn 0.0000 -1.0000 0.0000
vn -0.7108 -0.7028 0.0286
vn -0.0001 -0.5963 -0.8028
vn -0.5946 -0.5244 -0.6095
vn -0.9128 -0.3007 -0.2762
vn -0.8545 -0.3176 0.4110
vn -0.3576 -0.8778 -0.3188
vn -0.3074 -0.9175 0.2522
vn -0.2920 -0.7858 -0.5452
vn -0.5752 0.0270 0.8176
vn -0.8945 -0.0147 -0.4468
vn -1.0000 0.0000 0.0001
vn -0.5752 -0.8175 0.0270
vn -0.2934 0.4275 -0.8551
vn -0.8945 -0.4469 0.0148
vn -0.5293 -0.8139 0.2395
vn -0.0078 -0.9612 -0.2756
vn -0.5734 -0.8187 0.0316
vn 0.8449 0.3212 0.4278
vn -0.0002 -0.0000 1.0000
vn -0.0001 -0.8943 0.4474
vn 0.3212 -0.8450 0.4276
vn -0.8810 -0.0000 0.4732
vn -0.2396 -0.8139 0.5293
vn -0.0171 -0.8812 0.4724
vn 0.2755 -0.9410 0.1965
vn 0.0285 -0.7028 0.7108
vn -0.7108 -0.7028 -0.0287
s off
f 23/21/44 20/22/45 21/23/46
f 24/24/47 22/25/48 20/22/49
f 24/24/50 20/22/51 23/21/52
f 24/26/53 23/21/54 27/27/55
f 22/25/56 24/24/57 25/28/58
f 26/29/59 25/28/58 24/26/60
f 24/26/61 27/27/62 26/29/63
f 23/21/64 28/30/65 27/27/66
f 28/30/67 31/31/68 29/32/69
f 28/30/70 30/33/71 31/31/72
f 23/21/73 30/33/74 28/30/75
f 30/33/76 32/34/77 31/31/78
f 30/33/79 21/23/80 32/34/77
f 23/21/81 21/23/82 30/33/83
f 26/29/84 33/35/58 25/28/58
f 22/25/85 25/28/58 34/36/58
v 1.000000 -0.000004 -1.000004
v -1.000000 -0.000005 -1.000005
v 1.000000 -0.000006 0.999996
v -1.000000 -0.000007 0.999995
vt 0.499597 0.500445
vt 0.000000 1.000000
vt 0.000000 0.500445
vt 0.499597 1.000000
vn 0.0000 -1.0000 -0.0000
s off
f 37/37/86 36/38/86 35/39/86
f 37/37/86 38/40/86 36/38/86
v 1.000000 -0.000004 0.999995
v -1.000000 -0.000005 0.999995
v 1.000000 -0.000006 2.999995
v -1.000000 -0.000007 2.999995
vt 0.499597 0.500445
vt 0.000000 1.000000
vt 0.000000 0.500445
vt 0.499597 1.000000
vn 0.0000 -1.0000 -0.0000
s off
f 41/41/87 40/42/87 39/43/87
f 41/41/87 42/44/87 40/42/87
v 1.000002 -0.000001 -3.000005
v -0.999998 -0.000001 -3.000005
v 1.000001 -0.000003 -1.000004
v -0.999999 -0.000003 -1.000005
vt 0.499597 0.500445
vt 0.000000 1.000000
vt 0.000000 0.500445
vt 0.499597 1.000000
vn 0.0000 -1.0000 -0.0000
s off
f 45/45/88 44/46/88 43/47/88
f 45/45/88 46/48/88 44/46/88
v -2.999999 -0.174115 0.826568
v -2.999999 -0.079464 0.571917
v -2.999999 -0.428767 0.921219
v -0.830244 -0.174115 0.827127
v -0.924885 -0.428767 0.921767
v -1.004888 -0.428767 1.001770
v -0.924673 -0.428769 2.997216
v -0.830022 -0.174118 2.997216
v -0.575371 -0.079467 2.997216
v -0.575371 0.000533 2.997216
v -0.575593 -0.079463 0.572476
v -0.575593 0.000537 0.572476
v -2.999999 0.000537 0.571917
v -1.004673 -0.428770 2.997216
v -2.999999 -0.428767 1.001219
vt 0.885228 0.947492
vt 0.793979 0.501277
vt 0.885206 0.501166
vt 0.975000 0.927977
vt 0.975000 0.501155
vt 0.975244 0.927977
vt 0.885206 0.501166
vt 1.000000 0.911482
vt 0.975000 0.501155
vt 0.793979 0.501277
vt 0.768737 0.501280
vt 0.768723 1.000000
vt 0.794000 1.000000
vt 0.768737 0.501279
vt 1.000000 0.501158
vt 1.000000 0.501158
vn -0.3201 0.8917 0.3201
vn -0.0001 0.8809 0.4734
vn -0.0002 0.5958 0.8031
vn -0.5678 0.5962 0.5676
vn -0.0002 0.7028 0.7114
vn -0.5677 0.5963 0.5676
vn -0.5677 0.5963 0.5675
vn -0.8031 0.5958 0.0001
vn -0.3202 0.8917 0.3201
vn -0.0000 1.0000 0.0000
vn -0.7114 0.7028 0.0001
vn -0.5676 0.5963 0.5676
vn -0.8031 0.5958 0.0002
vn -0.5752 0.8180 0.0001
vn -1.0000 0.0000 0.0001
vn -0.8944 -0.0000 0.4472
vn -0.5752 0.8180 0.0000
vn -0.2933 0.8551 0.4275
vn -0.0002 -0.0000 1.0000
vn -0.2934 0.8551 0.4275
vn -0.0001 0.8808 0.4734
vn -0.0000 0.7028 0.7114
s off
f 50/49/89 48/50/90 47/51/91
f 51/52/92 47/51/91 49/53/93
f 51/52/94 50/49/89 47/51/91
f 51/54/95 54/55/96 50/49/97
f 49/53/93 52/56/98 51/52/95
f 53/57/99 51/54/100 52/56/98
f 51/54/95 53/57/99 54/55/96
f 50/49/97 54/55/101 55/58/102
f 55/58/102 56/59/103 58/60/104
f 55/58/105 58/60/104 57/61/106
f 50/49/97 55/58/102 57/61/106
f 57/61/106 58/60/104 59/62/107
f 57/61/108 59/62/107 48/50/109
f 50/49/89 57/61/106 48/50/90
f 53/57/99 52/56/98 60/63/98
f 49/53/110 61/64/98 52/56/98
v -2.999999 -0.174114 -0.826580
v -2.999999 -0.079462 -0.571929
v -2.999999 -0.428765 -0.921232
v -0.830244 -0.174114 -0.827138
v -0.924884 -0.428765 -0.921779
v -1.004888 -0.428765 -1.001782
v -0.924672 -0.428764 -2.997227
v -0.830020 -0.174112 -2.997227
v -0.575369 -0.079461 -2.997227
v -0.575369 0.000539 -2.997227
v -0.575592 -0.079462 -0.572487
v -0.575592 0.000538 -0.572487
v -2.999999 0.000538 -0.571929
v -1.004671 -0.428764 -2.997227
v -2.999999 -0.428765 -1.001232
vt 0.885228 0.947492
vt 0.793979 0.501277
vt 0.885206 0.501166
vt 0.975000 0.927977
vt 0.975000 0.501155
vt 0.975244 0.927977
vt 0.885206 0.501166
vt 1.000000 0.911482
vt 0.975000 0.501155
vt 0.793979 0.501277
vt 0.768737 0.501280
vt 0.768723 1.000000
vt 0.794000 1.000000
vt 0.768737 0.501279
vt 1.000000 0.501158
vt 1.000000 0.501158
vn -0.3200 -0.8843 0.3400
vn 0.0001 -0.9762 0.2169
vn -0.0001 -0.9757 -0.2190
vn -0.5674 0.0807 0.8195
vn 0.0002 -0.0733 0.9973
vn 0.0003 0.0676 0.9977
vn -0.5674 0.0806 0.8195
vn -0.3198 0.4660 0.8249
vn 0.0003 -0.0734 0.9973
vn 0.8195 0.0807 -0.5674
vn 0.9973 -0.0734 0.0001
vn 0.8249 0.4661 -0.3199
vn -0.0002 -0.7028 -0.7114
vn 0.0000 -1.0000 -0.0000
vn -0.5677 -0.5963 -0.5675
vn -0.7114 -0.7028 -0.0001
vn -0.5676 -0.5963 -0.5676
vn 0.9977 0.0675 0.0001
vn 0.3400 -0.8843 -0.3200
vn -0.2190 -0.9757 -0.0001
vn 0.0987 -0.9951 -0.0000
vn 0.5752 0.8180 0.0001
vn 1.0000 0.0000 0.0001
vn 0.8945 0.0000 -0.4470
vn 0.2934 0.8551 -0.4274
vn 0.3399 -0.8843 -0.3200
vn 0.0986 -0.9951 -0.0000
vn 0.3364 -0.8391 -0.4274
vn -0.2931 0.8551 0.4276
vn -0.8942 -0.0000 0.4476
vn 0.0002 -0.0000 1.0000
vn -0.2932 0.8551 0.4276
vn 0.0001 0.8808 0.4734
vn -0.3200 -0.8843 0.3399
vn -0.2931 -0.9268 0.2347
vn 0.0000 -0.9762 0.2167
vn 0.0000 -0.7028 -0.7114
s off
f 65/65/111 63/66/112 62/67/113
f 66/68/114 62/67/115 64/69/116
f 66/68/117 65/65/118 62/67/119
f 66/70/120 69/71/121 65/65/122
f 64/69/123 67/72/124 66/68/125
f 68/73/126 66/70/127 67/72/124
f 66/70/120 68/73/128 69/71/121
f 65/65/129 69/71/130 70/74/131
f 70/74/132 71/75/133 73/76/134
f 70/74/132 73/76/134 72/77/135
f 65/65/136 70/74/137 72/77/138
f 72/77/139 73/76/140 74/78/141
f 72/77/142 74/78/141 63/66/143
f 65/65/144 72/77/145 63/66/146
f 68/73/126 67/72/124 75/79/124
f 64/69/147 76/80/124 67/72/124
v -1.000000 -0.000005 -1.000005
v -3.000000 -0.000006 -1.000006
v -1.000001 -0.000007 0.999995
v -3.000000 -0.000008 0.999994
vt 0.499597 0.500445
vt 0.000000 1.000000
vt 0.000000 0.500445
vt 0.499597 1.000000
vn 0.0000 -1.0000 -0.0000
s off
f 79/81/148 78/82/148 77/83/148
f 79/81/148 80/84/148 78/82/148
