# Blender v2.83.5 OBJ File: 'turn_right.blend'
# www.blender.org
v 2.999999 -1.826680 0.826568
v 3.000000 -1.921331 0.571916
v 2.999999 -1.572029 0.921219
v 0.830245 -1.826680 0.827126
v 0.924885 -1.572029 0.921767
v 1.004888 -1.572029 1.001770
v 0.924672 -1.572030 2.997215
v 0.830021 -1.826681 2.997215
v 0.575369 -1.921332 2.997215
v 0.575369 -2.001333 2.997215
v 0.575593 -1.921331 0.572474
v 0.575593 -2.001331 0.572474
v 3.000000 -2.001331 0.571916
v 1.004672 -1.572030 2.997215
v 2.999999 -1.572029 1.001220
vt 0.885259 0.947492
vt 0.885259 0.500564
vt 0.793979 0.500564
vt 0.975000 0.927977
vt 0.975000 0.500565
vt 0.975245 0.927977
vt 0.885259 0.500564
vt 1.000000 0.911482
vt 0.975000 0.500565
vt 0.793979 0.500564
vt 0.768723 0.999831
vt 0.768737 0.500567
vt 0.793979 0.999831
vt 0.768737 0.500567
vt 1.000000 0.500568
vt 1.000000 0.500568
vn 0.3188 0.8778 -0.3576
vn 0.5451 0.7858 -0.2921
vn -0.1358 0.9345 -0.3292
vn 0.6095 0.5243 -0.5946
vn -0.4112 0.3176 -0.8544
vn 0.2761 0.3007 -0.9129
vn 0.0678 -0.3695 -0.9268
vn 0.0360 0.5936 -0.8039
vn -0.5788 0.7194 -0.3840
vn -0.9268 -0.3695 0.0680
vn -0.3842 0.7194 -0.5787
vn -0.8040 0.5936 0.0361
vn -0.0287 0.7028 -0.7108
vn 0.8028 0.5963 -0.0001
vn -0.0000 1.0000 0.0000
vn -0.7108 0.7028 -0.0286
vn -0.0001 0.5963 0.8028
vn -0.5946 0.5244 0.6095
vn -0.9128 0.3007 0.2762
vn -0.8545 0.3176 -0.4110
vn -0.3576 0.8778 0.3188
vn -0.3074 0.9175 -0.2522
vn -0.2920 0.7858 0.5452
vn -0.5752 -0.0270 -0.8176
vn -0.8945 0.0147 0.4468
vn -1.0000 -0.0000 -0.0001
vn -0.5293 0.8139 -0.2395
vn -0.0078 0.9612 0.2756
vn -0.5734 0.8187 -0.0316
vn -0.5752 0.8175 -0.0270
vn -0.2934 -0.4275 0.8551
vn -0.8945 0.4469 -0.0148
vn 0.8449 -0.3212 -0.4278
vn -0.0002 0.0000 -1.0000
vn -0.0001 0.8943 -0.4474
vn 0.3212 0.8450 -0.4276
vn -0.8810 0.0000 -0.4732
vn -0.2396 0.8139 -0.5293
vn -0.0171 0.8812 -0.4724
vn 0.2755 0.9410 -0.1965
vn 0.0285 0.7028 -0.7108
vn -0.7108 0.7028 0.0287
s off
f 4/1/1 1/2/2 2/3/3
f 5/4/4 3/5/5 1/2/6
f 5/4/7 1/2/8 4/1/9
f 5/6/10 4/1/11 8/7/12
f 3/5/13 5/4/14 6/8/15
f 7/9/16 6/8/15 5/6/17
f 5/6/18 8/7/19 7/9/20
f 4/1/21 9/10/22 8/7/23
f 9/10/24 12/11/25 10/12/26
f 4/1/27 11/13/28 9/10/29
f 9/10/30 11/13/31 12/11/32
f 11/13/33 13/14/34 12/11/35
f 11/13/36 2/3/37 13/14/34
f 4/1/38 2/3/39 11/13/40
f 7/9/41 14/15/15 6/8/15
f 3/5/42 6/8/15 15/16/15
v 3.000001 -2.000003 -1.000006
v 1.000001 -2.000004 -1.000006
v 3.000000 -2.000005 0.999994
v 1.000000 -2.000005 0.999994
vt 0.499500 0.000000
vt 0.000000 0.000000
vt 0.000000 0.499500
vt 0.499500 0.499500
vn -0.0000 1.0000 0.0000
s off
f 18/17/43 16/18/43 17/19/43
f 18/17/43 17/19/43 19/20/43
v 3.000000 -1.826678 -0.826580
v 3.000000 -1.921330 -0.571929
v 3.000000 -1.572027 -0.921231
v 0.830245 -1.826679 -0.827139
v 0.924886 -1.572027 -0.921779
v 1.004889 -1.572027 -1.001782
v 0.924674 -1.572024 -2.997228
v 0.830023 -1.826676 -2.997228
v 0.575371 -1.921327 -2.997228
v 0.575371 -2.001327 -2.997229
v 0.575593 -1.921330 -0.572488
v 0.575593 -2.001330 -0.572488
v 3.000000 -2.001330 -0.571929
v 1.004674 -1.572024 -2.997228
v 3.000000 -1.572027 -1.001231
vt 0.885259 0.947492
vt 0.885259 0.500564
vt 0.793979 0.500564
vt 0.975000 0.927977
vt 0.975000 0.500565
vt 0.975245 0.927977
vt 0.885259 0.500564
vt 1.000000 0.911482
vt 0.975000 0.500565
vt 0.793979 0.500564
vt 0.768723 0.999831
vt 0.768737 0.500567
vt 0.793979 0.999831
vt 0.768737 0.500567
vt 1.000000 0.500568
vt 1.000000 0.500568
vn 0.3190 -0.8982 -0.3025
vn 0.5453 -0.7857 -0.2921
vn -0.1357 -0.9226 -0.3611
vn 0.6099 0.0088 -0.7924
vn -0.4107 -0.3177 -0.8546
vn 0.2766 -0.3685 -0.8875
vn 0.0681 -0.8851 -0.4603
vn 0.0364 -0.0756 -0.9965
vn -0.5785 0.2937 -0.7610
vn 0.4605 -0.8851 -0.0681
vn 0.7609 0.2938 0.5786
vn 0.9965 -0.0756 -0.0363
vn -0.0287 -0.7028 0.7108
vn 0.8028 -0.5963 0.0001
vn 0.0000 -1.0000 -0.0000
vn -0.7108 -0.7028 0.0286
vn -0.0001 -0.5963 -0.8028
vn 0.7926 0.0088 -0.6096
vn 0.8876 -0.3685 -0.2764
vn 0.8546 -0.3176 0.4108
vn 0.3026 -0.8982 -0.3189
vn 0.3665 -0.8956 0.2522
vn 0.2922 -0.7857 -0.5453
vn 0.5753 -0.0270 0.8175
vn 0.8944 0.0147 -0.4469
vn 1.0000 0.0000 -0.0001
vn 0.1308 -0.9621 0.2394
vn 0.6219 -0.7330 -0.2757
vn 0.1005 -0.9944 0.0316
vn 0.5752 0.8175 0.0269
vn 0.2933 -0.4275 -0.8551
vn 0.8945 0.4469 0.0147
vn 0.8451 -0.3212 -0.4274
vn 0.0002 0.0000 -1.0000
vn 0.0001 0.8943 -0.4474
vn 0.3214 0.8450 -0.4275
vn -0.8807 0.0000 -0.4736
vn -0.2394 -0.9621 -0.1307
vn -0.0170 -0.9759 -0.2177
vn 0.2757 -0.8409 -0.4656
vn 0.0285 -0.7028 0.7108
vn -0.7108 -0.7028 -0.0287
s off
f 23/21/44 20/22/45 21/23/46
f 24/24/47 22/25/48 20/22/49
f 24/24/50 20/22/51 23/21/52
f 24/26/53 23/21/54 27/27/55
f 22/25/56 24/24/57 25/28/58
f 26/29/59 25/28/58 24/26/60
f 24/26/61 27/27/62 26/29/63
f 23/21/64 28/30/65 27/27/66
f 28/30/67 31/31/68 29/32/69
f 23/21/70 30/33/71 28/30/72
f 28/30/73 30/33/74 31/31/75
f 30/33/76 32/34/77 31/31/78
f 30/33/79 21/23/80 32/34/77
f 23/21/81 21/23/82 30/33/83
f 26/29/84 33/35/58 25/28/58
f 22/25/85 25/28/58 34/36/58
v 1.000001 -2.000003 -1.000006
v -0.999999 -2.000004 -1.000007
v 1.000000 -2.000005 0.999994
v -1.000000 -2.000006 0.999993
vt 0.499500 0.000000
vt 0.000000 0.000000
vt 0.000000 0.499500
vt 0.499500 0.499500
vn -0.0000 1.0000 0.0000
s off
f 37/37/86 35/38/86 36/39/86
f 37/37/86 36/39/86 38/40/86
v 1.000001 -2.000003 0.999994
v -0.999999 -2.000004 0.999993
v 1.000000 -2.000005 2.999994
v -0.999999 -2.000006 2.999993
vt 0.499500 0.000000
vt 0.000000 0.000000
vt 0.000000 0.499500
vt 0.499500 0.499500
vn -0.0000 1.0000 0.0000
s off
f 41/41/87 39/42/87 40/43/87
f 41/41/87 40/43/87 42/44/87
v 1.000001 -2.000003 -3.000006
v -0.999999 -2.000004 -3.000007
v 1.000000 -2.000005 -1.000006
v -1.000000 -2.000006 -1.000007
vt 0.499500 0.000000
vt 0.000000 0.000000
vt 0.000000 0.499500
vt 0.499500 0.499500
vn -0.0000 1.0000 0.0000
s off
f 45/45/88 43/46/88 44/47/88
f 45/45/88 44/47/88 46/48/88
v -2.999999 -1.826682 0.826566
v -2.999999 -1.921333 0.571915
v -2.999999 -1.572031 0.921218
v -0.830244 -1.826681 0.827125
v -0.924884 -1.572029 0.921766
v -1.004888 -1.572030 1.001769
v -0.924673 -1.572030 2.997215
v -0.830022 -1.826682 2.997215
v -0.575370 -1.921333 2.997215
v -0.575370 -2.001333 2.997215
v -0.575592 -1.921332 0.572474
v -0.575592 -2.001332 0.572474
v -2.999999 -2.001333 0.571915
v -1.004673 -1.572030 2.997215
v -2.999999 -1.572031 1.001218
vt 0.885259 0.947492
vt 0.793979 0.500564
vt 0.885259 0.500564
vt 0.975000 0.927977
vt 0.975000 0.500565
vt 0.975245 0.927977
vt 0.885259 0.500564
vt 1.000000 0.911482
vt 0.975000 0.500565
vt 0.793979 0.500564
vt 0.768737 0.500567
vt 0.768723 0.999831
vt 0.793979 0.999831
vt 0.768737 0.500567
vt 1.000000 0.500568
vt 1.000000 0.500568
vn -0.3200 0.8843 -0.3400
vn 0.0001 0.9762 -0.2169
vn -0.0001 0.9757 0.2190
vn -0.5674 -0.0807 -0.8195
vn 0.0002 0.0733 -0.9973
vn 0.0003 -0.0676 -0.9977
vn -0.5674 -0.0806 -0.8195
vn -0.3198 -0.4660 -0.8249
vn 0.0003 0.0734 -0.9973
vn 0.8195 -0.0807 0.5674
vn 0.9973 0.0734 -0.0001
vn 0.8249 -0.4661 0.3199
vn -0.0002 0.7028 0.7114
vn -0.0000 1.0000 0.0000
vn -0.5677 0.5963 0.5675
vn -0.7114 0.7028 0.0001
vn -0.5676 0.5963 0.5676
vn 0.9977 -0.0675 -0.0001
vn 0.3400 0.8843 0.3200
vn -0.2190 0.9757 0.0001
vn 0.0987 0.9951 0.0000
vn 0.5752 -0.8180 -0.0001
vn 1.0000 0.0000 -0.0001
vn 0.8945 0.0000 0.4470
vn 0.3399 0.8843 0.3200
vn 0.0986 0.9951 0.0000
vn 0.3364 0.8391 0.4274
vn 0.2934 -0.8551 0.4274
vn -0.2931 -0.8551 -0.4276
vn -0.8942 -0.0000 -0.4476
vn 0.0002 0.0000 -1.0000
vn -0.2932 -0.8551 -0.4276
vn 0.0001 -0.8808 -0.4734
vn -0.3200 0.8843 -0.3399
vn -0.2931 0.9268 -0.2347
vn 0.0000 0.9762 -0.2167
vn -0.0000 0.7028 0.7114
s off
f 50/49/89 48/50/90 47/51/91
f 51/52/92 47/51/93 49/53/94
f 51/52/95 50/49/96 47/51/97
f 51/54/98 54/55/99 50/49/100
f 49/53/101 52/56/102 51/52/103
f 53/57/104 51/54/105 52/56/102
f 51/54/98 53/57/106 54/55/99
f 50/49/107 54/55/108 55/58/109
f 55/58/110 56/59/111 58/60/112
f 50/49/113 55/58/114 57/61/115
f 55/58/110 58/60/112 57/61/116
f 57/61/117 58/60/118 59/62/119
f 57/61/120 59/62/119 48/50/121
f 50/49/122 57/61/123 48/50/124
f 53/57/104 52/56/102 60/63/102
f 49/53/125 61/64/102 52/56/102
v -2.999998 -1.826680 -0.826582
v -2.999998 -1.921332 -0.571930
v -2.999998 -1.572029 -0.921233
v -0.830243 -1.826679 -0.827139
v -0.924884 -1.572028 -0.921780
v -1.004887 -1.572028 -1.001783
v -0.924671 -1.572025 -2.997228
v -0.830020 -1.826676 -2.997229
v -0.575368 -1.921327 -2.997229
v -0.575368 -2.001327 -2.997229
v -0.575592 -1.921331 -0.572488
v -0.575592 -2.001331 -0.572488
v -2.999998 -2.001332 -0.571930
v -1.004671 -1.572025 -2.997228
v -2.999998 -1.572029 -1.001233
vt 0.885259 0.947492
vt 0.793979 0.500564
vt 0.885259 0.500564
vt 0.975000 0.927977
vt 0.975000 0.500565
vt 0.975245 0.927977
vt 0.885259 0.500564
vt 1.000000 0.911482
vt 0.975000 0.500565
vt 0.793979 0.500564
vt 0.768737 0.500567
vt 0.768723 0.999831
vt 0.793979 0.999831
vt 0.768737 0.500567
vt 1.000000 0.500568
vt 1.000000 0.500568
vn -0.3201 -0.8917 -0.3201
vn -0.0001 -0.8809 -0.4734
vn -0.0002 -0.5958 -0.8031
vn -0.5678 -0.5962 -0.5676
vn -0.0002 -0.7028 -0.7114
vn -0.5677 -0.5963 -0.5676
vn -0.8031 -0.5958 -0.0001
vn -0.3202 -0.8917 -0.3201
vn 0.0000 -1.0000 -0.0000
vn -0.5677 -0.5963 -0.5675
vn -0.7114 -0.7028 -0.0001
vn -0.5676 -0.5963 -0.5676
vn -0.8031 -0.5958 -0.0002
vn -0.5752 -0.8180 -0.0001
vn -1.0000 0.0000 -0.0001
vn -0.8944 0.0000 -0.4472
vn -0.2933 -0.8551 -0.4275
vn -0.5752 -0.8180 -0.0000
vn -0.0002 0.0000 -1.0000
vn -0.2934 -0.8551 -0.4275
vn -0.0001 -0.8808 -0.4734
vn 0.0000 -0.7028 -0.7114
s off
f 65/65/126 63/66/127 62/67/128
f 66/68/129 62/67/128 64/69/130
f 66/68/131 65/65/126 62/67/128
f 66/70/131 69/71/132 65/65/133
f 64/69/130 67/72/134 66/68/135
f 68/73/136 66/70/137 67/72/134
f 66/70/135 68/73/136 69/71/132
f 65/65/133 69/71/138 70/74/139
f 70/74/139 71/75/140 73/76/141
f 65/65/133 70/74/139 72/77/142
f 70/74/143 73/76/141 72/77/142
f 72/77/142 73/76/141 74/78/144
f 72/77/145 74/78/144 63/66/146
f 65/65/126 72/77/142 63/66/127
f 68/73/136 67/72/134 75/79/134
f 64/69/147 76/80/134 67/72/134
v -0.999999 -2.000003 -1.000006
v -2.999999 -2.000004 -1.000007
v -1.000000 -2.000005 0.999994
v -3.000000 -2.000006 0.999993
vt 0.499500 0.000000
vt 0.000000 0.000000
vt 0.000000 0.499500
vt 0.499500 0.499500
vn -0.0000 1.0000 0.0000
s off
f 79/81/148 77/82/148 78/83/148
f 79/81/148 78/83/148 80/84/148
