# Blender v2.83.5 OBJ File: 'turn_right.blend'
# www.blender.org
v 1.000000 -0.173974 -0.829311
v 1.000000 -0.079323 -0.574659
v 1.000000 -0.428625 -0.923962
v -0.573061 -0.079323 -0.574660
v -0.827713 -0.173975 -0.829311
v -0.922353 -0.428626 -0.923954
v -0.827713 -0.173976 1.000000
v -0.922365 -0.428627 1.000000
v -1.002365 -0.428627 1.000000
v -1.002353 -0.428626 -0.923954
v -1.002353 -0.428626 -1.003953
v -0.922353 -0.428626 -1.003953
v 1.000000 -0.428625 -1.003962
v -0.573062 -0.079325 1.000000
v -0.573062 0.000675 1.000000
v -0.573061 0.000677 -0.574660
v 1.000000 0.000677 -0.574659
vt 0.885228 0.999999
vt 0.794000 1.000000
vt 0.793979 0.609365
vt 0.975000 1.000001
vt 0.885206 0.528084
vt 0.885228 0.999999
vt 0.975000 0.500352
vt 0.975000 1.000001
vt 1.000000 0.500356
vt 1.000000 1.000001
vt 1.000045 0.523657
vt 1.000000 0.500356
vt 1.000000 1.000000
vt 0.794000 1.000000
vt 0.768737 0.609365
vt 0.768725 1.000000
vt 0.768724 1.000000
vn -0.0000 -0.9959 -0.0909
vn 0.0000 -0.9939 0.1103
vn -0.2385 -0.8975 0.3711
vn -0.0000 -0.1069 0.9943
vn -0.0000 0.0563 0.9984
vn -0.4931 0.2211 0.8414
vn -0.4931 -0.8647 0.0952
vn 0.4216 -0.8539 -0.3052
vn 0.0710 -0.9975 0.0001
vn 0.0949 -0.8650 -0.4927
vn 0.0000 -0.1068 0.9943
vn -0.4931 0.2212 0.8414
vn -0.5031 0.2040 0.8398
vn 0.9942 -0.1077 0.0001
vn 0.8401 0.2038 -0.5027
vn 0.8417 0.2209 -0.4927
vn 0.9942 -0.1078 0.0001
vn 0.9762 0.2167 -0.0000
vn -0.8232 -0.5677 0.0001
vn 0.0000 -1.0000 -0.0000
vn -0.5032 -0.7029 -0.5027
vn -0.8232 -0.5677 -0.0000
vn -0.5031 -0.7029 -0.5027
vn -0.5029 -0.7029 -0.5029
vn -0.0000 -0.5685 -0.8227
vn 0.0224 -0.9997 -0.0000
vn 0.6360 0.7717 0.0000
vn 0.8946 -0.0000 -0.4468
vn 1.0000 -0.0000 0.0000
vn 0.6360 0.7717 0.0001
vn 0.2384 0.9220 -0.3052
vn -0.2384 0.9220 0.3052
vn -0.0000 -0.0000 1.0000
vn -0.8946 -0.0000 0.4468
vn -0.0000 0.8247 0.5656
s off
f 1/1/1 2/2/2 4/3/3
f 3/4/4 1/1/5 5/5/6
f 1/1/1 4/3/3 5/5/7
f 4/3/8 7/6/9 5/5/10
f 3/4/11 5/5/12 6/7/13
f 8/8/14 6/7/15 5/5/16
f 8/8/17 5/5/16 7/6/18
f 8/8/19 10/9/20 6/7/21
f 8/8/22 9/10/20 10/9/20
f 10/9/20 11/11/20 6/7/23
f 11/11/20 12/12/20 6/7/24
f 3/4/25 6/7/23 12/12/20
f 3/4/25 12/12/20 13/13/20
f 4/3/8 14/14/26 7/6/9
f 14/14/27 16/15/28 15/16/29
f 14/14/30 4/3/31 16/15/28
f 4/3/32 17/17/33 16/15/34
f 4/3/32 2/2/35 17/17/33
v 0.999999 0.000002 -0.999999
v -1.000000 0.000001 -1.000000
v 0.999999 -0.000000 1.000001
v -1.000001 -0.000001 1.000000
vt 0.498979 0.500126
vt 0.000000 1.000000
vt 0.000000 0.500126
vt 0.498979 1.000000
vn 0.0000 -1.0000 -0.0000
s off
f 20/18/36 19/19/36 18/20/36
f 20/18/36 21/21/36 19/19/36
