# Blender v2.83.5 OBJ File: 'turn_right.blend'
# www.blender.org
v 1.000000 -0.173974 -0.829311
v 1.000000 -0.079323 -0.574659
v 1.000000 -0.428625 -0.923962
v -0.573061 -0.079323 -0.574660
v -0.827713 -0.173975 -0.829311
v -0.922353 -0.428626 -0.923954
v -0.827713 -0.173976 1.000000
v -0.922365 -0.428627 1.000000
v -1.002365 -0.428627 1.000000
v -1.002353 -0.428626 -0.923954
v -1.002353 -0.428626 -1.003953
v -0.922353 -0.428626 -1.003953
v 1.000000 -0.428625 -1.003962
v -0.573062 -0.079325 1.000000
v -0.573062 0.000675 1.000000
v -0.573061 0.000677 -0.574660
v 1.000000 0.000677 -0.574659
v 0.999999 0.000002 -0.999999
v -1.000000 0.000001 -1.000000
v 0.999999 -0.000000 1.000001
v -1.000001 -0.000001 1.000000
vt 0.885228 0.999999
vt 0.793979 0.609365
vt 0.794000 1.000000
vt 0.975000 1.000001
vt 0.885206 0.528084
vt 0.885228 0.999999
vt 0.975000 0.500352
vt 0.975000 1.000001
vt 1.000000 0.500356
vt 1.000000 1.000001
vt 1.000045 0.523657
vt 1.000000 0.500356
vt 1.000000 1.000000
vt 0.794000 1.000000
vt 0.768725 1.000000
vt 0.768737 0.609365
vt 0.768724 1.000000
vt 0.498979 0.500126
vt 0.000000 1.000000
vt 0.000000 0.500126
vt 0.498979 1.000000
vn 0.4259 0.8197 -0.3831
vn -0.2410 0.9118 -0.3326
vn -0.2428 0.9093 -0.3380
vn -0.2436 0.3716 -0.8959
vn -0.5614 -0.1481 -0.8142
vn 0.4006 0.3192 -0.8588
vn 0.0735 0.9937 0.0850
vn -0.4920 0.7160 -0.4953
vn 0.1691 0.9695 -0.1771
vn -0.0846 0.9792 0.1846
vn -0.4948 0.7164 -0.4919
vn -0.0748 0.9960 0.0478
vn -0.0362 0.1093 -0.9934
vn 0.2913 -0.3451 -0.8922
vn -0.2143 0.8751 -0.4340
vn -0.9933 0.1102 -0.0360
vn -0.4345 0.8748 -0.2144
vn -0.8924 -0.3445 0.2913
vn -0.8962 0.3715 -0.2427
vn -0.7870 0.2925 0.5432
vn -0.8146 -0.1479 -0.5608
vn 0.8225 0.5677 -0.0341
vn 0.5027 0.7029 0.5032
vn -0.0000 1.0000 0.0000
vn -0.0342 0.5677 -0.8225
vn -0.7112 0.7029 -0.0003
vn -0.0000 0.7029 -0.7112
vn -0.0342 0.5685 0.8220
vn 0.5027 0.7029 0.5031
vn -0.8220 0.5685 -0.0342
vn -0.3717 0.8724 -0.3173
vn -0.3792 0.8829 0.2769
vn -0.3292 0.8857 -0.3273
vn -0.6360 0.0392 -0.7707
vn -1.0000 0.0000 -0.0000
vn -0.8946 0.0227 -0.4463
vn -0.6360 -0.7707 -0.0391
vn -0.8946 0.4463 0.0227
vn -0.2384 -0.3052 0.9220
vn 0.9329 -0.1913 -0.3052
vn 0.0000 0.8946 -0.4468
vn 0.0000 0.0000 -1.0000
vn -0.1913 -0.9329 -0.3052
vn -0.8247 0.0000 -0.5656
vn 0.0000 -1.0000 -0.0000
s off
f 1/1/1 4/2/2 2/3/3
f 3/4/4 5/5/5 1/1/6
f 1/1/7 5/5/8 4/2/9
f 4/2/10 5/5/11 7/6/12
f 3/4/13 6/7/14 5/5/15
f 8/8/16 5/5/17 6/7/18
f 8/8/19 7/6/20 5/5/21
f 8/8/22 6/7/23 10/9/24
f 8/8/25 10/9/24 9/10/24
f 10/9/24 6/7/26 11/11/24
f 11/11/24 6/7/27 12/12/24
f 3/4/28 12/12/24 6/7/29
f 3/4/30 13/13/24 12/12/24
f 4/2/31 7/6/32 14/14/33
f 14/14/34 15/15/35 16/16/36
f 14/14/37 16/16/38 4/2/39
f 4/2/40 16/16/41 17/17/42
f 4/2/43 17/17/42 2/3/44
f 20/18/45 19/19/45 18/20/45
f 20/18/45 21/21/45 19/19/45
