# Blender v2.83.5 OBJ File: 'turn_right.blend'
# www.blender.org
v 1.000000 -1.832372 -0.829312
v 1.000000 -1.927023 -0.574660
v 1.000000 -1.577720 -0.923963
v -0.573061 -1.927024 -0.574661
v -0.827712 -1.832372 -0.829313
v -0.922352 -1.577721 -0.923954
v -0.827713 -1.832374 0.999998
v -0.922364 -1.577723 0.999999
v -1.002364 -1.577723 0.999999
v -1.002352 -1.577721 -0.923954
v -1.002352 -1.577721 -1.003954
v -0.922352 -1.577721 -1.003954
v 1.000000 -1.577720 -1.003963
v -0.573062 -1.927025 0.999998
v -0.573062 -2.007026 0.999998
v -0.573061 -2.007024 -0.574661
v 1.000000 -2.007023 -0.574661
vt 0.885228 0.999999
vt 0.793979 0.609365
vt 0.794000 1.000000
vt 0.975000 1.000001
vt 0.885206 0.528084
vt 0.885228 0.999999
vt 0.975000 1.000001
vt 0.975000 0.500352
vt 1.000000 0.500356
vt 1.000000 1.000001
vt 1.000045 0.523657
vt 1.000000 0.500356
vt 1.000000 1.000000
vt 0.794000 1.000000
vt 0.768725 1.000000
vt 0.768737 0.609365
vt 0.768724 1.000000
vn 0.4259 0.8709 0.2453
vn -0.2410 0.9076 0.3437
vn -0.2428 0.9093 0.3380
vn -0.2436 0.3037 0.9211
vn -0.5614 0.6439 0.5198
vn 0.4006 0.3192 0.8588
vn 0.0735 0.6969 0.7134
vn -0.4920 0.8657 0.0926
vn 0.1691 0.8499 0.4991
vn 0.5755 0.7967 0.1846
vn 0.0932 0.8656 -0.4919
vn 0.5939 0.8031 0.0478
vn 0.8241 0.5653 -0.0360
vn 0.9003 -0.3787 -0.2144
vn 0.4508 0.8437 0.2914
vn -0.0362 0.5660 0.8236
vn 0.2913 0.8440 0.4503
vn -0.2143 -0.3793 0.9001
vn 0.9212 0.3040 -0.2427
vn 0.7870 0.2925 0.5432
vn 0.5202 0.6441 -0.5608
vn 0.8225 0.5677 -0.0341
vn 0.5027 0.7029 0.5032
vn -0.0000 1.0000 0.0000
vn -0.0342 0.5677 -0.8225
vn -0.7112 0.7029 -0.0003
vn 0.0000 0.7029 -0.7112
vn -0.0342 0.5685 0.8220
vn 0.5027 0.7029 0.5031
vn -0.8220 0.5685 -0.0342
vn 0.2884 0.9034 -0.3173
vn 0.2895 0.9162 0.2769
vn 0.3292 0.8857 -0.3273
vn 0.6360 -0.0392 -0.7707
vn 1.0000 0.0000 0.0000
vn 0.8946 -0.0227 -0.4463
vn 0.6360 0.7707 -0.0391
vn 0.8946 -0.4463 0.0227
vn 0.2384 0.3052 0.9220
vn 0.9329 0.1913 0.3052
vn 0.0000 -0.8946 0.4468
vn -0.0000 -0.0000 1.0000
vn -0.1913 0.9329 0.3052
vn -0.8247 -0.0000 0.5656
s off
f 1/1/1 4/2/2 2/3/3
f 3/4/4 5/5/5 1/1/6
f 1/1/7 5/5/8 4/2/9
f 4/2/10 5/5/11 7/6/12
f 8/7/13 5/5/14 6/8/15
f 3/4/16 6/8/17 5/5/18
f 8/7/19 7/6/20 5/5/21
f 8/7/22 6/8/23 10/9/24
f 8/7/25 10/9/24 9/10/24
f 10/9/24 6/8/26 11/11/24
f 11/11/24 6/8/27 12/12/24
f 3/4/28 12/12/24 6/8/29
f 3/4/30 13/13/24 12/12/24
f 4/2/31 7/6/32 14/14/33
f 14/14/34 15/15/35 16/16/36
f 14/14/37 16/16/38 4/2/39
f 4/2/40 16/16/41 17/17/42
f 4/2/43 17/17/42 2/3/44
v 1.000001 -1.999998 -1.000001
v -0.999999 -1.999999 -1.000002
v 1.000000 -2.000000 0.999999
v -0.999999 -2.000000 0.999998
vt 0.499500 0.000000
vt 0.000000 0.000000
vt 0.000000 0.499500
vt 0.499500 0.499500
vn -0.0000 1.0000 0.0000
s off
f 20/18/45 18/19/45 19/20/45
f 20/18/45 19/20/45 21/21/45
