# Blender v2.83.5 OBJ File: 'turn_right.blend'
# www.blender.org
v 0.999999 0.000002 -0.999999
v 1.000000 -1.999998 -1.000001
v -1.000000 0.000001 -1.000000
v -0.999999 -1.999998 -1.000002
v -1.000000 0.000001 -1.000000
v -0.999999 -1.999998 -1.000002
v -1.000001 -0.000001 1.000000
v -1.000000 -2.000000 0.999998
vt 0.999366 0.000044
vt 0.500504 0.499667
vt 0.500437 0.000130
vt 0.999366 0.499771
vt 0.999366 0.000044
vt 0.500504 0.499667
vt 0.500437 0.000130
vt 0.999366 0.499771
vn -0.0000 -0.0000 1.0000
vn 1.0000 0.0000 0.0000
s off
f 3/1/1 2/2/1 1/3/1
f 3/1/1 4/4/1 2/2/1
f 7/5/2 6/6/2 5/7/2
f 7/5/2 8/8/2 6/6/2
