# Blender v2.83.5 OBJ File: 'turn_right.blend'
# www.blender.org
v -1.000001 -0.000006 0.999995
v -1.000000 -2.000006 0.999993
v -1.000001 -0.000008 2.999995
v -1.000001 -2.000008 2.999993
vt 0.999366 0.000044
vt 0.500229 0.000130
vt 0.500296 0.499667
vt 0.999366 0.499771
vn -1.0000 -0.0000 -0.0000
s off
f 3/1/1 1/2/1 2/3/1
f 3/1/1 2/3/1 4/4/1
v 0.999999 -0.000006 0.999996
v 1.000000 -2.000005 0.999994
v -1.000001 -0.000006 0.999995
v -1.000001 -2.000006 0.999993
vt 0.999366 0.000044
vt 0.500229 0.000130
vt 0.500296 0.499667
vt 0.999366 0.499772
vn 0.0000 0.0000 -1.0000
s off
f 7/5/2 5/6/2 6/7/2
f 7/5/2 6/7/2 8/8/2
v 0.999999 -0.000004 -1.000005
v 1.000000 -2.000003 -1.000006
v -1.000001 -0.000005 -1.000005
v -1.000000 -2.000004 -1.000007
vt 0.999366 0.000044
vt 0.500296 0.499667
vt 0.500229 0.000130
vt 0.999366 0.499771
vn -0.0000 -0.0000 1.0000
s off
f 11/9/3 10/10/3 9/11/3
f 11/9/3 12/12/3 10/10/3
v -1.000000 -0.000005 -1.000006
v -0.999999 -2.000004 -1.000008
v -1.000000 -0.000003 -3.000006
v -0.999999 -2.000002 -3.000008
vt 0.999366 0.000044
vt 0.500229 0.000130
vt 0.500296 0.499667
vt 0.999366 0.499771
vn 1.0000 0.0000 0.0000
s off
f 15/13/4 13/14/4 14/15/4
f 15/13/4 14/15/4 16/16/4
