# Blender v2.83.5 OBJ File: 'turn_right.blend'
# www.blender.org
v 0.000000 0.999999 -2.000001
v -1.999999 0.999999 -2.000001
v -0.000001 1.000007 6.190395
v -2.000000 1.000007 6.190395
v 0.000001 0.999997 -4.000001
v -1.999999 0.999997 -4.000002
v 0.000000 0.999999 -2.000001
v -1.999999 0.999999 -2.000001
v 0.000001 -1.000003 -3.999999
v -1.999999 -1.000003 -4.000000
v 0.000001 0.999997 -4.000001
v -1.999999 0.999997 -4.000002
v 0.000000 -8.823102 -3.999992
v -1.999999 -8.823102 -3.999992
v 0.000001 -1.000003 -3.999999
v -1.999999 -1.000003 -4.000000
v 0.000000 -3.000001 -1.999997
v -0.000001 -2.999993 6.190399
v -0.063847 0.999999 -2.000001
v -0.063848 1.000007 6.190395
v -0.063847 -3.000001 -1.999997
v -0.063849 -2.999993 6.190399
vt 1.000000 0.000000
vt 0.500000 0.500000
vt 0.500000 0.000000
vt 1.000000 0.500000
vt 1.000000 0.000000
vt 0.500000 0.500000
vt 0.500000 0.000000
vt 1.000000 0.500000
vt 1.000000 0.000000
vt 0.500000 0.500000
vt 0.500000 0.000000
vt 1.000000 0.500000
vt 1.000000 0.000000
vt 0.500000 0.500000
vt 0.500000 0.000000
vt 1.000000 0.500000
vt 0.000000 0.000000
vt -0.089427 0.319872
vt 0.000000 0.000000
vt 1.008599 -0.134140
vt 0.491401 -0.001720
vt 1.000000 1.000890
vt 0.998280 0.000000
vt 0.510318 0.999170
vt 0.000000 0.000000
vt -0.008599 -0.421337
vt 0.000000 0.000000
vt 0.000000 0.000000
vt 0.008599 -0.134140
vt 0.491401 -0.421337
vn -0.0000 -1.0000 0.0000
vn 0.0000 0.0000 1.0000
vn 0.0000 1.0000 -0.0000
vn -1.0000 0.0000 -0.0000
vn 0.0000 -0.0000 -1.0000
s off
f 3/1/1 2/2/1 1/3/1
f 3/1/1 4/4/1 2/2/1
f 7/5/1 6/6/1 5/7/1
f 7/5/1 8/8/1 6/6/1
f 11/9/2 10/10/2 9/11/2
f 11/9/2 12/12/2 10/10/2
f 15/13/2 14/14/2 13/15/2
f 15/13/2 16/16/2 14/14/2
f 3/17/2 22/18/2 18/19/2
f 1/3/3 20/20/3 3/1/3
f 19/21/4 22/22/4 20/23/4
f 19/21/4 21/24/4 22/22/4
f 17/25/5 19/26/5 1/27/5
f 18/19/1 21/28/1 17/25/1
f 3/17/2 20/29/2 22/18/2
f 17/25/5 21/28/5 19/26/5
f 18/19/1 22/18/1 21/28/1
f 1/3/3 19/30/3 20/20/3
