# Blender v2.83.5 OBJ File: 'turn_right.blend'
# www.blender.org
v 2.999999 -1.826674 0.826573
v 3.000000 -1.921326 0.571921
v 2.999999 -1.572023 0.921224
v 0.830245 -1.826675 0.827131
v 0.924885 -1.572023 0.921772
v 1.004888 -1.572023 1.001775
v 0.924672 -1.572024 2.997220
v 0.830021 -1.826676 2.997220
v 0.575369 -1.921327 2.997220
v 0.575369 -2.001327 2.997220
v 0.575593 -1.921326 0.572479
v 0.575593 -2.001326 0.572479
v 3.000000 -2.001326 0.571921
v 1.004672 -1.572024 2.997220
v 2.999999 -1.572023 1.001224
v 1.000000 -1.832372 -0.829312
v 1.000000 -1.927023 -0.574661
v 1.000000 -1.577720 -0.923963
v -0.573061 -1.927024 -0.574661
v -0.827712 -1.832372 -0.829313
v -0.922352 -1.577721 -0.923955
v -0.827713 -1.832374 0.999998
v -0.922364 -1.577723 0.999998
v -1.002364 -1.577723 0.999998
v -1.002352 -1.577721 -0.923955
v -1.002352 -1.577721 -1.003954
v -0.922352 -1.577721 -1.003954
v 1.000000 -1.577720 -1.003963
v -0.573062 -1.927025 0.999998
v -0.573062 -2.007026 0.999998
v -0.573061 -2.007024 -0.574661
v 1.000000 -2.007023 -0.574661
v 1.000001 -1.999998 -1.000001
v -0.999999 -1.999999 -1.000002
v 1.000000 -2.000000 0.999999
v -0.999999 -2.000000 0.999998
v 1.000000 -2.000000 0.999999
v -0.999999 -2.000000 0.999998
v 1.000000 -2.000002 2.999999
v -1.000000 -2.000002 2.999998
v 3.000001 -1.999997 -1.000001
v 1.000001 -1.999998 -1.000001
v 3.000000 -1.999999 0.999999
v 1.000000 -2.000000 0.999999
v 1.000000 -1.832372 -0.829312
v 1.000000 -1.927023 -0.574661
v 1.000000 -1.577720 -0.923963
v 2.997636 -1.832371 -0.829312
v 2.997636 -1.577720 -0.923963
v 1.000000 -1.577720 -1.003963
v 2.997636 -1.577720 -1.003963
v 2.997636 -1.927023 -0.574660
v 2.997636 -2.007023 -0.574660
v 1.000000 -2.007023 -0.574661
v -0.827713 -1.832373 1.002363
v -0.573062 -1.927024 1.002363
v -0.922365 -1.577722 1.002363
v -0.827714 -1.832375 2.999998
v -0.922365 -1.577724 2.999998
v -1.002365 -1.577722 1.002363
v -1.002365 -1.577724 2.999998
v -0.573062 -1.927027 2.999998
v -0.573062 -2.007026 2.999998
v -0.573062 -2.007025 1.002362
vt 0.885228 0.947492
vt 0.885206 0.500007
vt 0.793979 0.500000
vt 0.975000 0.927977
vt 0.975000 0.499997
vt 0.975244 0.927977
vt 0.885206 0.500007
vt 1.000000 0.911482
vt 0.975000 0.499997
vt 0.793979 0.500000
vt 0.768723 1.000000
vt 0.768737 0.500003
vt 0.794000 1.000000
vt 0.768737 0.500002
vt 1.000000 0.500000
vt 1.000000 0.500000
vt 0.885228 0.999999
vt 0.793979 0.609365
vt 0.794000 1.000000
vt 0.975000 1.000001
vt 0.885206 0.528084
vt 0.885228 0.999999
vt 0.975000 1.000001
vt 0.975000 0.500352
vt 1.000000 0.500356
vt 1.000000 1.000001
vt 1.000045 0.523657
vt 1.000000 0.500356
vt 1.000000 1.000000
vt 0.793999 1.000000
vt 0.768725 1.000000
vt 0.768737 0.609365
vt 0.768724 1.000000
vt 0.499500 0.000000
vt 0.000000 0.000000
vt 0.000000 0.499500
vt 0.499500 0.499500
vt 0.499500 0.000000
vt 0.000000 0.000000
vt 0.000000 0.499500
vt 0.499500 0.499500
vt 0.499500 0.000000
vt 0.000000 0.000000
vt 0.000000 0.499500
vt 0.499500 0.499500
vt 0.885259 0.500352
vt 0.885228 0.999999
vt 0.793999 1.000000
vt 0.975000 0.500352
vt 0.975000 1.000001
vt 1.000000 1.000000
vt 1.000000 0.500356
vt 0.793979 0.500356
vt 0.768723 0.500355
vt 0.768723 1.000000
vt 0.885238 0.500352
vt 0.885206 0.999999
vt 0.794000 0.999999
vt 0.975000 0.500352
vt 0.975000 1.000001
vt 1.000000 0.500356
vt 1.000000 1.000001
vt 0.793979 0.500356
vt 0.768702 0.500355
vt 0.768723 1.000000
vn 0.3188 0.8778 -0.3576
vn 0.5451 0.7858 -0.2921
vn -0.1358 0.9345 -0.3292
vn 0.6095 0.5243 -0.5946
vn -0.4112 0.3176 -0.8544
vn 0.2761 0.3007 -0.9129
vn 0.0678 -0.3695 -0.9268
vn 0.0360 0.5936 -0.8039
vn -0.5788 0.7194 -0.3840
vn -0.9268 -0.3695 0.0680
vn -0.3842 0.7194 -0.5787
vn -0.8040 0.5936 0.0361
vn -0.0287 0.7028 -0.7108
vn 0.8028 0.5963 -0.0001
vn -0.0000 1.0000 0.0000
vn -0.7108 0.7028 -0.0286
vn -0.0001 0.5963 0.8028
vn -0.5946 0.5244 0.6095
vn -0.9128 0.3007 0.2762
vn -0.8545 0.3176 -0.4110
vn -0.3576 0.8778 0.3188
vn -0.3074 0.9175 -0.2522
vn -0.2920 0.7858 0.5452
vn -0.5752 -0.0270 -0.8176
vn -0.8945 0.0147 0.4468
vn -1.0000 0.0000 -0.0001
vn -0.5752 0.8175 -0.0270
vn -0.2934 -0.4275 0.8551
vn -0.8945 0.4469 -0.0148
vn -0.5293 0.8139 -0.2395
vn -0.0078 0.9612 0.2756
vn -0.5734 0.8187 -0.0316
vn 0.8449 -0.3212 -0.4278
vn -0.0002 0.0000 -1.0000
vn -0.0001 0.8943 -0.4474
vn 0.3212 0.8450 -0.4276
vn -0.8810 -0.0000 -0.4732
vn -0.2396 0.8139 -0.5293
vn -0.0171 0.8812 -0.4724
vn 0.2755 0.9410 -0.1965
vn 0.0285 0.7028 -0.7108
vn -0.7108 0.7028 0.0287
vn 0.4259 0.8709 0.2453
vn -0.2410 0.9076 0.3437
vn -0.2428 0.9093 0.3380
vn -0.2436 0.3037 0.9211
vn -0.5614 0.6439 0.5198
vn 0.4006 0.3192 0.8588
vn 0.0735 0.6969 0.7134
vn -0.4920 0.8657 0.0926
vn 0.1691 0.8499 0.4991
vn 0.5755 0.7967 0.1846
vn 0.0932 0.8656 -0.4919
vn 0.5939 0.8031 0.0478
vn 0.8241 0.5653 -0.0360
vn 0.9003 -0.3787 -0.2144
vn 0.4508 0.8437 0.2914
vn -0.0362 0.5660 0.8236
vn 0.2913 0.8440 0.4503
vn -0.2143 -0.3793 0.9001
vn 0.9212 0.3040 -0.2427
vn 0.7870 0.2925 0.5432
vn 0.5202 0.6441 -0.5608
vn 0.8225 0.5677 -0.0341
vn 0.5027 0.7029 0.5032
vn -0.0342 0.5677 -0.8225
vn -0.7112 0.7029 -0.0003
vn 0.0000 0.7029 -0.7112
vn -0.0342 0.5685 0.8220
vn 0.5027 0.7029 0.5031
vn -0.8220 0.5685 -0.0342
vn 0.6360 -0.0392 -0.7707
vn 1.0000 0.0000 0.0000
vn 0.8946 -0.0227 -0.4463
vn 0.9329 0.1913 0.3052
vn 0.0000 -0.8946 0.4468
vn -0.0000 -0.0000 1.0000
vn 0.6360 0.7707 -0.0391
vn 0.8946 -0.4463 0.0227
vn 0.2384 0.3052 0.9220
vn -0.1913 0.9329 0.3052
vn -0.8247 -0.0000 0.5656
vn 0.2884 0.9034 -0.3173
vn 0.2895 0.9162 0.2769
vn 0.3292 0.8857 -0.3273
vn 0.0370 0.8066 0.5899
vn -0.4322 0.8453 0.3142
vn 0.2406 0.9207 0.3073
vn -0.0327 0.5635 0.8254
vn 0.2462 0.3377 0.9085
vn -0.3970 0.2686 0.8776
vn -0.2406 0.3073 0.9207
vn -0.0540 0.6913 0.7205
vn 0.5489 0.2912 0.7835
vn -0.0330 0.5656 0.8240
vn 0.8227 0.5685 0.0000
vn -0.8240 0.5656 -0.0330
vn 0.2719 0.9142 0.3004
vn 0.0327 0.8254 0.5635
vn 0.0330 0.8240 0.5656
vn 0.8240 -0.0330 0.5656
vn -0.0801 -0.9961 0.0370
vn -0.3142 -0.8453 -0.4322
vn -0.3686 -0.8979 0.2406
vn -0.9931 -0.1124 -0.0327
vn -0.9085 -0.3377 0.2462
vn -0.8400 -0.3698 -0.3970
vn -0.8979 -0.3686 -0.2406
vn -0.9971 0.0529 -0.0540
vn -0.7835 -0.2912 0.5489
vn -0.0330 -0.5656 -0.8240
vn 0.0000 -1.0000 -0.0000
vn 0.8240 -0.5656 -0.0330
vn 0.0000 -0.5685 0.8227
vn -0.3697 -0.8885 0.2719
vn -0.1124 -0.9931 0.0327
vn -0.3380 -0.9093 -0.2428
vn -0.5656 0.8240 0.0330
vn -1.0000 -0.0000 -0.0000
vn -0.5656 0.0000 -0.8247
vn -0.5656 -0.0330 0.8240
s off
f 4/1/1 1/2/2 2/3/3
f 5/4/4 3/5/5 1/2/6
f 5/4/7 1/2/8 4/1/9
f 5/6/10 4/1/11 8/7/12
f 3/5/13 5/4/14 6/8/15
f 7/9/16 6/8/15 5/6/17
f 5/6/18 8/7/19 7/9/20
f 4/1/21 9/10/22 8/7/23
f 9/10/24 12/11/25 10/12/26
f 9/10/27 11/13/28 12/11/29
f 4/1/30 11/13/31 9/10/32
f 11/13/33 13/14/34 12/11/35
f 11/13/36 2/3/37 13/14/34
f 4/1/38 2/3/39 11/13/40
f 7/9/41 14/15/15 6/8/15
f 3/5/42 6/8/15 15/16/15
f 16/17/43 19/18/44 17/19/45
f 18/20/46 20/21/47 16/17/48
f 16/17/49 20/21/50 19/18/51
f 19/18/52 20/21/53 22/22/54
f 23/23/55 20/21/56 21/24/57
f 18/20/58 21/24/59 20/21/60
f 23/23/61 22/22/62 20/21/63
f 23/23/64 21/24/65 25/25/15
f 23/23/66 25/25/15 24/26/15
f 25/25/15 21/24/67 26/27/15
f 26/27/15 21/24/68 27/28/15
f 18/20/69 27/28/15 21/24/70
f 18/20/71 28/29/15 27/28/15
f 29/30/72 30/31/73 31/32/74
f 19/18/75 31/32/76 32/33/77
f 29/30/78 31/32/79 19/18/80
f 19/18/81 32/33/77 17/19/82
f 19/18/83 22/22/84 29/30/85
f 35/34/15 33/35/15 34/36/15
f 35/34/15 34/36/15 36/37/15
f 39/38/15 37/39/15 38/40/15
f 39/38/15 38/40/15 40/41/15
f 43/42/15 41/43/15 42/44/15
f 43/42/15 42/44/15 44/45/15
f 48/46/86 45/47/87 46/48/88
f 49/49/89 47/50/90 45/47/91
f 49/49/92 45/47/93 48/46/94
f 49/49/95 50/51/15 47/50/96
f 49/49/97 51/52/15 50/51/15
f 48/46/98 46/48/99 52/53/45
f 46/48/100 53/54/77 52/53/82
f 46/48/101 54/55/77 53/54/77
f 58/56/102 55/57/103 56/58/104
f 59/59/105 57/60/106 55/57/107
f 59/59/108 55/57/109 58/56/110
f 59/59/111 61/61/112 60/62/112
f 59/59/113 60/62/112 57/60/114
f 58/56/115 56/58/116 62/63/117
f 56/58/118 63/64/119 62/63/120
f 56/58/121 64/65/119 63/64/119
