# Blender v2.83.5 OBJ File: 'turn_right.blend'
# www.blender.org
mtllib turn_right_test2.mtl
v 1.000000 -1.832373 -0.829311
v 1.000000 -1.927024 -0.574660
v 1.000000 -1.577721 -0.923962
v 2.997635 -1.832372 -0.829311
v 2.997635 -1.577721 -0.923962
v 2.997635 -1.927023 -0.574660
v -0.827354 -1.832373 2.999958
v -0.572702 -1.927024 2.999958
v -0.922005 -1.577722 2.999958
v -0.827713 -1.832373 1.000000
v -0.922364 -1.577722 1.000000
v -0.573062 -1.927025 1.000000
v -0.827713 -1.832373 -0.829311
v -0.573061 -1.927024 -0.574659
v -0.922353 -1.577722 -0.923953
v 1.000000 -2.007024 -0.574660
v 2.997635 -2.007023 -0.574660
v -0.572702 -2.007025 2.999958
v -0.573062 -2.007025 1.000000
v -0.573061 -2.007024 -0.574659
v 1.000000 -1.577721 -1.003963
v 2.997635 -1.577721 -1.003962
v -0.922353 -1.577722 -1.003953
v -1.002005 -1.577722 2.999958
v -1.002364 -1.577722 1.000000
v -1.002353 -1.577722 -0.923953
v -1.002353 -1.577722 -1.003953
v 3.000000 -1.826674 0.826573
v 3.000000 -1.921325 0.571922
v 3.000000 -1.572022 0.921225
v 0.830244 -1.826674 0.827132
v 0.924885 -1.572022 0.921772
v 1.004888 -1.572022 1.001776
v 0.924673 -1.572021 2.997221
v 0.830022 -1.826673 2.997221
v 0.575370 -1.921324 2.997221
v 0.575370 -2.001324 2.997221
v 0.575593 -1.921325 0.572481
v 0.575593 -2.001325 0.572481
v 3.000000 -2.001325 0.571922
v 1.004673 -1.572021 2.997221
v 3.000000 -1.572022 1.001225
v 0.999999 -0.170062 -0.829311
v 0.999999 -0.075410 -0.574660
v 0.999999 -0.424713 -0.923962
v 2.997634 -0.170061 -0.829311
v 2.997635 -0.424712 -0.923963
v -0.573062 -0.075411 -0.574659
v -0.827713 -0.170063 -0.829311
v -0.922353 -0.424714 -0.923953
v -0.827713 -0.170062 1.000000
v -0.922365 -0.424714 1.000000
v -0.827354 -0.170062 2.999958
v -0.922006 -0.424714 2.999958
v -1.002365 -0.424714 1.000000
v -1.002353 -0.424714 -0.923953
v -1.002006 -0.424714 2.999958
v -1.002353 -0.424714 -1.003953
v -0.922353 -0.424714 -1.003953
v 0.999999 -0.424713 -1.003963
v 2.997635 -0.424712 -1.003963
v -0.572703 -0.075411 2.999958
v -0.573063 -0.075411 1.000000
v -0.572703 0.004589 2.999958
v -0.573063 0.004589 1.000000
v -0.573062 0.004589 -0.574659
v 0.999999 0.004590 -0.574660
v 2.997634 0.004590 -0.574660
v 2.997634 -0.075410 -0.574660
v 3.000000 -0.168141 0.826572
v 3.000000 -0.073490 0.571920
v 3.000000 -0.422792 0.921223
v 0.830244 -0.168141 0.827130
v 0.924885 -0.422792 0.921771
v 1.004888 -0.422792 1.001774
v 0.924673 -0.422789 2.997220
v 0.830022 -0.168138 2.997220
v 0.575370 -0.073487 2.997220
v 0.575370 0.006513 2.997220
v 0.575593 -0.073490 0.572479
v 0.575593 0.006510 0.572479
v 3.000000 0.006510 0.571920
v 1.004673 -0.422789 2.997220
v 3.000000 -0.422792 1.001223
v 2.999999 0.000001 1.000000
v 3.000000 -1.999998 1.000000
v 0.999999 0.000001 1.000000
v 1.000000 -1.999999 1.000000
v -1.000001 0.000000 1.000000
v -1.000000 -2.000000 1.000000
v -1.000001 0.000000 3.000000
v -1.000000 -2.000000 3.000000
v -1.000001 0.000000 -1.000000
v -1.000000 -2.000000 -1.000000
v -1.000001 0.000000 1.000000
v -1.000000 -2.000000 1.000000
v 0.999999 0.000001 -1.000000
v 1.000000 -1.999999 -1.000000
v -1.000001 0.000000 -1.000000
v -1.000000 -2.000000 -1.000000
v 2.999999 0.000001 -1.000000
v 3.000000 -1.999998 -1.000000
v 0.999999 0.000001 -1.000000
v 0.999999 -1.999999 -1.000000
v 0.999999 0.000001 -1.000000
v -1.000001 0.000000 -1.000000
v 0.999999 0.000001 1.000000
v -1.000001 0.000000 1.000000
v 1.000000 -1.999999 -1.000000
v -1.000000 -2.000000 -1.000000
v 1.000000 -1.999999 1.000000
v -1.000000 -2.000000 1.000000
v 1.000000 0.000001 1.000000
v -1.000000 0.000000 1.000000
v 1.000000 0.000001 3.000000
v -1.000000 0.000000 3.000000
v 3.000000 0.000001 -1.000000
v 1.000000 0.000000 -1.000000
v 3.000000 0.000001 1.000000
v 1.000000 0.000000 1.000000
v 1.000000 -1.999999 1.000000
v -1.000000 -2.000000 1.000000
v 1.000000 -1.999999 3.000000
v -0.999999 -2.000000 3.000000
v 3.000000 -1.999998 -1.000000
v 1.000000 -1.999999 -1.000000
v 3.000000 -1.999998 1.000000
v 1.000000 -1.999999 1.000000
v 1.000000 0.000001 1.000000
v 1.000000 -1.999999 1.000000
v 1.000000 0.000001 3.000000
v 1.000000 -1.999999 3.000000
vt 0.907770 -0.000000
vt 0.907770 0.500280
vt 0.818193 0.500280
vt 1.000069 -0.000000
vt 1.000069 0.500280
vt 0.818193 -0.000000
vt 0.907770 0.500234
vt 0.907770 0.000000
vt 0.818193 0.000000
vt 1.000069 0.500234
vt 1.000069 0.000000
vt 0.818193 0.500234
vt 0.907770 0.500000
vt 0.907770 0.971920
vt 0.818193 0.890788
vt 0.818193 0.890639
vt 0.907770 0.972041
vt 0.907770 0.500000
vt 1.000069 0.500000
vt 1.000069 0.500000
vt 1.000069 1.000280
vt 1.000069 1.000038
vt 0.818193 0.500000
vt 0.818193 0.500000
vt 0.818193 0.500234
vt 0.818193 0.500000
vt 0.818193 -0.000000
vt 0.818193 0.890639
vt 1.000069 1.000280
vt 1.000069 0.500280
vt 1.000069 1.000038
vt 1.000069 0.500000
vt 1.000069 0.000000
vt 1.000069 1.000038
vt 1.000069 1.000038
vt 0.818193 0.000000
vt 0.818193 0.890788
vt 0.818193 0.500280
vt 0.818193 0.500000
vt 1.000069 0.500000
vt 1.000069 -0.000000
vt 1.000069 0.500234
vt 0.908741 0.947492
vt 0.979209 0.500003
vt 0.908750 0.500011
vt 0.838282 0.927977
vt 0.838290 0.500014
vt 0.908750 0.500011
vt 0.817529 0.911482
vt 0.838290 0.500014
vt 0.979209 0.500003
vt 0.999957 0.500003
vt 0.999957 0.999999
vt 0.979209 0.999999
vt 0.999957 0.500003
vt 0.817543 0.500016
vt 0.817543 0.500016
vt 0.907770 0.500000
vt 0.818193 0.500000
vt 0.818193 0.890788
vt 0.907770 -0.000000
vt 0.818193 0.500280
vt 0.907770 0.500280
vt 1.000069 0.500000
vt 0.907770 0.971920
vt 1.000069 -0.000000
vt 1.000069 0.500280
vt 0.818193 0.890639
vt 0.907770 0.500000
vt 0.907770 0.972041
vt 1.000069 0.500000
vt 1.000069 1.000038
vt 1.000069 1.000280
vt 1.000069 0.500234
vt 0.907770 0.500234
vt 0.907770 0.000000
vt 1.000069 0.000000
vt 1.000069 0.000000
vt 1.000069 1.000038
vt 1.000069 0.500234
vt 1.000069 0.500000
vt 1.000069 1.000038
vt 1.000069 1.000038
vt 1.000069 1.000280
vt 1.000069 0.500000
vt 1.000069 0.500280
vt 1.000069 -0.000000
vt 0.818193 0.000000
vt 0.818193 0.500234
vt 0.818193 0.000000
vt 0.818193 0.500234
vt 0.818193 0.500000
vt 0.818193 0.890639
vt 0.818193 0.500000
vt 0.818193 0.500000
vt 0.818193 0.890788
vt 0.818193 -0.000000
vt 0.818193 0.500280
vt 0.818193 -0.000000
vt 0.908741 0.947492
vt 0.908750 0.500011
vt 0.979209 0.500003
vt 0.838282 0.927977
vt 0.838290 0.500014
vt 0.908750 0.500011
vt 0.817529 0.911482
vt 0.838290 0.500014
vt 0.979209 0.500003
vt 0.999957 0.999999
vt 0.999957 0.500003
vt 0.979209 0.999999
vt 0.999957 0.500003
vt 0.817543 0.500016
vt 0.817543 0.500016
vt 1.000000 0.000000
vt 0.500000 0.000000
vt 0.500000 0.500000
vt 1.000000 0.500000
vt 1.000000 0.000000
vt 0.500000 0.500000
vt 0.500000 0.000000
vt 1.000000 0.500000
vt 1.000000 0.000000
vt 0.500000 0.500000
vt 0.500000 0.000000
vt 1.000000 0.500000
vt 1.000000 0.000000
vt 0.500000 0.500000
vt 0.500000 0.000000
vt 1.000000 0.500000
vt 1.000000 0.000000
vt 0.500000 0.500000
vt 0.500000 0.000000
vt 1.000000 0.500000
vt 0.500000 0.000000
vt 0.000000 0.500000
vt 0.000000 0.000000
vt 0.500000 0.500000
vt 0.500000 0.000000
vt 0.000000 0.000000
vt 0.000000 0.500000
vt 0.500000 0.500000
vt 0.500000 0.000000
vt 0.000000 0.500000
vt 0.000000 0.000000
vt 0.500000 0.500000
vt 0.500000 0.000000
vt 0.000000 0.500000
vt 0.000000 0.000000
vt 0.500000 0.500000
vt 0.500000 0.000000
vt 0.000000 0.000000
vt 0.000000 0.500000
vt 0.500000 0.500000
vt 0.500000 0.000000
vt 0.000000 0.000000
vt 0.000000 0.500000
vt 0.500000 0.500000
vt 1.000000 0.000000
vt 0.500000 0.500000
vt 0.500000 0.000000
vt 1.000000 0.500000
vn 0.0370 0.8066 0.5899
vn -0.4322 0.8453 0.3142
vn 0.2406 0.9207 0.3073
vn -0.0327 0.5635 0.8254
vn 0.2462 0.3377 0.9085
vn -0.3970 0.2686 0.8776
vn -0.2406 0.3073 0.9207
vn -0.0540 0.6913 0.7205
vn 0.5489 0.2912 0.7835
vn 0.2719 0.9142 0.3004
vn 0.0327 0.8254 0.5635
vn -0.2428 0.9093 0.3380
vn 0.5953 0.8026 -0.0380
vn 0.2912 0.7835 0.5489
vn 0.3073 0.9207 -0.2407
vn 0.8240 0.5657 0.0328
vn 0.9092 0.3380 -0.2430
vn 0.9143 0.3004 0.2718
vn 0.9202 0.3068 0.2430
vn 0.8066 0.5899 0.0368
vn 0.7869 0.2924 -0.5433
vn 0.2989 0.9128 -0.2785
vn 0.5635 0.8254 -0.0328
vn 0.3293 0.8857 0.3273
vn 0.0735 0.6969 0.7134
vn -0.4920 0.8657 0.0926
vn 0.1691 0.8499 0.4991
vn 0.5755 0.7967 0.1846
vn 0.0932 0.8656 -0.4919
vn 0.5939 0.8031 0.0478
vn 0.9212 0.3040 -0.2427
vn 0.7870 0.2925 0.5432
vn 0.5202 0.6441 -0.5608
vn -0.0362 0.5660 0.8236
vn 0.2913 0.8440 0.4503
vn -0.2143 -0.3793 0.9001
vn 0.8241 0.5653 -0.0360
vn 0.9003 -0.3787 -0.2144
vn 0.4508 0.8437 0.2914
vn -0.2436 0.3037 0.9211
vn -0.5614 0.6439 0.5198
vn 0.4006 0.3192 0.8588
vn 0.4259 0.8709 0.2453
vn -0.2410 0.9076 0.3437
vn 0.2884 0.9034 -0.3173
vn 0.2895 0.9162 0.2769
vn 0.3292 0.8857 -0.3273
vn 0.5656 0.8240 -0.0331
vn 1.0000 0.0000 -0.0002
vn 0.6362 0.0000 0.7715
vn -0.1913 0.9329 0.3052
vn 0.0000 0.0000 1.0000
vn -0.8247 -0.0000 0.5656
vn 0.0330 0.8240 0.5656
vn 0.6360 0.7707 -0.0391
vn 0.8946 -0.4463 0.0227
vn 0.2384 0.3052 0.9220
vn -0.0342 0.5685 0.8220
vn -0.0000 1.0000 0.0000
vn 0.5027 0.7029 0.5031
vn -0.0330 0.5656 0.8240
vn 0.8227 0.5685 -0.0000
vn -0.0342 0.5677 -0.8225
vn 0.8226 0.5677 0.0327
vn -0.0001 0.5656 -0.8247
vn -0.7112 0.7029 -0.0003
vn 0.0000 0.7029 -0.7112
vn 0.5654 -0.0330 -0.8241
vn 0.9329 0.1913 0.3052
vn 0.0000 -0.8946 0.4468
vn 0.8240 -0.0330 0.5656
vn 0.6360 -0.0392 -0.7707
vn 1.0000 0.0000 0.0000
vn 0.8946 -0.0227 -0.4463
vn -0.8220 0.5685 -0.0342
vn -0.8240 0.5656 -0.0330
vn 0.8225 0.5677 -0.0341
vn 0.5027 0.7029 0.5032
vn -0.0328 0.5677 0.8226
vn 0.3201 -0.8917 0.3201
vn 0.0001 -0.8809 0.4734
vn 0.0002 -0.5958 0.8031
vn 0.5678 -0.5962 0.5676
vn 0.0002 -0.7028 0.7114
vn 0.5677 -0.5963 0.5676
vn 0.5677 -0.5963 0.5675
vn 0.8031 -0.5958 0.0001
vn 0.3202 -0.8917 0.3201
vn 0.0000 -1.0000 -0.0000
vn 0.7114 -0.7028 0.0001
vn 0.5676 -0.5963 0.5676
vn 0.8031 -0.5958 0.0002
vn 0.5752 -0.8180 0.0001
vn 1.0000 0.0000 0.0001
vn 0.8944 0.0000 0.4472
vn 0.2933 -0.8551 0.4275
vn 0.5752 -0.8180 0.0000
vn 0.0002 0.0000 1.0000
vn 0.2934 -0.8551 0.4275
vn 0.0001 -0.8808 0.4734
vn 0.0000 -0.7028 0.7114
vn 0.0000 -0.6947 0.7193
vn -0.0000 -0.8247 0.5656
vn 0.2385 -0.9220 0.3052
vn -0.0000 -0.8057 0.5923
vn 0.0000 -0.5685 0.8227
vn 0.0000 -0.6948 0.7192
vn 0.4931 -0.7170 0.4927
vn 0.0000 -0.5656 0.8247
vn 0.2384 -0.9220 0.3052
vn 0.5977 -0.8017 -0.0000
vn 0.8232 -0.5677 -0.0001
vn 0.5031 -0.7030 0.5027
vn 0.5031 -0.7029 0.5027
vn 0.8232 -0.5677 -0.0002
vn 0.5977 -0.8017 -0.0001
vn 0.8057 -0.5923 -0.0001
vn 0.8057 -0.5923 -0.0002
vn 0.8247 -0.5656 -0.0002
vn 0.8247 -0.5656 -0.0003
vn 0.8232 -0.5677 -0.0000
vn 0.5031 -0.7029 0.5028
vn 0.5029 -0.7029 0.5029
vn 0.5032 -0.7029 0.5027
vn -0.0001 -0.5685 0.8227
vn 0.4674 -0.8840 -0.0001
vn 0.7071 -0.7071 -0.0001
vn 0.7071 -0.7071 0.0001
vn 0.8946 0.0000 0.4468
vn 1.0000 -0.0000 -0.0003
vn 0.2384 -0.9220 0.3051
vn 0.7071 -0.7071 -0.0000
vn 0.3201 0.8917 0.3201
vn 0.0003 0.5958 0.8031
vn 0.0001 0.8809 0.4734
vn 0.5678 0.5962 0.5676
vn 0.0002 0.7028 0.7114
vn 0.0002 0.5958 0.8031
vn 0.5677 0.5963 0.5676
vn 0.5677 0.5963 0.5675
vn 0.3202 0.8917 0.3201
vn 0.8031 0.5958 0.0001
vn 0.5676 0.5963 0.5676
vn 0.7114 0.7028 0.0001
vn 0.5752 0.8180 0.0000
vn 0.5752 0.8180 0.0001
vn 0.3202 0.8917 0.3200
vn 0.2933 0.8551 0.4275
vn 0.2934 0.8551 0.4275
vn 0.0001 0.8808 0.4734
vn 0.7114 0.7028 -0.0000
vn 0.0000 0.0000 -1.0000
usemtl Material.001
s off
f 4/1/1 1/2/2 2/3/3
f 5/4/4 3/5/5 1/2/6
f 5/4/7 1/2/8 4/1/9
f 4/1/10 2/3/11 6/6/12
f 10/7/13 7/8/14 8/9/15
f 11/10/16 9/11/17 7/8/18
f 11/10/19 7/8/20 10/7/21
f 10/7/22 8/9/23 12/12/24
f 1/13/25 13/14/26 14/15/27
f 14/16/28 13/17/29 10/18/30
f 11/19/31 10/18/32 13/17/33
f 3/20/34 15/21/35 13/14/36
f 11/19/37 13/17/38 15/22/39
f 3/20/40 13/14/41 1/13/42
f 1/13/43 14/15/44 2/23/12
f 14/16/45 10/18/46 12/24/47
f 8/9/48 19/25/49 12/12/50
f 14/15/51 16/26/52 2/23/53
f 2/3/54 17/27/52 6/6/53
f 12/24/55 20/28/56 14/16/57
f 3/20/58 23/29/59 15/21/60
f 5/4/61 21/30/59 3/5/62
f 11/19/63 26/31/59 25/32/59
f 11/10/64 24/33/59 9/11/65
f 26/31/59 15/22/66 27/34/59
f 27/34/59 15/22/67 23/35/59
f 8/9/68 18/36/49 19/25/49
f 14/15/69 20/37/70 16/26/52
f 2/3/71 16/38/52 17/27/52
f 12/24/72 19/39/73 20/28/74
f 3/20/75 21/40/59 23/29/59
f 5/4/76 22/41/59 21/30/59
f 11/19/77 15/22/78 26/31/59
f 11/10/79 25/42/59 24/33/59
f 31/43/80 29/44/81 28/45/82
f 32/46/83 28/45/82 30/47/84
f 32/46/85 31/43/80 28/45/82
f 32/46/86 35/48/87 31/43/88
f 30/47/84 33/49/89 32/46/86
f 34/50/90 32/46/91 33/49/89
f 32/46/86 34/50/90 35/48/87
f 31/43/88 35/48/92 36/51/93
f 36/51/93 37/52/94 39/53/95
f 31/43/88 36/51/93 38/54/96
f 36/51/97 39/53/95 38/54/96
f 38/54/96 39/53/95 40/55/98
f 38/54/99 40/55/98 29/44/100
f 31/43/80 38/54/96 29/44/81
f 34/50/90 33/49/89 41/56/89
f 30/47/101 42/57/89 33/49/89
f 43/58/102 44/59/103 48/60/104
f 46/61/105 44/62/103 43/63/102
f 45/64/106 43/58/107 49/65/108
f 47/66/109 43/63/107 45/67/106
f 47/66/109 46/61/105 43/63/107
f 43/58/102 48/60/104 49/65/108
f 48/68/110 51/69/111 49/70/108
f 52/71/112 50/72/113 49/70/108
f 45/64/106 49/65/108 50/73/114
f 52/71/112 49/70/108 51/69/111
f 52/74/115 51/75/116 53/76/117
f 52/74/112 53/76/118 54/77/119
f 52/74/112 54/77/120 57/78/89
f 52/71/121 56/79/89 50/72/114
f 52/74/112 57/78/89 55/80/89
f 52/71/121 55/81/89 56/79/89
f 56/79/89 58/82/89 50/72/122
f 58/82/89 59/83/89 50/72/123
f 45/64/106 50/73/124 59/84/89
f 45/64/125 59/84/89 60/85/89
f 47/66/109 60/86/89 61/87/89
f 47/66/109 45/67/106 60/86/89
f 51/75/111 62/88/126 53/76/118
f 51/75/116 63/89/127 62/88/126
f 63/89/127 64/90/49 62/88/126
f 63/89/128 65/91/49 64/90/49
f 63/92/127 66/93/129 65/94/130
f 48/60/104 67/95/52 66/96/129
f 63/92/127 48/68/131 66/93/129
f 44/62/103 68/97/52 67/98/52
f 48/60/110 44/59/103 67/95/52
f 44/62/103 69/99/103 68/97/52
f 46/61/105 69/99/103 44/62/103
f 48/68/104 63/92/132 51/69/116
f 73/100/133 70/101/134 71/102/135
f 74/103/136 72/104/137 70/101/138
f 74/103/139 70/101/138 73/100/133
f 74/103/140 73/100/141 77/105/142
f 72/104/137 74/103/143 75/106/59
f 76/107/144 75/106/59 74/103/140
f 74/103/140 77/105/142 76/107/144
f 73/100/141 78/108/145 77/105/142
f 78/108/146 81/109/95 79/110/94
f 73/100/147 80/111/148 78/108/146
f 78/108/145 80/111/148 81/109/95
f 80/111/148 82/112/98 81/109/95
f 80/111/149 71/102/150 82/112/98
f 73/100/133 71/102/135 80/111/148
f 76/107/151 83/113/59 75/106/59
f 72/104/137 75/106/59 84/114/59
f 87/115/152 85/116/152 86/117/152
f 87/115/152 86/117/152 88/118/152
f 91/119/73 90/120/73 89/121/73
f 91/119/73 92/122/73 90/120/73
f 95/123/73 94/124/73 93/125/73
f 95/123/73 96/126/73 94/124/73
f 99/127/52 98/128/52 97/129/52
f 99/127/52 100/130/52 98/128/52
f 103/131/52 102/132/52 101/133/52
f 103/131/52 104/134/52 102/132/52
f 107/135/89 106/136/89 105/137/89
f 107/135/89 108/138/89 106/136/89
f 111/139/59 109/140/59 110/141/59
f 111/139/59 110/141/59 112/142/59
f 115/143/89 114/144/89 113/145/89
f 115/143/89 116/146/89 114/144/89
f 119/147/89 118/148/89 117/149/89
f 119/147/89 120/150/89 118/148/89
f 123/151/59 121/152/59 122/153/59
f 123/151/59 122/153/59 124/154/59
f 127/155/59 125/156/59 126/157/59
f 127/155/59 126/157/59 128/158/59
f 131/159/73 130/160/73 129/161/73
f 131/159/73 132/162/73 130/160/73
