# Blender v2.83.5 OBJ File: 'turn_right.blend'
# www.blender.org
mtllib turn_right_wall.mtl
v 2.999999 -0.000002 -1.999999
v 2.999999 -2.000002 -1.999998
v 0.999999 -0.000002 -2.000000
v 0.999999 -2.000001 -1.999998
v -1.000001 -0.000001 -2.000000
v -1.000001 -2.000001 -1.999999
v -1.000001 0.000001 -0.000000
v -1.000001 -1.999999 0.000002
v -1.000000 -0.000003 -4.000000
v -1.000001 -2.000003 -3.999998
v -1.000001 -0.000001 -2.000000
v -1.000001 -2.000001 -1.999999
v 0.999999 -0.000004 -4.000000
v 0.999999 -2.000003 -3.999998
v -1.000000 -0.000003 -4.000000
v -1.000001 -2.000003 -3.999998
v 2.999999 -0.000004 -4.000000
v 2.999999 -2.000003 -3.999998
v 0.999999 -0.000004 -4.000000
v 0.999999 -2.000003 -3.999998
v 0.999999 -0.000002 -2.000000
v 0.999999 -2.000001 -1.999998
v 0.999999 0.000000 -0.000000
v 0.999999 -1.999999 0.000002
vt 1.000000 0.000000
vt 0.500000 0.000000
vt 0.500000 0.500000
vt 1.000000 0.500000
vt 1.000000 0.000000
vt 0.500000 0.500000
vt 0.500000 0.000000
vt 1.000000 0.500000
vt 1.000000 0.000000
vt 0.500000 0.500000
vt 0.500000 0.000000
vt 1.000000 0.500000
vt 1.000000 0.000000
vt 0.500000 0.500000
vt 0.500000 0.000000
vt 1.000000 0.500000
vt 1.000000 0.000000
vt 0.500000 0.500000
vt 0.500000 0.000000
vt 1.000000 0.500000
vt 1.000000 0.000000
vt 0.500000 0.500000
vt 0.500000 0.000000
vt 1.000000 0.500000
vn 0.0000 -0.0000 -1.0000
vn 1.0000 -0.0000 0.0000
vn 0.0000 0.0000 1.0000
usemtl Material.001
s off
f 3/1/1 1/2/1 2/3/1
f 3/1/1 2/3/1 4/4/1
f 7/5/2 6/6/2 5/7/2
f 7/5/2 8/8/2 6/6/2
f 11/9/2 10/10/2 9/11/2
f 11/9/2 12/12/2 10/10/2
f 15/13/3 14/14/3 13/15/3
f 15/13/3 16/16/3 14/14/3
f 19/17/3 18/18/3 17/19/3
f 19/17/3 20/20/3 18/18/3
f 23/21/2 22/22/2 21/23/2
f 23/21/2 24/24/2 22/22/2
