# Blender v2.83.5 OBJ File: 'turn_right.blend'
# www.blender.org
v 3.000000 0.000002 -0.999999
v 1.000000 0.000001 -0.999999
v 3.000000 -0.000000 1.000001
v 1.000000 -0.000001 1.000001
vt 0.499597 0.500445
vt 0.000000 1.000000
vt 0.000000 0.500445
vt 0.499597 1.000000
vn 0.0000 -1.0000 -0.0000
s off
f 3/1/1 2/2/1 1/3/1
f 3/1/1 4/4/1 2/2/1
v 0.999999 0.000002 -0.999999
v -1.000000 0.000001 -1.000000
v 0.999999 -0.000000 1.000001
v -1.000001 -0.000001 1.000000
vt 0.499597 0.500445
vt 0.000000 1.000000
vt 0.000000 0.500445
vt 0.499597 1.000000
vn 0.0000 -1.0000 -0.0000
s off
f 7/5/2 6/6/2 5/7/2
f 7/5/2 8/8/2 6/6/2
v 0.999999 -0.000000 1.000001
v -1.000000 -0.000001 1.000000
v 0.999999 -0.000002 3.000001
v -1.000001 -0.000002 2.999958
vt 0.499597 0.500445
vt 0.000000 1.000000
vt 0.000000 0.500445
vt 0.499597 1.000000
vn 0.0000 -1.0000 -0.0000
s off
f 11/9/3 10/10/3 9/11/3
f 10/10/3 11/9/3 12/12/3
v 1.000000 -0.173974 -0.829311
v 1.000000 -0.079323 -0.574659
v 1.000000 -0.428625 -0.923962
v -0.573061 -0.079323 -0.574660
v -0.827713 -0.173975 -0.829311
v -0.922353 -0.428626 -0.923954
v -0.827713 -0.173976 1.000000
v -0.922365 -0.428627 1.000000
v -1.002365 -0.428627 1.000000
v -1.002353 -0.428626 -0.923954
v -1.002353 -0.428626 -1.003953
v -0.922353 -0.428626 -1.003953
v 1.000000 -0.428625 -1.003962
v -0.573062 -0.079325 1.000000
v -0.573062 0.000675 1.000000
v -0.573061 0.000677 -0.574660
v 1.000000 0.000677 -0.574659
vt 0.885228 0.999999
vt 0.793979 0.609365
vt 0.794000 1.000000
vt 0.975000 1.000001
vt 0.885206 0.528887
vt 0.885228 0.999999
vt 0.975000 0.501155
vt 0.975000 1.000001
vt 1.000000 0.501158
vt 1.000000 1.000001
vt 1.000045 0.524460
vt 1.000000 0.501158
vt 1.000000 1.000000
vt 0.794000 1.000000
vt 0.768725 1.000000
vt 0.768737 0.609365
vt 0.768724 1.000000
vn 0.4259 0.8197 -0.3831
vn -0.2410 0.9118 -0.3326
vn -0.2428 0.9093 -0.3380
vn -0.2436 0.3716 -0.8959
vn -0.5614 -0.1481 -0.8142
vn 0.4006 0.3192 -0.8588
vn 0.0735 0.9937 0.0850
vn -0.4920 0.7160 -0.4953
vn 0.1691 0.9695 -0.1771
vn -0.0846 0.9792 0.1846
vn -0.4948 0.7164 -0.4919
vn -0.0748 0.9960 0.0478
vn -0.0362 0.1093 -0.9934
vn 0.2913 -0.3451 -0.8922
vn -0.2143 0.8751 -0.4340
vn -0.9933 0.1102 -0.0360
vn -0.4345 0.8748 -0.2144
vn -0.8924 -0.3445 0.2913
vn -0.8962 0.3715 -0.2427
vn -0.7870 0.2925 0.5432
vn -0.8146 -0.1479 -0.5608
vn 0.8225 0.5677 -0.0341
vn 0.5027 0.7029 0.5032
vn -0.0000 1.0000 0.0000
vn -0.0342 0.5677 -0.8225
vn -0.7112 0.7029 -0.0003
vn -0.0000 0.7029 -0.7112
vn -0.0342 0.5685 0.8220
vn 0.5027 0.7029 0.5031
vn -0.8220 0.5685 -0.0342
vn -0.3717 0.8724 -0.3173
vn -0.3792 0.8829 0.2769
vn -0.3292 0.8857 -0.3273
vn -0.6360 0.0392 -0.7707
vn -1.0000 0.0000 -0.0000
vn -0.8946 0.0227 -0.4463
vn -0.6360 -0.7707 -0.0391
vn -0.8946 0.4463 0.0227
vn -0.2384 -0.3052 0.9220
vn 0.9329 -0.1913 -0.3052
vn 0.0000 0.8946 -0.4468
vn 0.0000 0.0000 -1.0000
vn -0.1913 -0.9329 -0.3052
vn -0.8247 0.0000 -0.5656
s off
f 13/13/4 16/14/5 14/15/6
f 15/16/7 17/17/8 13/13/9
f 13/13/10 17/17/11 16/14/12
f 16/14/13 17/17/14 19/18/15
f 15/16/16 18/19/17 17/17/18
f 20/20/19 17/17/20 18/19/21
f 20/20/22 19/18/23 17/17/24
f 20/20/25 18/19/26 22/21/27
f 20/20/28 22/21/27 21/22/27
f 22/21/27 18/19/29 23/23/27
f 23/23/27 18/19/30 24/24/27
f 15/16/31 24/24/27 18/19/32
f 15/16/33 25/25/27 24/24/27
f 16/14/34 19/18/35 26/26/36
f 26/26/37 27/27/38 28/28/39
f 26/26/40 28/28/41 16/14/42
f 16/14/43 28/28/44 29/29/45
f 16/14/46 29/29/45 14/15/47
v 1.000000 -0.173974 -0.829310
v 1.000000 -0.079323 -0.574659
v 1.000000 -0.428625 -0.923962
v 2.997635 -0.173973 -0.829310
v 2.997635 -0.428625 -0.923962
v 1.000000 -0.428625 -1.003962
v 2.997635 -0.428624 -1.003961
v 2.997635 -0.079322 -0.574658
v 2.997635 0.000678 -0.574658
v 1.000000 0.000677 -0.574659
vt 0.885259 0.501155
vt 0.885228 0.999999
vt 0.793999 1.000000
vt 0.975000 0.501155
vt 0.975000 1.000001
vt 1.000000 0.501158
vt 1.000000 1.000000
vt 0.793979 0.501277
vt 0.768723 0.501276
vt 0.768723 1.000000
vn 0.0370 0.9961 -0.0801
vn -0.4322 0.8453 -0.3142
vn 0.2406 0.8979 -0.3686
vn -0.0327 0.1124 -0.9931
vn 0.2462 0.3377 -0.9085
vn -0.3970 0.3698 -0.8400
vn -0.2406 0.3686 -0.8979
vn -0.0540 -0.0529 -0.9971
vn 0.5489 0.2912 -0.7835
vn -0.8240 0.5656 -0.0330
vn -0.0000 1.0000 0.0000
vn -0.0330 0.5656 0.8240
vn 0.8227 0.5685 0.0000
vn 0.2719 0.8885 -0.3697
vn 0.0327 0.9931 -0.1124
vn -0.2428 0.9093 -0.3380
vn 0.0330 -0.8240 -0.5656
vn 0.0000 0.0000 -1.0000
vn -0.8247 0.0000 -0.5656
vn 0.8240 0.0330 -0.5656
s off
f 33/30/48 30/31/49 31/32/50
f 34/33/51 32/34/52 30/31/53
f 34/33/54 30/31/55 33/30/56
f 34/33/57 36/35/58 35/36/58
f 34/33/59 35/36/58 32/34/60
f 33/30/61 31/32/62 37/37/63
f 31/32/64 38/38/65 37/37/66
f 31/32/67 39/39/65 38/38/65
v -0.827714 -0.173975 1.002364
v -0.573062 -0.079324 1.002365
v -0.922365 -0.428627 1.002364
v -0.827714 -0.173977 3.000000
v -0.922366 -0.428628 3.000000
v -1.002365 -0.428627 1.002364
v -1.002366 -0.428628 3.000000
v -0.573063 -0.079326 3.000000
v -0.573063 0.000674 3.000000
v -0.573062 0.000676 1.002365
vt 0.885238 0.501155
vt 0.885206 0.999999
vt 0.794000 0.999999
vt 0.975000 0.501155
vt 0.975000 1.000001
vt 1.000000 1.000001
vt 1.000000 0.501158
vt 0.793979 0.501277
vt 0.768702 0.501276
vt 0.768723 1.000000
vn 0.5899 -0.8066 0.0370
vn 0.3142 -0.8453 -0.4322
vn 0.3073 -0.9207 0.2406
vn 0.8254 -0.5635 -0.0327
vn 0.9085 -0.3377 0.2462
vn 0.8776 -0.2686 -0.3970
vn 0.9207 -0.3073 -0.2406
vn 0.7205 -0.6913 -0.0540
vn 0.7835 -0.2912 0.5489
vn 0.8240 -0.5656 -0.0330
vn 0.0000 -1.0000 -0.0000
vn 0.0000 -0.5685 0.8227
vn -0.0330 -0.5656 -0.8240
vn 0.3004 -0.9142 0.2719
vn 0.5635 -0.8254 0.0327
vn 0.3380 -0.9093 -0.2428
vn 0.5656 -0.8240 0.0330
vn 1.0000 0.0000 0.0000
vn 0.5656 0.0000 -0.8247
vn 0.5656 0.0330 0.8240
s off
f 43/40/68 40/41/69 41/42/70
f 44/43/71 42/44/72 40/41/73
f 44/43/74 40/41/75 43/40/76
f 44/43/77 45/45/78 42/44/79
f 44/43/80 46/46/78 45/45/78
f 43/40/81 41/42/82 47/47/83
f 41/42/84 48/48/85 47/47/86
f 41/42/87 49/49/85 48/48/85
v 2.999999 -0.222394 0.826575
v 2.999999 -0.127742 0.571923
v 2.999999 -0.477045 0.921226
v 0.830244 -0.222395 0.827132
v 0.924885 -0.477047 0.921773
v 1.004888 -0.477047 1.001776
v 0.924672 -0.477049 2.997221
v 0.830020 -0.222398 2.997222
v 0.575369 -0.127747 2.997222
v 0.575369 -0.047747 2.997222
v 0.575593 -0.127744 0.572481
v 0.575593 -0.047744 0.572481
v 2.999999 -0.047742 0.571924
v 1.004672 -0.477050 2.997221
v 2.999999 -0.477046 1.001226
vt 0.885228 0.947492
vt 0.885206 0.501166
vt 0.793979 0.501277
vt 0.975000 0.927977
vt 0.975000 0.501155
vt 0.975244 0.927977
vt 0.885206 0.501166
vt 1.000000 0.911482
vt 0.975000 0.501155
vt 0.793979 0.501277
vt 0.768723 1.000000
vt 0.768737 0.501280
vt 0.794000 1.000000
vt 0.768737 0.501279
vt 1.000000 0.501158
vt 1.000000 0.501158
vn 0.3190 0.8982 0.3025
vn 0.5453 0.7857 0.2921
vn -0.1357 0.9226 0.3611
vn 0.6099 -0.0088 0.7924
vn -0.4107 0.3177 0.8546
vn 0.2766 0.3685 0.8875
vn 0.0681 0.8851 0.4603
vn 0.0364 0.0757 0.9965
vn -0.5785 -0.2937 0.7610
vn 0.4605 0.8851 0.0681
vn 0.7609 -0.2938 -0.5786
vn 0.9965 0.0756 0.0363
vn -0.0287 0.7028 -0.7108
vn 0.8028 0.5963 -0.0001
vn -0.0000 1.0000 0.0000
vn -0.7108 0.7028 -0.0286
vn -0.0001 0.5963 0.8028
vn 0.7926 -0.0088 0.6096
vn 0.8876 0.3685 0.2764
vn 0.8546 0.3176 -0.4108
vn 0.3026 0.8982 0.3189
vn 0.3665 0.8956 -0.2522
vn 0.2922 0.7857 0.5453
vn 0.5753 0.0270 -0.8175
vn 0.8944 -0.0147 0.4469
vn 1.0000 0.0000 0.0001
vn 0.1308 0.9621 -0.2394
vn 0.6219 0.7330 0.2757
vn 0.1005 0.9944 -0.0316
vn 0.5752 -0.8175 -0.0269
vn 0.2933 0.4275 0.8551
vn 0.8945 -0.4469 -0.0147
vn 0.8451 0.3212 0.4274
vn 0.0002 -0.0000 1.0000
vn 0.0001 -0.8943 0.4474
vn 0.3214 -0.8450 0.4275
vn -0.8807 -0.0000 0.4736
vn -0.2394 0.9621 0.1307
vn -0.0170 0.9759 0.2177
vn 0.2757 0.8409 0.4656
vn 0.0285 0.7028 -0.7108
vn -0.7108 0.7028 0.0287
s off
f 53/50/88 50/51/89 51/52/90
f 54/53/91 52/54/92 50/51/93
f 54/53/94 50/51/95 53/50/96
f 54/55/97 53/50/98 57/56/99
f 52/54/100 54/53/101 55/57/102
f 56/58/103 55/57/102 54/55/104
f 54/55/105 57/56/106 56/58/107
f 53/50/108 58/59/109 57/56/110
f 58/59/111 61/60/112 59/61/113
f 53/50/114 60/62/115 58/59/116
f 58/59/117 60/62/118 61/60/119
f 60/62/120 62/63/121 61/60/122
f 60/62/123 51/52/124 62/63/121
f 53/50/125 51/52/126 60/62/127
f 56/58/128 63/64/102 55/57/102
f 52/54/129 55/57/102 64/65/102
