# Blender v2.83.5 OBJ File: 'turn_right.blend'
# www.blender.org
mtllib turn_right_wall.mtl
o Plane.001
v 3.000000 -1.826672 -2.173427
v 3.000000 -1.921323 -2.428078
v 3.000000 -1.572020 -2.078775
v 0.830245 -1.826672 -2.172869
v 0.924886 -1.572021 -2.078228
v 1.004889 -1.572021 -1.998225
v 0.924673 -1.572021 -0.002780
v 0.830022 -1.826673 -0.002780
v 0.575370 -1.921324 -0.002780
v 0.575370 -2.001324 -0.002780
v 0.575594 -1.921323 -2.427521
v 0.575594 -2.001323 -2.427521
v 3.000000 -2.001323 -2.428079
v 1.004673 -1.572021 -0.002780
v 3.000000 -1.572020 -1.998776
v 1.000001 -1.832369 -3.829312
v 1.000001 -1.927021 -3.574661
v 1.000001 -1.577718 -3.923963
v 2.997637 -1.832368 -3.829312
v 2.997637 -1.577717 -3.923963
v 2.997637 -1.927020 -3.574660
v -0.827354 -1.832373 -0.000044
v -0.572702 -1.927024 -0.000044
v -0.922005 -1.577722 -0.000044
v -0.827712 -1.832371 -2.000002
v -0.922363 -1.577720 -2.000001
v -0.573061 -1.927023 -2.000002
v -0.827711 -1.832369 -3.829313
v -0.573060 -1.927021 -3.574661
v -0.922351 -1.577718 -3.923954
v 1.000001 -2.007021 -3.574661
v 2.997637 -2.007020 -3.574660
v -0.572702 -2.007025 -0.000044
v -0.573061 -2.007023 -2.000002
v -0.573060 -2.007021 -3.574661
v 1.000001 -1.577717 -4.003963
v 2.997637 -1.577717 -4.003963
v -0.922351 -1.577718 -4.003955
v -1.002005 -1.577722 -0.000044
v -1.002363 -1.577720 -2.000001
v -1.002351 -1.577718 -3.923954
v -1.002351 -1.577718 -4.003955
v 1.000002 -1.999995 -4.000001
v -0.999998 -1.999996 -4.000002
v 1.000001 -1.999997 -2.000001
v -0.999999 -1.999998 -2.000002
v 1.000001 -1.999997 -2.000001
v -0.999999 -1.999998 -2.000002
v 1.000000 -1.999999 -0.000001
v -0.999999 -2.000000 -0.000002
v 3.000002 -1.999995 -4.000001
v 1.000002 -1.999995 -4.000001
v 3.000001 -1.999996 -2.000001
v 1.000001 -1.999997 -2.000001
vt 0.908741 0.947492
vt 0.908750 0.500011
vt 0.979209 0.500003
vt 0.838282 0.927977
vt 0.838290 0.500014
vt 0.908750 0.500011
vt 0.817529 0.911482
vt 0.838290 0.500014
vt 0.979209 0.500003
vt 0.999957 0.999999
vt 0.999957 0.500003
vt 0.979209 0.999999
vt 0.999957 0.500003
vt 0.817543 0.500016
vt 0.817543 0.500016
vt 0.725894 0.500000
vt 0.725894 1.000280
vt 0.636317 1.000280
vt 0.818193 0.500000
vt 0.818193 1.000280
vt 0.636317 0.500000
vt 0.725894 1.000280
vt 0.725894 0.500047
vt 0.636317 0.500047
vt 0.818193 1.000280
vt 0.818193 0.500047
vt 0.636317 1.000280
vt 0.907770 0.500000
vt 0.907770 0.971920
vt 0.818193 0.890788
vt 0.818193 0.890639
vt 0.907770 0.972041
vt 0.907770 0.500000
vt 1.000069 0.500000
vt 1.000069 0.500000
vt 1.000069 1.000280
vt 1.000069 1.000038
vt 0.818193 0.500000
vt 0.818193 0.500000
vt 0.636317 1.000280
vt 0.818193 0.500000
vt 0.636317 0.500000
vt 0.818193 0.890639
vt 1.000069 1.000280
vt 0.818193 1.000280
vt 1.000069 1.000038
vt 1.000069 0.500000
vt 0.818193 0.500047
vt 1.000069 1.000038
vt 1.000069 1.000038
vt 0.636317 0.500047
vt 0.818193 0.890788
vt 0.636317 1.000280
vt 0.818193 0.500000
vt 1.000069 0.500000
vt 0.818193 0.500000
vt 0.818193 1.000280
vt 0.500000 0.000000
vt 0.000000 0.000000
vt 0.000000 0.500000
vt 0.500000 0.500000
vt 0.500000 0.000000
vt 0.000000 0.000000
vt 0.000000 0.500000
vt 0.500000 0.500000
vt 0.500000 0.000000
vt 0.000000 0.000000
vt 0.000000 0.500000
vt 0.500000 0.500000
vn 0.3188 0.8778 -0.3576
vn 0.5451 0.7858 -0.2921
vn -0.1358 0.9345 -0.3292
vn 0.6095 0.5243 -0.5946
vn -0.4112 0.3176 -0.8544
vn 0.2761 0.3007 -0.9129
vn 0.0678 -0.3695 -0.9268
vn 0.0360 0.5936 -0.8039
vn -0.5788 0.7194 -0.3840
vn -0.9268 -0.3695 0.0680
vn -0.3842 0.7194 -0.5787
vn -0.8040 0.5936 0.0361
vn -0.0287 0.7028 -0.7108
vn 0.8028 0.5963 -0.0001
vn -0.0000 1.0000 0.0000
vn -0.7108 0.7028 -0.0286
vn -0.0001 0.5963 0.8028
vn -0.5946 0.5244 0.6095
vn -0.9128 0.3007 0.2762
vn -0.8545 0.3176 -0.4110
vn -0.3576 0.8778 0.3188
vn -0.3074 0.9175 -0.2522
vn -0.2920 0.7858 0.5452
vn -0.5752 -0.0270 -0.8176
vn -0.8945 0.0147 0.4468
vn -1.0000 0.0000 -0.0001
vn -0.5752 0.8175 -0.0270
vn -0.2934 -0.4275 0.8551
vn -0.8945 0.4469 -0.0148
vn -0.5293 0.8139 -0.2395
vn -0.0078 0.9612 0.2756
vn -0.5734 0.8187 -0.0316
vn 0.8449 -0.3212 -0.4278
vn -0.0002 0.0000 -1.0000
vn -0.0001 0.8943 -0.4474
vn 0.3212 0.8450 -0.4276
vn -0.8810 0.0000 -0.4732
vn -0.2396 0.8139 -0.5293
vn -0.0171 0.8812 -0.4724
vn 0.2755 0.9410 -0.1965
vn 0.0285 0.7028 -0.7108
vn -0.7108 0.7028 0.0287
vn 0.0370 0.8066 0.5899
vn -0.4322 0.8453 0.3142
vn 0.2406 0.9207 0.3073
vn -0.0327 0.5635 0.8254
vn 0.2462 0.3377 0.9085
vn -0.3970 0.2686 0.8776
vn -0.2406 0.3073 0.9207
vn -0.0540 0.6913 0.7205
vn 0.5489 0.2912 0.7835
vn 0.2719 0.9142 0.3004
vn 0.0327 0.8254 0.5635
vn -0.2428 0.9093 0.3380
vn 0.5953 0.8026 -0.0380
vn 0.2912 0.7835 0.5489
vn 0.3073 0.9207 -0.2407
vn 0.8240 0.5657 0.0328
vn 0.9092 0.3380 -0.2430
vn 0.9143 0.3004 0.2718
vn 0.9202 0.3068 0.2430
vn 0.8066 0.5899 0.0368
vn 0.7869 0.2924 -0.5433
vn 0.2989 0.9128 -0.2785
vn 0.5635 0.8254 -0.0328
vn 0.3293 0.8857 0.3273
vn 0.0735 0.6969 0.7134
vn -0.4920 0.8657 0.0926
vn 0.1691 0.8499 0.4991
vn 0.5755 0.7967 0.1846
vn 0.0932 0.8656 -0.4919
vn 0.5939 0.8031 0.0478
vn 0.9212 0.3040 -0.2427
vn 0.7870 0.2925 0.5432
vn 0.5202 0.6441 -0.5608
vn -0.0362 0.5660 0.8236
vn 0.2913 0.8440 0.4503
vn -0.2143 -0.3793 0.9001
vn 0.8241 0.5653 -0.0360
vn 0.9003 -0.3787 -0.2144
vn 0.4508 0.8437 0.2914
vn -0.2436 0.3037 0.9211
vn -0.5614 0.6439 0.5198
vn 0.4006 0.3192 0.8588
vn 0.4259 0.8709 0.2453
vn -0.2410 0.9076 0.3437
vn 0.2884 0.9034 -0.3173
vn 0.2895 0.9162 0.2769
vn 0.3292 0.8857 -0.3273
vn 0.5656 0.8240 -0.0331
vn 1.0000 0.0000 -0.0002
vn 0.6362 -0.0000 0.7715
vn -0.1913 0.9329 0.3052
vn -0.0000 0.0000 1.0000
vn -0.8247 -0.0000 0.5656
vn 0.0330 0.8240 0.5656
vn 0.6360 0.7707 -0.0391
vn 0.8946 -0.4463 0.0227
vn 0.2384 0.3052 0.9220
vn -0.0342 0.5685 0.8220
vn 0.5027 0.7029 0.5031
vn -0.0330 0.5656 0.8240
vn 0.8227 0.5685 0.0000
vn -0.0342 0.5677 -0.8225
vn 0.8226 0.5677 0.0327
vn -0.0001 0.5656 -0.8247
vn -0.7112 0.7029 -0.0003
vn -0.0000 0.7029 -0.7112
vn 0.5654 -0.0330 -0.8241
vn 0.9329 0.1913 0.3052
vn 0.0000 -0.8946 0.4468
vn 0.8240 -0.0330 0.5656
vn 0.6360 -0.0392 -0.7707
vn 1.0000 0.0000 0.0000
vn 0.8946 -0.0227 -0.4463
vn -0.8220 0.5685 -0.0342
vn -0.8240 0.5656 -0.0330
vn 0.8225 0.5677 -0.0341
vn 0.5027 0.7029 0.5032
vn -0.0328 0.5677 0.8226
usemtl Material.001
s off
f 4/1/1 1/2/2 2/3/3
f 5/4/4 3/5/5 1/2/6
f 5/4/7 1/2/8 4/1/9
f 5/4/10 4/1/11 8/6/12
f 3/5/13 5/4/14 6/7/15
f 7/8/16 6/7/15 5/4/17
f 5/4/18 8/6/19 7/8/20
f 4/1/21 9/9/22 8/6/23
f 9/9/24 12/10/25 10/11/26
f 9/9/27 11/12/28 12/10/29
f 4/1/30 11/12/31 9/9/32
f 11/12/33 13/13/34 12/10/35
f 11/12/36 2/3/37 13/13/34
f 4/1/38 2/3/39 11/12/40
f 7/8/41 14/14/15 6/7/15
f 3/5/42 6/7/15 15/15/15
f 19/16/43 16/17/44 17/18/45
f 20/19/46 18/20/47 16/17/48
f 20/19/49 16/17/50 19/16/51
f 19/16/52 17/18/53 21/21/54
f 25/22/55 22/23/56 23/24/57
f 26/25/58 24/26/59 22/23/60
f 26/25/61 22/23/62 25/22/63
f 25/22/64 23/24/65 27/27/66
f 16/28/67 28/29/68 29/30/69
f 29/31/70 28/32/71 25/33/72
f 26/34/73 25/33/74 28/32/75
f 18/35/76 30/36/77 28/29/78
f 26/34/79 28/32/80 30/37/81
f 18/35/82 28/29/83 16/28/84
f 16/28/85 29/30/86 17/38/54
f 29/31/87 25/33/88 27/39/89
f 23/24/90 34/40/91 27/27/92
f 29/30/93 31/41/94 17/38/95
f 17/18/96 32/42/94 21/21/95
f 27/39/97 35/43/98 29/31/99
f 18/35/100 38/44/15 30/36/101
f 20/19/102 36/45/15 18/20/103
f 26/34/104 41/46/15 40/47/15
f 26/25/105 39/48/15 24/26/106
f 41/46/15 30/37/107 42/49/15
f 42/49/15 30/37/108 38/50/15
f 23/24/109 33/51/91 34/40/91
f 29/30/110 35/52/111 31/41/94
f 17/18/112 31/53/94 32/42/94
f 27/39/113 34/54/114 35/43/115
f 18/35/116 36/55/15 38/44/15
f 20/19/117 37/56/15 36/45/15
f 26/34/118 30/37/119 41/46/15
f 26/25/120 40/57/15 39/48/15
f 45/58/15 43/59/15 44/60/15
f 45/58/15 44/60/15 46/61/15
f 49/62/15 47/63/15 48/64/15
f 49/62/15 48/64/15 50/65/15
f 53/66/15 51/67/15 52/68/15
f 53/66/15 52/68/15 54/69/15
o Plane.004
v 3.000000 -0.168139 -2.173427
v 3.000000 -0.073488 -2.428078
v 3.000000 -0.422790 -2.078776
v 0.830245 -0.168139 -2.172869
v 0.924886 -0.422790 -2.078229
v 1.004889 -0.422790 -1.998226
v 0.924673 -0.422789 -0.002780
v 0.830022 -0.168138 -0.002780
v 0.575370 -0.073487 -0.002780
v 0.575370 0.006513 -0.002780
v 0.575594 -0.073487 -2.427520
v 0.575594 0.006513 -2.427520
v 3.000000 0.006512 -2.428078
v 1.004673 -0.422790 -0.002780
v 3.000000 -0.422790 -1.998776
v 1.000000 -0.170058 -3.829311
v 1.000000 -0.075407 -3.574659
v 1.000001 -0.424709 -3.923962
v 2.997636 -0.170058 -3.829310
v 2.997636 -0.424709 -3.923962
v -0.573060 -0.075408 -3.574659
v -0.827712 -0.170059 -3.829311
v -0.922352 -0.424710 -3.923953
v -0.827713 -0.170060 -2.000000
v -0.922364 -0.424712 -2.000001
v -0.827354 -0.170062 -0.000043
v -0.922005 -0.424714 -0.000043
v -1.002364 -0.424712 -2.000001
v -1.002352 -0.424710 -3.923953
v -1.002005 -0.424714 -0.000043
v -1.002352 -0.424710 -4.003954
v -0.922352 -0.424710 -4.003954
v 1.000001 -0.424709 -4.003963
v 2.997636 -0.424709 -4.003962
v -0.572703 -0.075411 -0.000042
v -0.573061 -0.075409 -2.000000
v -0.572703 0.004589 -0.000042
v -0.573061 0.004591 -2.000000
v -0.573060 0.004592 -3.574659
v 1.000000 0.004593 -3.574659
v 2.997636 0.004594 -3.574658
v 2.997636 -0.075407 -3.574658
v 1.000000 0.000004 -4.000000
v -0.999999 0.000004 -4.000000
v 1.000000 0.000003 -1.999999
v -1.000000 0.000002 -2.000000
v 1.000000 0.000003 -1.999999
v -0.999999 0.000002 -2.000000
v 0.999999 0.000001 0.000001
v 3.000001 0.000005 -3.999999
v 1.000001 0.000004 -4.000000
v 3.000001 0.000003 -1.999999
v 1.000000 0.000002 -1.999999
v -1.000000 0.000001 -0.000042
vt 0.908741 0.947492
vt 0.979209 0.500003
vt 0.908750 0.500011
vt 0.838282 0.927977
vt 0.838290 0.500014
vt 0.908750 0.500011
vt 0.817529 0.911482
vt 0.838290 0.500014
vt 0.979209 0.500003
vt 0.999957 0.500003
vt 0.999957 0.999999
vt 0.979209 0.999999
vt 0.999957 0.500003
vt 0.817543 0.500016
vt 0.817543 0.500016
vt 0.725894 0.500001
vt 0.636317 1.000281
vt 0.725894 1.000281
vt 0.907770 0.500000
vt 0.818193 0.500000
vt 0.818193 0.890788
vt 0.818193 0.500001
vt 0.818193 1.000281
vt 1.000069 0.500000
vt 0.907770 0.971920
vt 0.818193 0.890639
vt 0.907770 0.500000
vt 0.907770 0.972041
vt 1.000069 1.000280
vt 1.000069 0.500000
vt 1.000069 1.000038
vt 0.818193 1.000234
vt 0.725894 0.500001
vt 0.818193 0.500001
vt 0.725894 1.000234
vt 0.818193 0.500001
vt 1.000069 1.000038
vt 1.000069 0.500000
vt 0.818193 1.000234
vt 1.000069 1.000038
vt 1.000069 1.000038
vt 1.000069 1.000280
vt 1.000069 0.500000
vt 0.818193 1.000281
vt 0.818193 0.500001
vt 0.636317 0.500001
vt 0.636317 1.000234
vt 0.636317 0.500001
vt 0.636317 1.000234
vt 0.818193 0.500000
vt 0.818193 0.890639
vt 0.818193 0.500000
vt 0.818193 0.500000
vt 0.818193 0.890788
vt 0.636317 0.500001
vt 0.636317 1.000281
vt 0.636317 0.500001
vt 0.500000 0.000000
vt 0.000000 0.500000
vt 0.000000 0.000000
vt 0.500000 0.500000
vt 0.500000 0.000000
vt 0.000000 0.500000
vt 0.000000 0.000000
vt 0.500000 0.000000
vt 0.000000 0.500000
vt 0.000000 0.000000
vt 0.500000 0.500000
vt 0.500000 0.500000
vn 0.3188 -0.8778 -0.3576
vn -0.1358 -0.9344 -0.3292
vn 0.5451 -0.7858 -0.2920
vn 0.6095 -0.5243 -0.5946
vn 0.2761 -0.3007 -0.9129
vn -0.4112 -0.3176 -0.8544
vn 0.0678 0.3695 -0.9268
vn -0.5788 -0.7194 -0.3840
vn 0.0360 -0.5936 -0.8039
vn -0.9268 0.3695 0.0680
vn -0.8040 -0.5936 0.0361
vn -0.3842 -0.7194 -0.5787
vn -0.0287 -0.7028 -0.7108
vn -0.0000 -1.0000 -0.0000
vn 0.8028 -0.5963 -0.0002
vn -0.7108 -0.7028 -0.0286
vn -0.0002 -0.5963 0.8028
vn -0.5946 -0.5244 0.6095
vn -0.8545 -0.3176 -0.4110
vn -0.9128 -0.3007 0.2762
vn -0.3576 -0.8778 0.3188
vn -0.2920 -0.7858 0.5452
vn -0.3073 -0.9176 -0.2522
vn -0.5752 0.0270 -0.8176
vn -1.0000 0.0000 -0.0001
vn -0.8945 -0.0147 0.4468
vn -0.5752 -0.8175 -0.0270
vn -0.8945 -0.4469 -0.0148
vn -0.2934 0.4275 0.8551
vn -0.5293 -0.8139 -0.2395
vn -0.5734 -0.8187 -0.0316
vn -0.0078 -0.9612 0.2756
vn 0.8449 0.3212 -0.4278
vn -0.0001 -0.8943 -0.4474
vn -0.0002 0.0000 -1.0000
vn 0.3212 -0.8450 -0.4276
vn -0.8810 0.0000 -0.4732
vn -0.2396 -0.8139 -0.5293
vn 0.2755 -0.9410 -0.1966
vn -0.0171 -0.8812 -0.4724
vn 0.0286 -0.7028 -0.7108
vn -0.7108 -0.7028 0.0285
vn -0.0000 -0.8057 0.5923
vn 0.0000 -0.8247 0.5656
vn -0.0000 -0.6947 0.7193
vn 0.2385 -0.9220 0.3052
vn 0.0000 -0.5656 0.8247
vn -0.0000 -0.6948 0.7192
vn 0.0000 -0.5685 0.8227
vn 0.4931 -0.7170 0.4927
vn 0.2384 -0.9220 0.3052
vn 0.5977 -0.8017 -0.0000
vn 0.5031 -0.7029 0.5027
vn 0.8232 -0.5677 -0.0001
vn 0.5031 -0.7030 0.5027
vn 0.8057 -0.5923 -0.0002
vn 0.8247 -0.5656 -0.0002
vn 0.8232 -0.5677 -0.0002
vn 0.5977 -0.8017 -0.0001
vn 0.8057 -0.5923 -0.0001
vn 0.8247 -0.5656 -0.0003
vn 0.8232 -0.5677 -0.0000
vn 0.5031 -0.7029 0.5028
vn 0.5029 -0.7029 0.5029
vn 0.5032 -0.7029 0.5027
vn -0.0001 -0.5685 0.8227
vn 0.4674 -0.8840 -0.0001
vn 0.7071 -0.7071 -0.0001
vn 1.0000 -0.0000 -0.0002
vn 0.7071 -0.7071 0.0001
vn 0.8946 -0.0000 0.4468
vn 1.0000 0.0000 -0.0003
vn -0.0000 0.0000 1.0000
vn 0.2384 -0.9220 0.3051
vn 0.7071 -0.7071 -0.0000
usemtl Material.001
s off
f 58/70/121 56/71/122 55/72/123
f 59/73/124 55/72/125 57/74/126
f 59/73/127 58/70/128 55/72/129
f 59/73/130 62/75/131 58/70/132
f 57/74/133 60/76/134 59/73/135
f 61/77/136 59/73/137 60/76/134
f 59/73/138 61/77/139 62/75/140
f 58/70/141 62/75/142 63/78/143
f 63/78/144 64/79/145 66/80/146
f 63/78/147 66/80/148 65/81/149
f 58/70/150 63/78/151 65/81/152
f 65/81/153 66/80/154 67/82/155
f 65/81/156 67/82/155 56/71/157
f 58/70/158 65/81/159 56/71/160
f 61/77/161 60/76/134 68/83/134
f 57/74/162 69/84/134 60/76/134
f 73/85/163 71/86/164 70/87/165
f 70/88/165 71/89/164 75/90/166
f 74/91/167 70/87/168 72/92/169
f 72/93/169 70/88/168 76/94/170
f 74/91/167 73/85/163 70/87/168
f 70/88/165 75/90/166 76/94/170
f 75/95/171 78/96/172 76/97/170
f 72/93/169 76/94/170 77/98/173
f 79/99/174 77/100/175 76/97/170
f 79/99/174 76/97/170 78/96/172
f 79/101/174 80/102/176 81/103/177
f 79/101/178 78/104/179 80/102/180
f 79/101/174 81/103/181 84/105/134
f 79/99/182 83/106/134 77/100/173
f 79/99/182 82/107/134 83/106/134
f 79/101/174 84/105/134 82/108/134
f 83/106/134 85/109/134 77/100/183
f 85/109/134 86/110/134 77/100/184
f 72/93/169 77/98/185 86/111/134
f 72/93/186 86/111/134 87/112/134
f 74/91/167 87/113/134 88/114/134
f 74/91/167 72/92/169 87/113/134
f 78/104/179 89/115/187 80/102/176
f 78/104/179 90/116/188 89/115/187
f 90/116/188 91/117/189 89/115/187
f 90/116/190 92/118/189 91/117/189
f 90/119/188 93/120/191 92/121/192
f 75/90/166 94/122/193 93/123/191
f 90/119/188 75/95/194 93/120/191
f 71/86/164 95/124/193 94/125/193
f 75/90/171 71/89/164 94/122/193
f 71/86/164 96/126/164 95/124/193
f 73/85/163 96/126/164 71/86/164
f 75/95/166 90/119/195 78/96/179
f 99/127/134 98/128/134 97/129/134
f 99/127/134 100/130/134 98/128/134
f 103/131/134 102/132/134 101/133/134
f 106/134/134 105/135/134 104/136/134
f 106/134/134 107/137/134 105/135/134
f 102/132/134 103/131/134 108/138/134
o Plane.005
v 3.000000 0.000003 -1.999998
v 3.000001 -1.999997 -2.000000
v 1.000000 0.000003 -1.999999
v 1.000000 -1.999997 -2.000001
v -1.000000 0.000002 -2.000000
v -0.999999 -1.999998 -2.000002
v -1.000001 0.000000 -0.000000
v -1.000000 -2.000000 -0.000002
v -0.999999 0.000004 -4.000000
v -0.999999 -1.999996 -4.000002
v -1.000000 0.000002 -2.000000
v -0.999999 -1.999997 -2.000002
v 1.000000 0.000004 -4.000000
v 1.000001 -1.999995 -4.000001
v -0.999999 0.000004 -4.000000
v -0.999999 -1.999996 -4.000002
v 3.000000 0.000005 -3.999999
v 3.000001 -1.999994 -4.000001
v 1.000000 0.000004 -4.000000
v 1.000001 -1.999995 -4.000001
v 1.000000 0.000003 -1.999999
v 1.000001 -1.999997 -2.000001
v 0.999999 0.000001 0.000001
v 1.000000 -1.999999 -0.000001
vt 1.000000 0.000000
vt 0.500000 0.000000
vt 0.500000 0.500000
vt 1.000000 0.500000
vt 1.000000 0.000000
vt 0.500000 0.500000
vt 0.500000 0.000000
vt 1.000000 0.500000
vt 1.000000 0.000000
vt 0.500000 0.500000
vt 0.500000 0.000000
vt 1.000000 0.500000
vt 1.000000 0.000000
vt 0.500000 0.500000
vt 0.500000 0.000000
vt 1.000000 0.500000
vt 1.000000 0.000000
vt 0.500000 0.500000
vt 0.500000 0.000000
vt 1.000000 0.500000
vt 1.000000 0.000000
vt 0.500000 0.000000
vt 0.500000 0.500000
vt 1.000000 0.500000
vn 0.0000 0.0000 -1.0000
vn 1.0000 0.0000 0.0000
vn -0.0000 -0.0000 1.0000
vn -1.0000 -0.0000 -0.0000
usemtl Material.001
s off
f 111/139/196 109/140/196 110/141/196
f 111/139/196 110/141/196 112/142/196
f 115/143/197 114/144/197 113/145/197
f 115/143/197 116/146/197 114/144/197
f 119/147/197 118/148/197 117/149/197
f 119/147/197 120/150/197 118/148/197
f 123/151/198 122/152/198 121/153/198
f 123/151/198 124/154/198 122/152/198
f 127/155/198 126/156/198 125/157/198
f 127/155/198 128/158/198 126/156/198
f 131/159/199 129/160/199 130/161/199
f 131/159/199 130/161/199 132/162/199
