# Blender v2.83.5 OBJ File: 'turn_right.blend'
# www.blender.org
mtllib turn_right_ceiling.mtl
v 2.999999 -1.826677 -2.173424
v 2.999999 -1.921329 -2.428076
v 2.999999 -1.572026 -2.078773
v 0.830244 -1.826676 -2.172866
v 0.924884 -1.572025 -2.078226
v 1.004888 -1.572025 -1.998223
v 0.924672 -1.572022 -0.002778
v 0.830020 -1.826673 -0.002777
v 0.575369 -1.921324 -0.002777
v 0.575369 -2.001324 -0.002777
v 0.575592 -1.921328 -2.427518
v 0.575592 -2.001328 -2.427518
v 2.999999 -2.001329 -2.428076
v 1.004672 -1.572022 -0.002778
v 2.999999 -1.572026 -1.998774
v 0.999999 -1.832377 -3.829309
v 0.999999 -1.927028 -3.574657
v 0.999999 -1.577725 -3.923961
v 2.997635 -1.832377 -3.829309
v 2.997635 -1.577726 -3.923961
v 2.997635 -1.927028 -3.574657
v -0.827355 -1.832373 -0.000041
v -0.572704 -1.927024 -0.000041
v -0.922006 -1.577721 -0.000041
v -0.827714 -1.832375 -1.999999
v -0.922365 -1.577723 -1.999999
v -0.573062 -1.927026 -1.999998
v -0.827713 -1.832376 -3.829310
v -0.573062 -1.927028 -3.574658
v -0.922353 -1.577725 -3.923952
v 0.999999 -2.007028 -3.574657
v 2.997635 -2.007028 -3.574657
v -0.572704 -2.007024 -0.000041
v -0.573062 -2.007026 -1.999998
v -0.573062 -2.007027 -3.574658
v 0.999999 -1.577726 -4.003962
v 2.997635 -1.577726 -4.003961
v -0.922353 -1.577725 -4.003952
v -1.002006 -1.577721 -0.000041
v -1.002365 -1.577723 -1.999999
v -1.002353 -1.577725 -3.923952
v -1.002353 -1.577725 -4.003952
v 1.000000 -2.000003 -3.999998
v -1.000000 -2.000003 -3.999998
v 0.999999 -2.000001 -1.999998
v -1.000000 -2.000001 -1.999999
v 0.999999 -2.000001 -1.999998
v -1.000000 -2.000001 -1.999999
v 0.999999 -1.999999 0.000002
v -1.000001 -1.999999 0.000002
v 3.000000 -2.000004 -3.999998
v 1.000000 -2.000003 -3.999998
v 3.000000 -2.000002 -1.999998
v 0.999999 -2.000001 -1.999998
vt 0.908741 0.947492
vt 0.979209 0.500003
vt 0.908750 0.500011
vt 0.838282 0.927977
vt 0.838290 0.500014
vt 0.908750 0.500011
vt 0.817529 0.911482
vt 0.838290 0.500014
vt 0.979209 0.500003
vt 0.999957 0.500003
vt 0.999957 0.999999
vt 0.979209 0.999999
vt 0.999957 0.500003
vt 0.817543 0.500016
vt 0.817543 0.500016
vt 0.725894 0.500000
vt 0.725894 1.000280
vt 0.636317 1.000280
vt 0.818193 0.500000
vt 0.818193 1.000280
vt 0.636317 0.500000
vt 0.725894 1.000280
vt 0.725894 0.500047
vt 0.636317 0.500047
vt 0.818193 1.000280
vt 0.818193 0.500047
vt 0.636317 1.000280
vt 0.907770 0.500000
vt 0.907770 0.971920
vt 0.818193 0.890788
vt 0.818193 0.890639
vt 0.907770 0.972041
vt 0.907770 0.500000
vt 1.000069 0.500000
vt 1.000069 0.500000
vt 1.000069 1.000280
vt 1.000069 1.000038
vt 0.818193 0.500000
vt 0.818193 0.500000
vt 0.636317 1.000280
vt 0.818193 0.500000
vt 0.636317 0.500000
vt 0.818193 0.890639
vt 1.000069 1.000280
vt 0.818193 1.000280
vt 1.000069 1.000038
vt 1.000069 0.500000
vt 0.818193 0.500047
vt 1.000069 1.000038
vt 1.000069 1.000038
vt 0.636317 0.500047
vt 0.818193 0.890788
vt 0.636317 1.000280
vt 0.818193 0.500000
vt 1.000069 0.500000
vt 0.818193 0.500000
vt 0.818193 1.000280
vt 0.500000 0.000000
vt 0.000000 0.000000
vt 0.000000 0.500000
vt 0.500000 0.500000
vt 0.500000 0.000000
vt 0.000000 0.000000
vt 0.000000 0.500000
vt 0.500000 0.500000
vt 0.500000 0.000000
vt 0.000000 0.000000
vt 0.000000 0.500000
vt 0.500000 0.500000
vn 0.3201 -0.8917 0.3201
vn 0.0001 -0.8809 0.4734
vn 0.0002 -0.5958 0.8031
vn 0.5678 -0.5962 0.5676
vn 0.0002 -0.7028 0.7114
vn 0.5677 -0.5963 0.5676
vn 0.8031 -0.5958 0.0001
vn 0.3202 -0.8917 0.3201
vn -0.0000 -1.0000 0.0000
vn 0.5677 -0.5963 0.5675
vn 0.7114 -0.7028 0.0001
vn 0.5676 -0.5963 0.5676
vn 0.8031 -0.5958 0.0002
vn 0.5752 -0.8180 0.0001
vn 1.0000 0.0000 0.0001
vn 0.8944 0.0000 0.4472
vn 0.5752 -0.8180 0.0000
vn 0.2933 -0.8551 0.4275
vn 0.0002 0.0000 1.0000
vn 0.2934 -0.8551 0.4275
vn 0.0001 -0.8808 0.4734
vn -0.0000 -0.7028 0.7114
vn 0.0370 0.8066 0.5899
vn -0.4322 0.8453 0.3142
vn 0.2406 0.9207 0.3073
vn -0.0327 0.5635 0.8254
vn 0.2462 0.3377 0.9085
vn -0.3970 0.2686 0.8776
vn -0.2406 0.3073 0.9207
vn -0.0540 0.6913 0.7205
vn 0.5489 0.2912 0.7835
vn 0.2719 0.9142 0.3004
vn 0.0327 0.8255 0.5635
vn -0.2428 0.9093 0.3380
vn 0.5953 0.8026 -0.0380
vn 0.2912 0.7835 0.5489
vn 0.3073 0.9207 -0.2407
vn 0.8240 0.5657 0.0328
vn 0.9092 0.3380 -0.2430
vn 0.9143 0.3004 0.2718
vn 0.9202 0.3068 0.2430
vn 0.8066 0.5899 0.0368
vn 0.7869 0.2924 -0.5433
vn 0.2989 0.9128 -0.2785
vn 0.5635 0.8254 -0.0328
vn 0.3293 0.8857 0.3273
vn 0.0735 0.6969 0.7134
vn -0.4920 0.8657 0.0926
vn 0.1691 0.8499 0.4991
vn 0.5755 0.7967 0.1846
vn 0.0932 0.8656 -0.4920
vn 0.5939 0.8031 0.0478
vn 0.9212 0.3040 -0.2427
vn 0.7870 0.2925 0.5432
vn 0.5202 0.6441 -0.5608
vn -0.0362 0.5660 0.8236
vn 0.2913 0.8440 0.4503
vn -0.2143 -0.3793 0.9001
vn 0.8241 0.5653 -0.0360
vn 0.9003 -0.3787 -0.2144
vn 0.4508 0.8437 0.2914
vn -0.2436 0.3037 0.9211
vn -0.5614 0.6439 0.5198
vn 0.4006 0.3192 0.8588
vn 0.4259 0.8709 0.2453
vn -0.2410 0.9076 0.3437
vn 0.2884 0.9034 -0.3173
vn 0.2895 0.9162 0.2769
vn 0.3292 0.8857 -0.3273
vn 0.5656 0.8240 -0.0331
vn 1.0000 0.0000 -0.0002
vn 0.6362 0.0000 0.7715
vn -0.1913 0.9329 0.3052
vn 0.0000 0.0000 1.0000
vn -0.8247 0.0000 0.5656
vn 0.0330 0.8240 0.5656
vn 0.6360 0.7707 -0.0391
vn 0.8946 -0.4463 0.0227
vn 0.2384 0.3052 0.9220
vn -0.0342 0.5685 0.8220
vn 0.0000 1.0000 -0.0000
vn 0.5027 0.7029 0.5031
vn -0.0330 0.5656 0.8240
vn 0.8227 0.5685 0.0000
vn -0.0342 0.5677 -0.8225
vn 0.8226 0.5677 0.0327
vn -0.0001 0.5656 -0.8247
vn -0.7112 0.7029 -0.0003
vn 0.0000 0.7029 -0.7112
vn 0.5654 -0.0330 -0.8241
vn 0.9329 0.1913 0.3052
vn 0.0000 -0.8946 0.4468
vn 0.8240 -0.0330 0.5656
vn 0.6360 -0.0392 -0.7707
vn 1.0000 0.0000 0.0000
vn 0.8946 -0.0227 -0.4463
vn -0.8220 0.5685 -0.0342
vn -0.8240 0.5656 -0.0330
vn 0.8225 0.5677 -0.0341
vn 0.5027 0.7029 0.5032
vn -0.0328 0.5677 0.8226
usemtl Material.001
s off
f 4/1/1 2/2/2 1/3/3
f 5/4/4 1/3/3 3/5/5
f 5/4/6 4/1/1 1/3/3
f 5/4/6 8/6/7 4/1/8
f 3/5/5 6/7/9 5/4/10
f 7/8/11 5/4/12 6/7/9
f 5/4/10 7/8/11 8/6/7
f 4/1/8 8/6/13 9/9/14
f 9/9/14 10/10/15 12/11/16
f 9/9/17 12/11/16 11/12/18
f 4/1/8 9/9/14 11/12/18
f 11/12/18 12/11/16 13/13/19
f 11/12/20 13/13/19 2/2/21
f 4/1/1 11/12/18 2/2/2
f 7/8/11 6/7/9 14/14/9
f 3/5/22 15/15/9 6/7/9
f 19/16/23 16/17/24 17/18/25
f 20/19/26 18/20/27 16/17/28
f 20/19/29 16/17/30 19/16/31
f 19/16/32 17/18/33 21/21/34
f 25/22/35 22/23/36 23/24/37
f 26/25/38 24/26/39 22/23/40
f 26/25/41 22/23/42 25/22/43
f 25/22/44 23/24/45 27/27/46
f 16/28/47 28/29/48 29/30/49
f 29/31/50 28/32/51 25/33/52
f 26/34/53 25/33/54 28/32/55
f 18/35/56 30/36/57 28/29/58
f 26/34/59 28/32/60 30/37/61
f 18/35/62 28/29/63 16/28/64
f 16/28/65 29/30/66 17/38/34
f 29/31/67 25/33/68 27/39/69
f 23/24/70 34/40/71 27/27/72
f 29/30/73 31/41/74 17/38/75
f 17/18/76 32/42/74 21/21/75
f 27/39/77 35/43/78 29/31/79
f 18/35/80 38/44/81 30/36/82
f 20/19/83 36/45/81 18/20/84
f 26/34/85 41/46/81 40/47/81
f 26/25/86 39/48/81 24/26/87
f 41/46/81 30/37/88 42/49/81
f 42/49/81 30/37/89 38/50/81
f 23/24/90 33/51/71 34/40/71
f 29/30/91 35/52/92 31/41/74
f 17/18/93 31/53/74 32/42/74
f 27/39/94 34/54/95 35/43/96
f 18/35/97 36/55/81 38/44/81
f 20/19/98 37/56/81 36/45/81
f 26/34/99 30/37/100 41/46/81
f 26/25/101 40/57/81 39/48/81
f 45/58/81 43/59/81 44/60/81
f 45/58/81 44/60/81 46/61/81
f 49/62/81 47/63/81 48/64/81
f 49/62/81 48/64/81 50/65/81
f 53/66/81 51/67/81 52/68/81
f 53/66/81 52/68/81 54/69/81
