# Blender v2.91.0 OBJ File: 'cell models.blend'
# www.blender.org
v -1.000000 1.000000 1.870467
v 1.000000 1.000000 1.870467
v -1.000000 -1.000000 1.870468
v 1.000000 -1.000000 1.870468
v -1.000000 -0.000000 1.983783
v 0.000000 1.000000 1.983783
v 1.000000 -0.000000 1.983783
v 0.000000 -1.000000 1.983783
v 0.000000 0.000000 2.052873
vt 1.000000 0.500000
vt 0.500000 1.000000
vt 0.500000 0.500000
vt 0.000000 1.000000
vt 0.000000 0.500000
vt 0.500000 0.000000
vt 0.000000 0.000000
vt 1.000000 0.000000
vt 1.000000 1.000000
vn -0.0688 0.0688 -0.9953
vn 0.0685 0.1123 -0.9913
vn 0.1119 -0.1119 -0.9874
vn -0.1123 -0.0685 -0.9913
vn -0.1119 0.1119 -0.9874
vn 0.1123 0.0685 -0.9913
vn 0.0688 -0.0688 -0.9953
vn -0.0685 -0.1123 -0.9913
s off
f 7/1/1 8/2/1 9/3/1
f 9/3/2 3/4/2 5/5/2
f 6/6/3 5/5/3 1/7/3
f 2/8/4 9/3/4 6/6/4
f 7/1/5 4/9/5 8/2/5
f 9/3/6 8/2/6 3/4/6
f 6/6/7 9/3/7 5/5/7
f 2/8/8 7/1/8 9/3/8
