# Blender v2.91.0 OBJ File: 'cell models.blend'
# www.blender.org
o Plane.005_Plane.088
v -1.000000 -1.000000 2.000000
v -1.000000 -1.000000 0.000000
v -0.892652 0.847064 2.000000
v -0.892652 0.847064 0.000000
v -1.308938 -1.000000 1.000000
v -1.079476 1.034464 1.000000
v -1.052386 0.000000 2.000000
v -0.974362 -0.006411 0.000000
v -1.308938 0.104125 1.000000
v -0.912506 -0.500000 2.000000
v -0.981955 0.500000 0.000000
v -1.308938 0.701327 1.000000
v -1.000000 0.500000 2.000000
v -0.912506 -0.500000 0.000000
v -1.308938 -0.493077 1.000000
v 1.000000 1.000000 2.000000
v 1.000000 1.000000 0.000000
v 1.000000 1.308938 1.000000
v 0.000000 1.052386 2.000000
v 0.003251 0.955792 0.000000
v -0.118063 1.308938 1.000000
v -0.500000 0.912506 2.000000
v 0.500000 0.981955 0.000000
v 0.471626 1.308938 1.000000
v 0.500000 1.000000 2.000000
v -0.500000 0.912506 0.000000
v -0.707752 1.308938 1.000000
vt 0.500000 0.750000
vt 1.000000 1.000000
vt 0.500000 1.000000
vt 0.000000 1.000000
vt 0.000000 0.750000
vt 0.500000 0.250000
vt 0.000000 0.500000
vt 0.000000 0.250000
vt 1.000000 0.500000
vt 0.500000 0.500000
vt 1.000000 0.000000
vt 0.500000 0.000000
vt 0.000000 0.000000
vt 1.000000 0.750000
vt 1.000000 0.750000
vt 0.500000 1.000000
vt 0.500000 0.750000
vt 0.000000 0.750000
vt 0.000000 1.000000
vt 0.000000 0.250000
vt 0.500000 0.500000
vt 0.000000 0.500000
vt 1.000000 0.250000
vt 0.500000 0.250000
vt 1.000000 0.000000
vt 0.500000 0.000000
vt 0.000000 0.000000
vt 1.000000 0.500000
vt 1.000000 0.250000
vt 1.000000 1.000000
vn 0.7970 -0.5490 0.2518
vn 0.9004 -0.2785 -0.3342
vn 0.9002 0.2519 -0.3551
vn 0.9483 0.0000 0.3173
vn 0.9554 0.0000 0.2952
vn 0.9172 -0.1605 -0.3647
vn 0.9611 -0.1007 -0.2571
vn 0.9505 0.0000 0.3108
vn 0.0000 -0.9505 0.3108
vn 0.0000 -0.9554 -0.2952
vn 0.2595 -0.9276 -0.2686
vn 0.0000 -0.9296 0.3685
vn 0.5746 -0.7783 0.2532
vn 0.1513 -0.9077 -0.3913
vn -0.0997 -0.9515 -0.2911
vn 0.0000 -0.9429 0.3330
vn 0.9092 -0.2339 0.3444
vn 0.7970 -0.5490 -0.2518
vn 0.9686 -0.0000 -0.2485
vn 0.9236 0.1157 0.3654
vn 0.9172 -0.1605 0.3647
vn 0.9554 0.0000 -0.2952
vn 0.9487 0.0142 0.3158
vn 0.0345 -0.9549 0.2950
vn 0.0000 -0.9296 -0.3685
vn 0.0806 -0.9368 0.3406
vn 0.1513 -0.9077 0.3913
vn 0.5746 -0.7783 -0.2532
vn 0.0000 -0.9686 -0.2485
vn 0.0500 -0.9489 0.3117
s off
f 12/1/1 4/2/1 6/3/1
f 12/1/2 3/4/2 13/5/2
f 15/6/3 7/7/3 10/8/3
f 15/6/4 8/9/4 9/10/4
f 2/11/5 15/6/5 5/12/5
f 1/13/6 15/6/6 10/8/6
f 9/10/7 13/5/7 7/7/7
f 9/10/8 11/14/8 12/1/8
f 23/15/9 18/16/9 24/17/9
f 25/18/10 18/16/10 16/19/10
f 22/20/11 21/21/11 19/22/11
f 26/23/12 21/21/12 27/24/12
f 4/25/13 27/24/13 6/26/13
f 3/27/14 27/24/14 22/20/14
f 19/22/15 24/17/15 25/18/15
f 20/28/16 24/17/16 21/21/16
f 12/1/17 11/14/17 4/2/17
f 12/1/18 6/3/18 3/4/18
f 15/6/19 9/10/19 7/7/19
f 15/6/20 14/29/20 8/9/20
f 2/11/21 14/29/21 15/6/21
f 1/13/22 5/12/22 15/6/22
f 9/10/22 12/1/22 13/5/22
f 9/10/23 8/9/23 11/14/23
f 23/15/24 17/30/24 18/16/24
f 25/18/10 24/17/10 18/16/10
f 22/20/25 27/24/25 21/21/25
f 26/23/26 20/28/26 21/21/26
f 4/25/27 26/23/27 27/24/27
f 3/27/28 6/26/28 27/24/28
f 19/22/29 21/21/29 24/17/29
f 20/28/30 23/15/30 24/17/30
