# Blender v2.91.0 OBJ File: 'cell models.blend'
# www.blender.org
v -0.847064 -0.892652 2.000000
v -0.847064 -0.892652 -0.000000
v -1.034464 -1.079476 1.000000
v -0.500000 -0.981955 -0.000000
v -0.500000 -1.308938 1.000000
v -0.500000 -1.000000 2.000000
v -0.912506 -0.500000 2.000000
v -0.912505 -0.499999 -0.000000
v -1.308938 -0.500000 1.000000
vt 0.500000 0.750000
vt 1.000000 1.000000
vt 0.500000 1.000000
vt 0.000000 1.000000
vt 0.000000 0.750000
vt 1.000000 0.000000
vt 0.500000 0.250000
vt 0.500000 0.000000
vt 0.000000 0.000000
vt 0.000000 0.250000
vt 1.000000 0.750000
vt 1.000000 0.250000
vn 0.3831 0.8924 0.2385
vn 0.2834 0.9163 -0.2831
vn 0.8769 0.4154 0.2419
vn 0.9187 0.1531 -0.3642
vn 0.2376 0.9233 0.3019
vn 0.3831 0.8924 -0.2385
vn 0.9187 0.1531 0.3642
vn 0.8769 0.4154 -0.2419
s off
f 5/1/1 2/2/1 3/3/1
f 5/1/2 1/4/2 6/5/2
f 2/6/3 9/7/3 3/8/3
f 1/9/4 9/7/4 7/10/4
f 5/1/5 4/11/5 2/2/5
f 5/1/6 3/3/6 1/4/6
f 2/6/7 8/12/7 9/7/7
f 1/9/8 3/8/8 9/7/8
