# Blender v2.91.0 OBJ File: 'cell models.blend'
# www.blender.org
v -0.868790 1.330391 0.000000
v -0.868790 1.330391 2.000000
v -0.899171 0.905121 0.000000
v -0.899171 0.905121 2.000000
v -0.981425 1.438730 -0.000920
v -0.964731 1.422673 1.998642
v -1.324441 0.874740 0.000000
v -1.324441 0.874740 2.000000
v -0.936941 1.531268 1.000000
v -1.032655 1.038606 1.000000
v -1.527870 0.940338 1.000000
v -1.786336 1.339268 1.000000
v -1.463434 1.020558 2.000000
v -1.451149 1.007670 0.000000
v -1.347305 1.749215 0.993507
vt 1.000000 0.000000
vt 0.500000 0.250000
vt 0.500000 0.000000
vt 1.000000 0.500000
vt 0.500000 0.500000
vt 1.000000 0.591498
vt 0.500000 0.682416
vt 1.000000 0.942511
vt 0.500000 1.000000
vt 0.500000 0.825654
vt 0.000000 0.932507
vt 0.000000 1.000000
vt 0.000000 0.583410
vt 0.000000 0.500000
vt 0.000000 0.250000
vt 0.000000 0.000000
vt 1.000000 0.250000
vt 1.000000 1.000000
vn 0.9763 -0.1897 -0.1046
vn 0.1936 -0.9756 -0.1034
vn -0.8353 -0.5412 0.0972
vn 0.4649 0.8787 0.1085
vn 0.6904 0.7169 -0.0970
vn -0.7201 -0.6864 -0.1015
vn 0.0705 -0.9875 0.1412
vn 0.9875 -0.0705 0.1412
vn 0.9875 -0.0705 -0.1412
vn 0.0705 -0.9875 -0.1412
vn -0.7201 -0.6864 0.1015
vn 0.6892 0.7180 0.0973
vn 0.4679 0.8779 -0.1020
vn -0.8350 -0.5410 -0.1005
vn 0.1936 -0.9756 0.1034
vn 0.9763 -0.1897 0.1046
s off
f 2/1/1 10/2/1 9/3/1
f 10/2/2 8/4/2 11/5/2
f 11/5/3 13/6/3 12/7/3
f 6/8/4 9/9/4 15/10/4
f 5/11/5 9/9/5 1/12/5
f 11/5/6 14/13/6 7/14/6
f 10/2/7 7/14/7 3/15/7
f 1/16/8 10/2/8 3/15/8
f 2/1/9 4/17/9 10/2/9
f 10/2/10 4/17/10 8/4/10
f 11/5/11 8/4/11 13/6/11
f 6/8/12 2/18/12 9/9/12
f 5/11/13 15/10/13 9/9/13
f 11/5/14 12/7/14 14/13/14
f 10/2/15 11/5/15 7/14/15
f 1/16/16 9/3/16 10/2/16
