# Blender v2.91.0 OBJ File: 'cell models.blend'
# www.blender.org
o Plane.001_Plane.080
v 1.000000 1.000000 2.000000
v 1.000000 1.000000 0.000000
v 0.892652 -0.847064 2.000000
v 0.892652 -0.847064 0.000000
v 1.308938 1.000000 1.000000
v 1.079476 -1.034464 1.000000
v 1.052386 0.000000 2.000000
v 0.974362 0.006411 0.000000
v 1.308938 -0.104125 1.000000
v 0.912506 0.500000 2.000000
v 0.981955 -0.500000 0.000000
v 1.308938 -0.701327 1.000000
v 1.000000 -0.500000 2.000000
v 0.912506 0.500000 0.000000
v 1.308938 0.493077 1.000000
v 0.000000 -1.052386 2.000000
v 0.006595 -1.303371 1.000000
v 0.500000 -0.912506 2.000000
v -0.560657 -1.258591 1.000000
v -0.500000 -1.000000 2.000000
v 0.490135 -0.984754 -0.000000
v 0.567831 -1.258591 1.000000
v -0.847064 -0.892652 2.000000
v -0.847064 -0.892652 -0.000000
v -1.034464 -1.079476 1.000000
v 0.006411 -1.063931 0.000000
v -0.500000 -1.025953 -0.000000
v 0.490135 -0.984754 0.000000
v -1.000000 1.000000 2.000000
v -1.000000 1.000000 -0.000000
v -1.308938 1.000000 1.000000
v -1.052386 0.000000 2.000000
v -0.955792 0.003251 -0.000000
v -1.308937 -0.118063 1.000000
v -0.912505 -0.500000 2.000000
v -0.981955 0.500000 -0.000000
v -1.308938 0.471626 1.000000
v -1.000000 0.500000 2.000000
v -0.912505 -0.500000 -0.000000
v -1.308937 -0.707752 1.000000
vt 0.500000 0.750000
vt 1.000000 1.000000
vt 0.500000 1.000000
vt 0.000000 1.000000
vt 0.000000 0.750000
vt 0.500000 0.250000
vt 0.000000 0.500000
vt 0.000000 0.250000
vt 1.000000 0.500000
vt 0.500000 0.500000
vt 1.000000 0.000000
vt 0.500000 0.000000
vt 0.000000 0.000000
vt 1.000000 0.750000
vt 0.500000 0.250000
vt 0.000000 0.500000
vt 0.000000 0.250000
vt 1.000000 0.000000
vt 0.500000 0.000000
vt 0.000000 0.000000
vt 0.500000 0.500000
vt 0.000000 0.750000
vt 0.500000 0.750000
vt 1.000000 1.000000
vt 0.500000 1.000000
vt 0.000000 1.000000
vt 1.000000 0.250000
vt 1.000000 0.750000
vt 1.000000 0.750000
vt 0.500000 1.000000
vt 0.500000 0.750000
vt 0.000000 0.750000
vt 0.000000 1.000000
vt 0.000000 0.250000
vt 0.500000 0.500000
vt 0.000000 0.500000
vt 1.000000 0.250000
vt 0.500000 0.250000
vt 1.000000 0.000000
vt 0.500000 0.000000
vt 0.000000 0.000000
vt 1.000000 0.500000
vt 1.000000 0.250000
vt 1.000000 0.250000
vt 1.000000 0.500000
vt 1.000000 1.000000
vn -0.7970 0.5490 0.2518
vn -0.9004 0.2785 -0.3342
vn -0.9002 -0.2519 -0.3551
vn -0.9483 0.0000 0.3173
vn -0.9554 -0.0000 0.2952
vn -0.9172 0.1605 -0.3647
vn -0.9611 0.1007 -0.2571
vn -0.9505 -0.0000 0.3108
vn -0.2542 0.9085 -0.3317
vn -0.3896 0.8893 0.2394
vn -0.1550 0.9303 -0.3325
vn 0.1011 0.9651 -0.2416
vn 0.3438 0.9094 0.2343
vn 0.2856 0.9235 -0.2561
vn -0.0766 0.9601 0.2689
vn 0.0766 0.9701 0.2303
vn 0.9505 0.0000 0.3108
vn 0.9554 0.0000 -0.2952
vn 0.9276 0.2595 -0.2686
vn 0.9296 0.0000 0.3685
vn 0.7783 0.5746 0.2532
vn 0.9077 0.1513 -0.3913
vn 0.9515 -0.0997 -0.2911
vn 0.9429 0.0000 0.3330
vn -0.9092 0.2339 0.3444
vn -0.7970 0.5490 -0.2518
vn -0.9686 0.0000 -0.2485
vn -0.9236 -0.1157 0.3654
vn -0.9172 0.1605 0.3647
vn -0.9554 0.0000 -0.2952
vn -0.9487 -0.0142 0.3158
vn -0.0771 0.9669 -0.2432
vn -0.3113 0.9101 0.2734
vn -0.3896 0.8893 -0.2394
vn 0.0761 0.9642 -0.2540
vn 0.3487 0.9080 0.2324
vn 0.3438 0.9094 -0.2343
vn -0.1572 0.9604 0.2300
vn 0.0727 0.9699 0.2322
vn 0.9549 0.0345 0.2950
vn 0.9296 0.0000 -0.3685
vn 0.9368 0.0806 0.3406
vn 0.9077 0.1513 0.3913
vn 0.7783 0.5746 -0.2532
vn 0.9686 0.0000 -0.2485
vn 0.9489 0.0500 0.3117
s off
f 12/1/1 4/2/1 6/3/1
f 12/1/2 3/4/2 13/5/2
f 15/6/3 7/7/3 10/8/3
f 15/6/4 8/9/4 9/10/4
f 2/11/5 15/6/5 5/12/5
f 1/13/6 15/6/6 10/8/6
f 9/10/7 13/5/7 7/7/7
f 9/10/8 11/14/8 12/1/8
f 22/15/9 16/16/9 18/17/9
f 4/18/10 22/15/10 6/19/10
f 3/20/11 22/15/11 18/17/11
f 17/21/12 20/22/12 16/16/12
f 19/23/13 24/24/13 25/25/13
f 19/23/14 23/26/14 20/22/14
f 28/27/15 17/21/15 22/15/15
f 17/21/16 27/28/16 19/23/16
f 36/29/17 31/30/17 37/31/17
f 38/32/18 31/30/18 29/33/18
f 35/34/19 34/35/19 32/36/19
f 39/37/20 34/35/20 40/38/20
f 24/39/21 40/38/21 25/40/21
f 23/41/22 40/38/22 35/34/22
f 32/36/23 37/31/23 38/32/23
f 33/42/24 37/31/24 34/35/24
f 12/1/25 11/14/25 4/2/25
f 12/1/26 6/3/26 3/4/26
f 15/6/27 9/10/27 7/7/27
f 15/6/28 14/43/28 8/9/28
f 2/11/29 14/43/29 15/6/29
f 1/13/30 5/12/30 15/6/30
f 9/10/30 12/1/30 13/5/30
f 9/10/31 8/9/31 11/14/31
f 22/15/32 17/21/32 16/16/32
f 4/18/33 21/44/33 22/15/33
f 3/20/34 6/19/34 22/15/34
f 17/21/35 19/23/35 20/22/35
f 19/23/36 27/28/36 24/24/36
f 19/23/37 25/25/37 23/26/37
f 28/27/38 26/45/38 17/21/38
f 17/21/39 26/45/39 27/28/39
f 36/29/40 30/46/40 31/30/40
f 38/32/18 37/31/18 31/30/18
f 35/34/41 40/38/41 34/35/41
f 39/37/42 33/42/42 34/35/42
f 24/39/43 39/37/43 40/38/43
f 23/41/44 25/40/44 40/38/44
f 32/36/45 34/35/45 37/31/45
f 33/42/46 36/29/46 37/31/46
