# Blender v2.91.0 OBJ File: 'cell models.blend'
# www.blender.org
v 0.891918 1.024014 2.000000
v 0.891918 1.024014 0.000000
v 0.891920 -0.975986 2.000000
v 0.891920 -0.975986 0.000000
v 1.200856 1.024014 1.000000
v 1.200858 -0.975986 1.000000
v 0.885443 0.024014 2.000000
v 0.944306 0.024014 0.000000
v 1.200857 0.024014 1.000000
vt 1.000000 0.500000
vt 0.500000 1.000000
vt 0.500000 0.500000
vt 0.000000 1.000000
vt 0.000000 0.500000
vt 0.000000 0.000000
vt 0.500000 0.000000
vt 1.000000 1.000000
vt 1.000000 0.000000
vn -0.9686 -0.0000 0.2485
vn -0.9537 -0.0062 -0.3008
vn -0.9537 0.0062 -0.3008
vn -0.9542 0.0500 0.2948
vn -0.9554 -0.0000 -0.2952
vn -0.9542 -0.0500 0.2948
s off
f 8/1/1 6/2/1 9/3/1
f 9/3/2 3/4/2 7/5/2
f 1/6/3 9/3/3 7/5/3
f 5/7/1 8/1/1 9/3/1
f 8/1/4 4/8/4 6/2/4
f 9/3/5 6/2/5 3/4/5
f 1/6/5 5/7/5 9/3/5
f 5/7/6 2/9/6 8/1/6
