# Blender v2.91.0 OBJ File: 'cell models.blend'
# www.blender.org
o Plane.005_Plane.084
v 1.000000 -1.000000 2.000000
v 1.000000 -1.000000 0.000000
v -1.000000 -1.000000 2.000000
v -1.000000 -1.000000 -0.000000
v 1.000000 -1.308938 1.000000
v -1.000000 -1.308938 1.000000
v -0.000000 -1.052386 2.000000
v 0.000000 -1.052386 0.000000
v -0.000000 -1.308938 1.000000
v 0.500000 -0.912506 2.000000
v -0.500000 -0.981955 0.000000
v -0.500000 -1.308938 1.000000
v -0.500000 -1.000000 2.000000
v 0.500000 -0.912506 0.000000
v 0.500000 -1.308938 1.000000
vt 0.500000 0.750000
vt 1.000000 1.000000
vt 0.500000 1.000000
vt 0.000000 1.000000
vt 0.000000 0.750000
vt 0.500000 0.250000
vt 0.000000 0.500000
vt 0.000000 0.250000
vt 1.000000 0.500000
vt 0.500000 0.500000
vt 1.000000 0.000000
vt 0.500000 0.000000
vt 0.000000 0.000000
vt 1.000000 0.750000
vt 1.000000 0.250000
vn 0.0000 0.9554 0.2952
vn 0.0000 0.9554 -0.2952
vn -0.2517 0.8997 -0.3567
vn 0.0000 0.9686 0.2485
vn 0.1606 0.9176 -0.3637
vn 0.0996 0.9507 -0.2937
vn -0.0343 0.9499 0.3106
vn 0.0000 0.9686 -0.2485
vn -0.2517 0.8997 0.3567
vn 0.1606 0.9176 0.3637
vn 0.1327 0.9421 0.3080
s off
f 12/1/1 4/2/1 6/3/1
f 12/1/2 3/4/2 13/5/2
f 15/6/3 7/7/3 10/8/3
f 15/6/4 8/9/4 9/10/4
f 2/11/1 15/6/1 5/12/1
f 1/13/5 15/6/5 10/8/5
f 7/7/6 12/1/6 13/5/6
f 8/9/4 12/1/4 9/10/4
f 12/1/7 11/14/7 4/2/7
f 12/1/2 6/3/2 3/4/2
f 15/6/8 9/10/8 7/7/8
f 15/6/9 14/15/9 8/9/9
f 2/11/10 14/15/10 15/6/10
f 1/13/2 5/12/2 15/6/2
f 7/7/8 9/10/8 12/1/8
f 8/9/11 11/14/11 12/1/11
