# Blender v2.83.5 OBJ File: 'corner_top_left.blend'
# www.blender.org
v -0.000001 -0.170064 -1.829311
v -0.000001 -0.075412 -1.574660
v -0.000001 -0.424715 -1.923962
v -1.573062 -0.075412 -1.574660
v -1.827713 -0.170064 -1.829311
v -1.922353 -0.424715 -1.923953
v -1.827713 -0.170062 -0.000001
v -1.922365 -0.424713 -0.000000
v -2.002365 -0.424713 -0.000000
v -2.002353 -0.424715 -1.923953
v -2.002353 -0.424715 -2.003953
v -1.922353 -0.424715 -2.003953
v -0.000001 -0.424715 -2.003962
v -1.573062 -0.075410 -0.000001
v -1.573062 0.004590 -0.000001
v -1.573062 0.004588 -1.574660
v -0.000001 0.004588 -1.574660
v -0.000001 -0.000002 -2.000000
v -2.000001 -0.000001 -2.000000
v -0.000001 0.000000 -0.000000
v -2.000001 0.000001 -0.000001
vt 0.907770 0.500000
vt 0.818193 0.500000
vt 0.818193 0.890788
vt 1.000069 0.500000
vt 0.907770 0.971920
vt 0.818193 0.890639
vt 0.907770 0.500000
vt 0.907770 0.972041
vt 1.000069 0.500000
vt 1.000069 1.000038
vt 1.000069 1.000280
vt 1.000069 1.000038
vt 1.000069 0.500000
vt 1.000069 1.000038
vt 1.000069 1.000038
vt 1.000069 1.000280
vt 1.000069 0.500000
vt 0.818193 0.500000
vt 0.818193 0.890639
vt 0.818193 0.500000
vt 0.818193 0.500000
vt 0.818193 0.890788
vt 0.500000 0.000000
vt 0.000000 0.500000
vt 0.000000 0.000000
vt 0.500000 0.500000
vn -0.0000 -0.6947 0.7193
vn -0.0000 -0.8247 0.5656
vn 0.2385 -0.9220 0.3052
vn 0.0000 -0.5685 0.8227
vn -0.0000 -0.6948 0.7192
vn 0.4931 -0.7170 0.4927
vn 0.2384 -0.9220 0.3052
vn 0.5977 -0.8017 -0.0000
vn 0.8232 -0.5677 -0.0001
vn 0.5031 -0.7030 0.5027
vn 0.5031 -0.7029 0.5027
vn 0.8232 -0.5677 -0.0000
vn -0.0000 -1.0000 0.0000
vn 0.5031 -0.7029 0.5028
vn 0.5029 -0.7029 0.5029
vn 0.5032 -0.7029 0.5027
vn -0.0001 -0.5685 0.8227
vn 0.7071 -0.7071 -0.0001
vn 0.8946 0.0000 0.4468
vn 1.0000 0.0000 -0.0003
vn -0.0000 0.0000 1.0000
vn 0.2384 -0.9220 0.3051
vn 0.7071 -0.7071 -0.0000
vn 0.5977 -0.8017 -0.0001
s off
f 1/1/1 2/2/2 4/3/3
f 3/4/4 1/1/5 5/5/6
f 1/1/1 4/3/3 5/5/6
f 4/6/7 7/7/8 5/8/6
f 8/9/9 6/10/10 5/8/6
f 3/4/4 5/5/6 6/11/11
f 8/9/9 5/8/6 7/7/8
f 8/9/12 10/12/13 6/10/11
f 8/9/12 9/13/13 10/12/13
f 10/12/13 11/14/13 6/10/14
f 11/14/13 12/15/13 6/10/15
f 3/4/4 6/11/16 12/16/13
f 3/4/17 12/16/13 13/17/13
f 14/18/18 16/19/19 15/20/20
f 4/3/3 17/21/21 16/22/19
f 14/18/18 4/6/22 16/19/19
f 4/3/7 2/2/2 17/21/21
f 4/6/3 14/18/23 7/7/24
f 20/23/13 19/24/13 18/25/13
f 20/23/13 21/26/13 19/24/13
