# Blender v2.83.5 OBJ File: 'corner_top_left.blend'
# www.blender.org
v 0.000000 -1.000000 -1.000000
v 0.000000 -0.999999 1.000000
v -0.000000 1.000000 -1.000000
v 0.000000 1.000001 1.000000
v -0.000000 1.000000 -1.000000
v 0.000000 1.000001 1.000000
v -2.000000 1.000000 -1.000000
v -2.000000 1.000000 1.000000
v 0.000000 -1.000000 -1.000000
v 0.000000 1.000000 -1.000000
v -2.000000 -1.000000 -1.000000
v -2.000000 1.000000 -1.000000
v -0.116873 0.885035 -0.884586
v 0.001441 0.566721 -0.566271
v -0.435188 1.003335 -1.002888
v -0.435187 1.003350 1.004207
v 0.001441 0.566721 1.004207
v -0.116873 0.885035 1.004207
v -0.435188 -1.003757 -1.002900
v 0.001441 -1.003757 -0.566271
v -0.116873 -1.003757 -0.884586
vt 0.500000 0.000000
vt 0.000000 0.500000
vt 0.000000 0.000000
vt 0.500000 0.500000
vt 1.000000 0.000000
vt 0.500000 0.500000
vt 0.500000 0.000000
vt 1.000000 0.500000
vt 1.000000 0.000000
vt 0.500000 0.500000
vt 0.500000 0.000000
vt 1.000000 0.500000
vt 1.000069 0.506427
vt 1.000069 1.000038
vt 0.907770 0.972041
vt 0.818193 0.890639
vt 0.818193 0.506427
vt 0.907770 0.506427
vt 0.907770 0.506427
vt 0.818193 0.506427
vt 0.818193 0.890788
vt 1.000069 0.506427
vt 0.907770 0.971920
vt 1.000069 1.000280
vn -1.0000 -0.0000 0.0000
vn 0.0000 -1.0000 0.0000
vn 0.0000 0.0000 1.0000
vn -0.3484 -0.9374 0.0000
vn -0.9373 -0.3484 0.0000
vn -0.9373 -0.0000 0.3484
vn -0.3484 0.0000 0.9373
vn -0.3484 -0.9373 0.0000
vn -0.3484 -0.0000 0.9374
s off
f 2/1/1 3/2/1 1/3/1
f 2/1/1 4/4/1 3/2/1
f 6/5/2 7/6/2 5/7/2
f 6/5/2 8/8/2 7/6/2
f 10/9/3 11/10/3 9/11/3
f 10/9/3 12/12/3 11/10/3
f 16/13/4 15/14/4 13/15/4
f 14/16/5 17/17/5 18/18/5
f 21/19/6 20/20/6 14/21/6
f 19/22/7 21/19/7 13/23/7
f 16/13/8 13/15/8 18/18/8
f 14/16/5 18/18/5 13/15/5
f 21/19/6 14/21/6 13/23/6
f 19/22/9 13/23/9 15/24/9
